<svg version="1.1" viewBox="0.0 0.0 693.3333333333334 736.6666666666666" fill="none" stroke="none" stroke-linecap="square" stroke-miterlimit="10" xmlns:xlink="http://www.w3.org/1999/xlink" xmlns="http://www.w3.org/2000/svg"><clipPath id="p.0"><path d="m0 0l693.3333 0l0 736.6667l-693.3333 0l0 -736.6667z" clip-rule="nonzero"/></clipPath><g clip-path="url(#p.0)"><path fill="#000000" fill-opacity="0.0" d="m0 0l693.3333 0l0 736.6667l-693.3333 0z" fill-rule="evenodd"/><path fill="#000000" d="m474.1713 276.9527l-10.495697 18.227264l-22.158203 0.08087158l-10.495697 -18.150665l10.495697 -18.227264l22.158203 -0.08087158z" fill-rule="evenodd"/><path stroke="#000000" stroke-width="1.0" stroke-linejoin="round" stroke-linecap="butt" d="m474.1713 276.9527l-10.495697 18.227264l-22.158203 0.08087158l-10.495697 -18.150665l10.495697 -18.227264l22.158203 -0.08087158z" fill-rule="evenodd"/><path fill="#000000" d="m441.6426 296.20358l-10.495697 18.227264l-22.158203 0.08087158l-10.495697 -18.150665l10.495697 -18.227264l22.158203 -0.08087158z" fill-rule="evenodd"/><path stroke="#000000" stroke-width="1.0" stroke-linejoin="round" stroke-linecap="butt" d="m441.6426 296.20358l-10.495697 18.227264l-22.158203 0.08087158l-10.495697 -18.150665l10.495697 -18.227264l22.158203 -0.08087158z" fill-rule="evenodd"/><path fill="#000000" d="m408.54828 313.53134l-10.495697 18.227264l-22.158203 0.08087158l-10.495697 -18.150665l10.495697 -18.227264l22.158203 -0.08087158z" fill-rule="evenodd"/><path stroke="#000000" stroke-width="1.0" stroke-linejoin="round" stroke-linecap="butt" d="m408.54828 313.53134l-10.495697 18.227264l-22.158203 0.08087158l-10.495697 -18.150665l10.495697 -18.227264l22.158203 -0.08087158z" fill-rule="evenodd"/><path fill="#000000" d="m375.17664 332.24002l-10.495697 18.227295l-22.158203 0.08087158l-10.495697 -18.150665l10.495697 -18.227295l22.158203 -0.080841064z" fill-rule="evenodd"/><path stroke="#000000" stroke-width="1.0" stroke-linejoin="round" stroke-linecap="butt" d="m375.17664 332.24002l-10.495697 18.227295l-22.158203 0.08087158l-10.495697 -18.150665l10.495697 -18.227295l22.158203 -0.080841064z" fill-rule="evenodd"/><path fill="#000000" d="m342.64792 351.49094l-10.495697 18.227264l-22.158203 0.08087158l-10.495697 -18.150665l10.495697 -18.227264l22.158203 -0.08087158z" fill-rule="evenodd"/><path stroke="#000000" stroke-width="1.0" stroke-linejoin="round" stroke-linecap="butt" d="m342.64792 351.49094l-10.495697 18.227264l-22.158203 0.08087158l-10.495697 -18.150665l10.495697 -18.227264l22.158203 -0.08087158z" fill-rule="evenodd"/><path fill="#000000" d="m309.5536 368.81866l-10.495697 18.227295l-22.158203 0.08087158l-10.495697 -18.150665l10.495697 -18.227295l22.158203 -0.08087158z" fill-rule="evenodd"/><path stroke="#000000" stroke-width="1.0" stroke-linejoin="round" stroke-linecap="butt" d="m309.5536 368.81866l-10.495697 18.227295l-22.158203 0.08087158l-10.495697 -18.150665l10.495697 -18.227295l22.158203 -0.08087158z" fill-rule="evenodd"/><path fill="#000000" d="m276.13687 387.159l-10.495697 18.227264l-22.158218 0.08087158l-10.495697 -18.150665l10.495697 -18.227264l22.158218 -0.08087158z" fill-rule="evenodd"/><path stroke="#000000" stroke-width="1.0" stroke-linejoin="round" stroke-linecap="butt" d="m276.13687 387.159l-10.495697 18.227264l-22.158218 0.08087158l-10.495697 -18.150665l10.495697 -18.227264l22.158218 -0.08087158z" fill-rule="evenodd"/><path fill="#000000" d="m243.37274 406.40988l-10.495697 18.227264l-22.158218 0.08087158l-10.495697 -18.150665l10.495697 -18.227264l22.158218 -0.08087158z" fill-rule="evenodd"/><path stroke="#000000" stroke-width="1.0" stroke-linejoin="round" stroke-linecap="butt" d="m243.37274 406.40988l-10.495697 18.227264l-22.158218 0.08087158l-10.495697 -18.150665l10.495697 -18.227264l22.158218 -0.08087158z" fill-rule="evenodd"/><path fill="#000000" d="m506.53723 295.49945l-10.495697 18.227264l-22.158203 0.08087158l-10.495697 -18.150665l10.495697 -18.227264l22.158203 -0.08087158z" fill-rule="evenodd"/><path stroke="#000000" stroke-width="1.0" stroke-linejoin="round" stroke-linecap="butt" d="m506.53723 295.49945l-10.495697 18.227264l-22.158203 0.08087158l-10.495697 -18.150665l10.495697 -18.227264l22.158203 -0.08087158z" fill-rule="evenodd"/><path fill="#000000" d="m474.00854 313.92746l-10.495697 18.227264l-22.158203 0.08087158l-10.495697 -18.150665l10.495697 -18.227264l22.158203 -0.08087158z" fill-rule="evenodd"/><path stroke="#000000" stroke-width="1.0" stroke-linejoin="round" stroke-linecap="butt" d="m474.00854 313.92746l-10.495697 18.227264l-22.158203 0.08087158l-10.495697 -18.150665l10.495697 -18.227264l22.158203 -0.08087158z" fill-rule="evenodd"/><path fill="#000000" d="m440.9142 332.0781l-10.495697 18.227264l-22.158203 0.08087158l-10.495697 -18.150665l10.495697 -18.227264l22.158203 -0.08087158z" fill-rule="evenodd"/><path stroke="#000000" stroke-width="1.0" stroke-linejoin="round" stroke-linecap="butt" d="m440.9142 332.0781l-10.495697 18.227264l-22.158203 0.08087158l-10.495697 -18.150665l10.495697 -18.227264l22.158203 -0.08087158z" fill-rule="evenodd"/><path fill="#000000" d="m407.54257 350.78677l-10.495697 18.227295l-22.158234 0.08087158l-10.495697 -18.150665l10.495697 -18.227295l22.158234 -0.080841064z" fill-rule="evenodd"/><path stroke="#000000" stroke-width="1.0" stroke-linejoin="round" stroke-linecap="butt" d="m407.54257 350.78677l-10.495697 18.227295l-22.158234 0.08087158l-10.495697 -18.150665l10.495697 -18.227295l22.158234 -0.080841064z" fill-rule="evenodd"/><path fill="#000000" d="m375.01385 369.2148l-10.495697 18.227264l-22.158203 0.08087158l-10.495697 -18.150665l10.495697 -18.227264l22.158203 -0.08087158z" fill-rule="evenodd"/><path stroke="#000000" stroke-width="1.0" stroke-linejoin="round" stroke-linecap="butt" d="m375.01385 369.2148l-10.495697 18.227264l-22.158203 0.08087158l-10.495697 -18.150665l10.495697 -18.227264l22.158203 -0.08087158z" fill-rule="evenodd"/><path fill="#000000" d="m341.91953 387.36542l-10.495697 18.227295l-22.158203 0.08087158l-10.495697 -18.150665l10.495697 -18.227295l22.158203 -0.08087158z" fill-rule="evenodd"/><path stroke="#000000" stroke-width="1.0" stroke-linejoin="round" stroke-linecap="butt" d="m341.91953 387.36542l-10.495697 18.227295l-22.158203 0.08087158l-10.495697 -18.150665l10.495697 -18.227295l22.158203 -0.08087158z" fill-rule="evenodd"/><path fill="#000000" d="m308.5028 405.70575l-10.495697 18.227264l-22.158234 0.08087158l-10.495697 -18.150665l10.495697 -18.227264l22.158234 -0.08087158z" fill-rule="evenodd"/><path stroke="#000000" stroke-width="1.0" stroke-linejoin="round" stroke-linecap="butt" d="m308.5028 405.70575l-10.495697 18.227264l-22.158234 0.08087158l-10.495697 -18.150665l10.495697 -18.227264l22.158234 -0.08087158z" fill-rule="evenodd"/><path fill="#000000" d="m275.73868 424.13376l-10.495697 18.227264l-22.158218 0.08087158l-10.495697 -18.150665l10.495697 -18.227264l22.158218 -0.08087158z" fill-rule="evenodd"/><path stroke="#000000" stroke-width="1.0" stroke-linejoin="round" stroke-linecap="butt" d="m275.73868 424.13376l-10.495697 18.227264l-22.158218 0.08087158l-10.495697 -18.150665l10.495697 -18.227264l22.158218 -0.08087158z" fill-rule="evenodd"/><path fill="#000000" d="m242.64435 442.2844l-10.495697 18.227264l-22.158218 0.08087158l-10.495697 -18.150665l10.495697 -18.227264l22.158218 -0.08087158z" fill-rule="evenodd"/><path stroke="#000000" stroke-width="1.0" stroke-linejoin="round" stroke-linecap="butt" d="m242.64435 442.2844l-10.495697 18.227264l-22.158218 0.08087158l-10.495697 -18.150665l10.495697 -18.227264l22.158218 -0.08087158z" fill-rule="evenodd"/><path fill="#000000" d="m408.54828 240.43568l-10.495697 18.22728l-22.158203 0.08087158l-10.495697 -18.150665l10.495697 -18.22728l22.158203 -0.08087158z" fill-rule="evenodd"/><path stroke="#000000" stroke-width="1.0" stroke-linejoin="round" stroke-linecap="butt" d="m408.54828 240.43568l-10.495697 18.22728l-22.158203 0.08087158l-10.495697 -18.150665l10.495697 -18.22728l22.158203 -0.08087158z" fill-rule="evenodd"/><path fill="#000000" d="m376.0196 259.45294l-10.495697 18.227264l-22.158234 0.08087158l-10.495697 -18.150665l10.495697 -18.227264l22.158234 -0.08085632z" fill-rule="evenodd"/><path stroke="#000000" stroke-width="1.0" stroke-linejoin="round" stroke-linecap="butt" d="m376.0196 259.45294l-10.495697 18.227264l-22.158234 0.08087158l-10.495697 -18.150665l10.495697 -18.227264l22.158234 -0.08085632z" fill-rule="evenodd"/><path fill="#000000" d="m342.92526 277.0143l-10.495697 18.227295l-22.158234 0.08087158l-10.495697 -18.150665l10.495697 -18.227295l22.158234 -0.080841064z" fill-rule="evenodd"/><path stroke="#000000" stroke-width="1.0" stroke-linejoin="round" stroke-linecap="butt" d="m342.92526 277.0143l-10.495697 18.227295l-22.158234 0.08087158l-10.495697 -18.150665l10.495697 -18.227295l22.158234 -0.080841064z" fill-rule="evenodd"/><path fill="#000000" d="m309.5536 295.72302l-10.495697 18.227295l-22.158203 0.08087158l-10.495697 -18.150665l10.495697 -18.227295l22.158203 -0.08087158z" fill-rule="evenodd"/><path stroke="#000000" stroke-width="1.0" stroke-linejoin="round" stroke-linecap="butt" d="m309.5536 295.72302l-10.495697 18.227295l-22.158203 0.08087158l-10.495697 -18.150665l10.495697 -18.227295l22.158203 -0.08087158z" fill-rule="evenodd"/><path fill="#000000" d="m277.0249 314.8519l-10.495697 18.227264l-22.158218 0.08087158l-10.495697 -18.150665l10.495697 -18.227264l22.158218 -0.08087158z" fill-rule="evenodd"/><path stroke="#000000" stroke-width="1.0" stroke-linejoin="round" stroke-linecap="butt" d="m277.0249 314.8519l-10.495697 18.227264l-22.158218 0.08087158l-10.495697 -18.150665l10.495697 -18.227264l22.158218 -0.08087158z" fill-rule="evenodd"/><path fill="#000000" d="m243.93057 332.30167l-10.495697 18.227264l-22.158218 0.08087158l-10.495697 -18.150665l10.495697 -18.227264l22.158218 -0.08087158z" fill-rule="evenodd"/><path stroke="#000000" stroke-width="1.0" stroke-linejoin="round" stroke-linecap="butt" d="m243.93057 332.30167l-10.495697 18.227264l-22.158218 0.08087158l-10.495697 -18.150665l10.495697 -18.227264l22.158218 -0.08087158z" fill-rule="evenodd"/><path fill="#000000" d="m440.9142 258.98245l-10.495697 18.227264l-22.158203 0.08087158l-10.495697 -18.150665l10.495697 -18.22728l22.158203 -0.08087158z" fill-rule="evenodd"/><path stroke="#000000" stroke-width="1.0" stroke-linejoin="round" stroke-linecap="butt" d="m440.9142 258.98245l-10.495697 18.227264l-22.158203 0.08087158l-10.495697 -18.150665l10.495697 -18.22728l22.158203 -0.08087158z" fill-rule="evenodd"/><path fill="#000000" d="m408.8173 277.41046l-10.495697 18.227264l-22.158203 0.08087158l-10.495697 -18.150665l10.495697 -18.227264l22.158203 -0.08087158z" fill-rule="evenodd"/><path stroke="#000000" stroke-width="1.0" stroke-linejoin="round" stroke-linecap="butt" d="m408.8173 277.41046l-10.495697 18.227264l-22.158203 0.08087158l-10.495697 -18.150665l10.495697 -18.227264l22.158203 -0.08087158z" fill-rule="evenodd"/><path fill="#000000" d="m375.29117 295.56107l-10.495697 18.227295l-22.158203 0.08087158l-10.495697 -18.150665l10.495697 -18.227295l22.158203 -0.080841064z" fill-rule="evenodd"/><path stroke="#000000" stroke-width="1.0" stroke-linejoin="round" stroke-linecap="butt" d="m375.29117 295.56107l-10.495697 18.227295l-22.158203 0.08087158l-10.495697 -18.150665l10.495697 -18.227295l22.158203 -0.080841064z" fill-rule="evenodd"/><path fill="#000000" d="m341.91953 314.26978l-10.495697 18.227295l-22.158203 0.08087158l-10.495697 -18.150665l10.495697 -18.227295l22.158203 -0.08087158z" fill-rule="evenodd"/><path stroke="#000000" stroke-width="1.0" stroke-linejoin="round" stroke-linecap="butt" d="m341.91953 314.26978l-10.495697 18.227295l-22.158203 0.08087158l-10.495697 -18.150665l10.495697 -18.227295l22.158203 -0.08087158z" fill-rule="evenodd"/><path fill="#000000" d="m309.82263 332.6978l-10.495697 18.227264l-22.158234 0.08087158l-10.495697 -18.150665l10.495697 -18.227264l22.158234 -0.08087158z" fill-rule="evenodd"/><path stroke="#000000" stroke-width="1.0" stroke-linejoin="round" stroke-linecap="butt" d="m309.82263 332.6978l-10.495697 18.227264l-22.158234 0.08087158l-10.495697 -18.150665l10.495697 -18.227264l22.158234 -0.08087158z" fill-rule="evenodd"/><path fill="#000000" d="m276.2965 350.84842l-10.495697 18.227264l-22.158218 0.08087158l-10.495697 -18.150635l10.495697 -18.227295l22.158218 -0.08087158z" fill-rule="evenodd"/><path stroke="#000000" stroke-width="1.0" stroke-linejoin="round" stroke-linecap="butt" d="m276.2965 350.84842l-10.495697 18.227264l-22.158218 0.08087158l-10.495697 -18.150635l10.495697 -18.227295l22.158218 -0.08087158z" fill-rule="evenodd"/><path fill="#000000" d="m242.87976 369.18875l-10.495697 18.227264l-22.158203 0.08087158l-10.495697 -18.150665l10.495697 -18.227264l22.158203 -0.08087158z" fill-rule="evenodd"/><path stroke="#000000" stroke-width="1.0" stroke-linejoin="round" stroke-linecap="butt" d="m242.87976 369.18875l-10.495697 18.227264l-22.158203 0.08087158l-10.495697 -18.150665l10.495697 -18.227264l22.158203 -0.08087158z" fill-rule="evenodd"/><path fill="#000000" d="m375.27026 222.31296l-10.495697 18.22728l-22.158234 0.08087158l-10.495697 -18.150665l10.495697 -18.22728l22.158234 -0.08085632z" fill-rule="evenodd"/><path stroke="#000000" stroke-width="1.0" stroke-linejoin="round" stroke-linecap="butt" d="m375.27026 222.31296l-10.495697 18.22728l-22.158234 0.08087158l-10.495697 -18.150665l10.495697 -18.22728l22.158234 -0.08085632z" fill-rule="evenodd"/><path fill="#000000" d="m343.17334 240.74098l-10.495697 18.22728l-22.158203 0.08087158l-10.495697 -18.150665l10.495697 -18.22728l22.158203 -0.08087158z" fill-rule="evenodd"/><path stroke="#000000" stroke-width="1.0" stroke-linejoin="round" stroke-linecap="butt" d="m343.17334 240.74098l-10.495697 18.22728l-22.158203 0.08087158l-10.495697 -18.150665l10.495697 -18.22728l22.158203 -0.08087158z" fill-rule="evenodd"/><path fill="#000000" d="m309.64722 258.8916l-10.495697 18.227264l-22.158203 0.08087158l-10.495697 -18.150665l10.495697 -18.227264l22.158203 -0.08087158z" fill-rule="evenodd"/><path stroke="#000000" stroke-width="1.0" stroke-linejoin="round" stroke-linecap="butt" d="m309.64722 258.8916l-10.495697 18.227264l-22.158203 0.08087158l-10.495697 -18.150665l10.495697 -18.227264l22.158203 -0.08087158z" fill-rule="evenodd"/><path fill="#000000" d="m276.27557 277.6003l-10.495697 18.227264l-22.158203 0.08087158l-10.495697 -18.150665l10.495697 -18.227264l22.158203 -0.08087158z" fill-rule="evenodd"/><path stroke="#000000" stroke-width="1.0" stroke-linejoin="round" stroke-linecap="butt" d="m276.27557 277.6003l-10.495697 18.227264l-22.158203 0.08087158l-10.495697 -18.150665l10.495697 -18.227264l22.158203 -0.08087158z" fill-rule="evenodd"/><path fill="#000000" d="m244.17867 296.02832l-10.495697 18.227295l-22.158203 0.080841064l-10.495697 -18.150635l10.495697 -18.227295l22.158203 -0.08087158z" fill-rule="evenodd"/><path stroke="#000000" stroke-width="1.0" stroke-linejoin="round" stroke-linecap="butt" d="m244.17867 296.02832l-10.495697 18.227295l-22.158203 0.080841064l-10.495697 -18.150635l10.495697 -18.227295l22.158203 -0.08087158z" fill-rule="evenodd"/><path fill="#000000" d="m230.3823 461.58405l10.495697 -18.227264l22.158203 -0.08087158l10.495697 18.150665l-10.495697 18.227264l-22.158203 0.08087158z" fill-rule="evenodd"/><path stroke="#000000" stroke-width="1.0" stroke-linejoin="round" stroke-linecap="butt" d="m230.3823 461.58405l10.495697 -18.227264l22.158203 -0.08087158l10.495697 18.150665l-10.495697 18.227264l-22.158203 0.08087158z" fill-rule="evenodd"/><path fill="#000000" d="m262.911 442.33316l10.495697 -18.227264l22.158203 -0.08087158l10.495697 18.150665l-10.495697 18.227264l-22.158203 0.08087158z" fill-rule="evenodd"/><path stroke="#000000" stroke-width="1.0" stroke-linejoin="round" stroke-linecap="butt" d="m262.911 442.33316l10.495697 -18.227264l22.158203 -0.08087158l10.495697 18.150665l-10.495697 18.227264l-22.158203 0.08087158z" fill-rule="evenodd"/><path fill="#000000" d="m296.00534 425.00543l10.495697 -18.227295l22.158203 -0.08087158l10.495697 18.150665l-10.495697 18.227295l-22.158203 0.08087158z" fill-rule="evenodd"/><path stroke="#000000" stroke-width="1.0" stroke-linejoin="round" stroke-linecap="butt" d="m296.00534 425.00543l10.495697 -18.227295l22.158203 -0.08087158l10.495697 18.150665l-10.495697 18.227295l-22.158203 0.08087158z" fill-rule="evenodd"/><path fill="#000000" d="m329.37698 406.29672l10.495697 -18.227295l22.158203 -0.080841064l10.495697 18.150635l-10.495697 18.227295l-22.158203 0.08087158z" fill-rule="evenodd"/><path stroke="#000000" stroke-width="1.0" stroke-linejoin="round" stroke-linecap="butt" d="m329.37698 406.29672l10.495697 -18.227295l22.158203 -0.080841064l10.495697 18.150635l-10.495697 18.227295l-22.158203 0.08087158z" fill-rule="evenodd"/><path fill="#000000" d="m361.90567 387.04584l10.495697 -18.227295l22.158203 -0.08087158l10.495697 18.150665l-10.495697 18.227295l-22.158203 0.08087158z" fill-rule="evenodd"/><path stroke="#000000" stroke-width="1.0" stroke-linejoin="round" stroke-linecap="butt" d="m361.90567 387.04584l10.495697 -18.227295l22.158203 -0.08087158l10.495697 18.150665l-10.495697 18.227295l-22.158203 0.08087158z" fill-rule="evenodd"/><path fill="#000000" d="m395.0 369.71808l10.495697 -18.227264l22.158203 -0.08087158l10.495697 18.150665l-10.495697 18.227264l-22.158203 0.08087158z" fill-rule="evenodd"/><path stroke="#000000" stroke-width="1.0" stroke-linejoin="round" stroke-linecap="butt" d="m395.0 369.71808l10.495697 -18.227264l22.158203 -0.08087158l10.495697 18.150665l-10.495697 18.227264l-22.158203 0.08087158z" fill-rule="evenodd"/><path fill="#000000" d="m428.41675 351.37775l10.495697 -18.227264l22.158203 -0.08087158l10.495697 18.150665l-10.495697 18.227264l-22.158203 0.08087158z" fill-rule="evenodd"/><path stroke="#000000" stroke-width="1.0" stroke-linejoin="round" stroke-linecap="butt" d="m428.41675 351.37775l10.495697 -18.227264l22.158203 -0.08087158l10.495697 18.150665l-10.495697 18.227264l-22.158203 0.08087158z" fill-rule="evenodd"/><path fill="#000000" d="m461.18088 332.12686l10.495697 -18.227264l22.158203 -0.08087158l10.495697 18.150665l-10.495697 18.227264l-22.158203 0.08087158z" fill-rule="evenodd"/><path stroke="#000000" stroke-width="1.0" stroke-linejoin="round" stroke-linecap="butt" d="m461.18088 332.12686l10.495697 -18.227264l22.158203 -0.08087158l10.495697 18.150665l-10.495697 18.227264l-22.158203 0.08087158z" fill-rule="evenodd"/><path fill="#000000" d="m296.00534 498.10107l10.495697 -18.227295l22.158203 -0.08087158l10.495697 18.150665l-10.495697 18.227264l-22.158203 0.08087158z" fill-rule="evenodd"/><path stroke="#000000" stroke-width="1.0" stroke-linejoin="round" stroke-linecap="butt" d="m296.00534 498.10107l10.495697 -18.227295l22.158203 -0.08087158l10.495697 18.150665l-10.495697 18.227264l-22.158203 0.08087158z" fill-rule="evenodd"/><path fill="#000000" d="m328.53403 479.0838l10.495697 -18.227264l22.158203 -0.08087158l10.495697 18.150665l-10.495697 18.227264l-22.158203 0.08087158z" fill-rule="evenodd"/><path stroke="#000000" stroke-width="1.0" stroke-linejoin="round" stroke-linecap="butt" d="m328.53403 479.0838l10.495697 -18.227264l22.158203 -0.08087158l10.495697 18.150665l-10.495697 18.227264l-22.158203 0.08087158z" fill-rule="evenodd"/><path fill="#000000" d="m361.62836 461.52243l10.495697 -18.227295l22.158203 -0.080841064l10.495697 18.150635l-10.495697 18.227295l-22.158203 0.08087158z" fill-rule="evenodd"/><path stroke="#000000" stroke-width="1.0" stroke-linejoin="round" stroke-linecap="butt" d="m361.62836 461.52243l10.495697 -18.227295l22.158203 -0.080841064l10.495697 18.150635l-10.495697 18.227295l-22.158203 0.08087158z" fill-rule="evenodd"/><path fill="#000000" d="m395.0 442.81372l10.495697 -18.227264l22.158203 -0.08087158l10.495697 18.150665l-10.495697 18.227264l-22.158203 0.08087158z" fill-rule="evenodd"/><path stroke="#000000" stroke-width="1.0" stroke-linejoin="round" stroke-linecap="butt" d="m395.0 442.81372l10.495697 -18.227264l22.158203 -0.08087158l10.495697 18.150665l-10.495697 18.227264l-22.158203 0.08087158z" fill-rule="evenodd"/><path fill="#000000" d="m427.52872 423.68484l10.495697 -18.227264l22.158203 -0.08087158l10.495697 18.150665l-10.495697 18.227264l-22.158203 0.08087158z" fill-rule="evenodd"/><path stroke="#000000" stroke-width="1.0" stroke-linejoin="round" stroke-linecap="butt" d="m427.52872 423.68484l10.495697 -18.227264l22.158203 -0.08087158l10.495697 18.150665l-10.495697 18.227264l-22.158203 0.08087158z" fill-rule="evenodd"/><path fill="#000000" d="m460.62305 406.23508l10.495697 -18.227264l22.158203 -0.08087158l10.495697 18.150665l-10.495697 18.227264l-22.158203 0.08087158z" fill-rule="evenodd"/><path stroke="#000000" stroke-width="1.0" stroke-linejoin="round" stroke-linecap="butt" d="m460.62305 406.23508l10.495697 -18.227264l22.158203 -0.08087158l10.495697 18.150665l-10.495697 18.227264l-22.158203 0.08087158z" fill-rule="evenodd"/><path fill="#000000" d="m263.6394 479.55432l10.495697 -18.227295l22.158203 -0.08087158l10.495697 18.150665l-10.495697 18.227295l-22.158203 0.080841064z" fill-rule="evenodd"/><path stroke="#000000" stroke-width="1.0" stroke-linejoin="round" stroke-linecap="butt" d="m263.6394 479.55432l10.495697 -18.227295l22.158203 -0.08087158l10.495697 18.150665l-10.495697 18.227295l-22.158203 0.080841064z" fill-rule="evenodd"/><path fill="#000000" d="m295.7363 461.12628l10.495697 -18.227264l22.158234 -0.08087158l10.495697 18.150665l-10.495697 18.227264l-22.158234 0.08087158z" fill-rule="evenodd"/><path stroke="#000000" stroke-width="1.0" stroke-linejoin="round" stroke-linecap="butt" d="m295.7363 461.12628l10.495697 -18.227264l22.158234 -0.08087158l10.495697 18.150665l-10.495697 18.227264l-22.158234 0.08087158z" fill-rule="evenodd"/><path fill="#000000" d="m329.26242 442.97568l10.495697 -18.227295l22.158203 -0.080841064l10.495697 18.150635l-10.495697 18.227295l-22.158203 0.08087158z" fill-rule="evenodd"/><path stroke="#000000" stroke-width="1.0" stroke-linejoin="round" stroke-linecap="butt" d="m329.26242 442.97568l10.495697 -18.227295l22.158203 -0.080841064l10.495697 18.150635l-10.495697 18.227295l-22.158203 0.08087158z" fill-rule="evenodd"/><path fill="#000000" d="m362.63406 424.26697l10.495697 -18.227264l22.158234 -0.08087158l10.495697 18.150665l-10.495697 18.227264l-22.158234 0.08087158z" fill-rule="evenodd"/><path stroke="#000000" stroke-width="1.0" stroke-linejoin="round" stroke-linecap="butt" d="m362.63406 424.26697l10.495697 -18.227264l22.158234 -0.08087158l10.495697 18.150665l-10.495697 18.227264l-22.158234 0.08087158z" fill-rule="evenodd"/><path fill="#000000" d="m394.731 405.83896l10.495697 -18.227295l22.158203 -0.08087158l10.495697 18.150665l-10.495697 18.227264l-22.158203 0.08087158z" fill-rule="evenodd"/><path stroke="#000000" stroke-width="1.0" stroke-linejoin="round" stroke-linecap="butt" d="m394.731 405.83896l10.495697 -18.227295l22.158203 -0.08087158l10.495697 18.150665l-10.495697 18.227264l-22.158203 0.08087158z" fill-rule="evenodd"/><path fill="#000000" d="m428.2571 387.68832l10.495697 -18.227264l22.158203 -0.08087158l10.495697 18.150665l-10.495697 18.227264l-22.158203 0.08087158z" fill-rule="evenodd"/><path stroke="#000000" stroke-width="1.0" stroke-linejoin="round" stroke-linecap="butt" d="m428.2571 387.68832l10.495697 -18.227264l22.158203 -0.08087158l10.495697 18.150665l-10.495697 18.227264l-22.158203 0.08087158z" fill-rule="evenodd"/><path fill="#000000" d="m461.67383 369.348l10.495697 -18.227264l22.158234 -0.08087158l10.495697 18.150665l-10.495697 18.227264l-22.158234 0.08087158z" fill-rule="evenodd"/><path stroke="#000000" stroke-width="1.0" stroke-linejoin="round" stroke-linecap="butt" d="m461.67383 369.348l10.495697 -18.227264l22.158234 -0.08087158l10.495697 18.150665l-10.495697 18.227264l-22.158234 0.08087158z" fill-rule="evenodd"/><path fill="#000000" d="m329.28336 516.22375l10.495697 -18.227234l22.158203 -0.08087158l10.495697 18.150635l-10.495697 18.227295l-22.158203 0.08087158z" fill-rule="evenodd"/><path stroke="#000000" stroke-width="1.0" stroke-linejoin="round" stroke-linecap="butt" d="m329.28336 516.22375l10.495697 -18.227234l22.158203 -0.08087158l10.495697 18.150635l-10.495697 18.227295l-22.158203 0.08087158z" fill-rule="evenodd"/><path fill="#000000" d="m361.38025 497.79578l10.495697 -18.227295l22.158234 -0.08087158l10.495697 18.150665l-10.495697 18.227264l-22.158234 0.08087158z" fill-rule="evenodd"/><path stroke="#000000" stroke-width="1.0" stroke-linejoin="round" stroke-linecap="butt" d="m361.38025 497.79578l10.495697 -18.227295l22.158234 -0.08087158l10.495697 18.150665l-10.495697 18.227264l-22.158234 0.08087158z" fill-rule="evenodd"/><path fill="#000000" d="m394.90637 479.64514l10.495697 -18.227264l22.158234 -0.08087158l10.495697 18.150665l-10.495697 18.227264l-22.158234 0.08087158z" fill-rule="evenodd"/><path stroke="#000000" stroke-width="1.0" stroke-linejoin="round" stroke-linecap="butt" d="m394.90637 479.64514l10.495697 -18.227264l22.158234 -0.08087158l10.495697 18.150665l-10.495697 18.227264l-22.158234 0.08087158z" fill-rule="evenodd"/><path fill="#000000" d="m428.278 460.93643l10.495697 -18.227264l22.158234 -0.08087158l10.495697 18.150665l-10.495697 18.227264l-22.158234 0.08087158z" fill-rule="evenodd"/><path stroke="#000000" stroke-width="1.0" stroke-linejoin="round" stroke-linecap="butt" d="m428.278 460.93643l10.495697 -18.227264l22.158234 -0.08087158l10.495697 18.150665l-10.495697 18.227264l-22.158234 0.08087158z" fill-rule="evenodd"/><path fill="#000000" d="m460.37494 442.50842l10.495697 -18.227264l22.158203 -0.08087158l10.495697 18.150665l-10.495697 18.227264l-22.158203 0.08087158z" fill-rule="evenodd"/><path stroke="#000000" stroke-width="1.0" stroke-linejoin="round" stroke-linecap="butt" d="m460.37494 442.50842l10.495697 -18.227264l22.158203 -0.08087158l10.495697 18.150665l-10.495697 18.227264l-22.158203 0.08087158z" fill-rule="evenodd"/><path fill="#000000" d="m297.8129 415.04684l10.495697 -18.227264l22.158203 -0.08087158l10.495697 18.150665l-10.495697 18.227264l-22.158203 0.08087158z" fill-rule="evenodd"/><path stroke="#000000" stroke-width="1.0" stroke-linejoin="round" stroke-linecap="butt" d="m297.8129 415.04684l10.495697 -18.227264l22.158203 -0.08087158l10.495697 18.150665l-10.495697 18.227264l-22.158203 0.08087158z" fill-rule="evenodd"/><path fill="#000000" d="m396.52533 359.95923l10.495697 -18.227264l22.158203 -0.08087158l10.495697 18.150665l-10.495697 18.227264l-22.158203 0.08087158z" fill-rule="evenodd"/><path stroke="#000000" stroke-width="1.0" stroke-linejoin="round" stroke-linecap="butt" d="m396.52533 359.95923l10.495697 -18.227264l22.158203 -0.08087158l10.495697 18.150665l-10.495697 18.227264l-22.158203 0.08087158z" fill-rule="evenodd"/><path fill="#000000" d="m36.609352 205.41588l10.495697 -18.22728l22.15821 -0.08085632l10.495697 18.15065l-10.495697 18.22728l-22.15821 0.08087158z" fill-rule="evenodd"/><path stroke="#000000" stroke-width="1.0" stroke-linejoin="round" stroke-linecap="butt" d="m36.609352 205.41588l10.495697 -18.22728l22.15821 -0.08085632l10.495697 18.15065l-10.495697 18.22728l-22.15821 0.08087158z" fill-rule="evenodd"/><path fill="#000000" d="m69.138054 223.76132l10.495697 -18.227264l22.15821 -0.08087158l10.495697 18.150665l-10.495697 18.227264l-22.15821 0.08087158z" fill-rule="evenodd"/><path stroke="#000000" stroke-width="1.0" stroke-linejoin="round" stroke-linecap="butt" d="m69.138054 223.76132l10.495697 -18.227264l22.15821 -0.08087158l10.495697 18.150665l-10.495697 18.227264l-22.15821 0.08087158z" fill-rule="evenodd"/><path fill="#000000" d="m102.23222 241.99452l10.495697 -18.22728l22.158203 -0.08087158l10.495697 18.150665l-10.495697 18.227264l-22.158203 0.08087158z" fill-rule="evenodd"/><path stroke="#000000" stroke-width="1.0" stroke-linejoin="round" stroke-linecap="butt" d="m102.23222 241.99452l10.495697 -18.22728l22.158203 -0.08087158l10.495697 18.150665l-10.495697 18.227264l-22.158203 0.08087158z" fill-rule="evenodd"/><path fill="#000000" d="m134.61107 260.33997l10.495697 -18.227264l22.158203 -0.08087158l10.495697 18.150665l-10.495697 18.227264l-22.158203 0.08087158z" fill-rule="evenodd"/><path stroke="#000000" stroke-width="1.0" stroke-linejoin="round" stroke-linecap="butt" d="m134.61107 260.33997l10.495697 -18.227264l22.158203 -0.08087158l10.495697 18.150665l-10.495697 18.227264l-22.158203 0.08087158z" fill-rule="evenodd"/><path fill="#000000" d="m167.85541 278.57315l10.495697 -18.227264l22.158218 -0.08087158l10.495697 18.150665l-10.495697 18.227264l-22.158218 0.08087158z" fill-rule="evenodd"/><path stroke="#000000" stroke-width="1.0" stroke-linejoin="round" stroke-linecap="butt" d="m167.85541 278.57315l10.495697 -18.227264l22.158218 -0.08087158l10.495697 18.150665l-10.495697 18.227264l-22.158218 0.08087158z" fill-rule="evenodd"/><path fill="#000000" d="m366.0071 16.900425l-21.246277 -0.0042533875l-11.019226 18.748672l10.533234 18.23196l21.246277 0.0042533875l11.019226 -18.748676z" fill-rule="evenodd"/><path stroke="#000000" stroke-width="1.0" stroke-linejoin="round" stroke-linecap="butt" d="m366.0071 16.900425l-21.246277 -0.0042533875l-11.019226 18.748672l10.533234 18.23196l21.246277 0.0042533875l11.019226 -18.748676z" fill-rule="evenodd"/><path fill="#000000" d="m365.75238 54.029205l-21.246277 -0.004257202l-11.019257 18.748672l10.533234 18.231964l21.246277 0.0042495728l11.019257 -18.748672z" fill-rule="evenodd"/><path stroke="#000000" stroke-width="1.0" stroke-linejoin="round" stroke-linecap="butt" d="m365.75238 54.029205l-21.246277 -0.004257202l-11.019257 18.748672l10.533234 18.231964l21.246277 0.0042495728l11.019257 -18.748672z" fill-rule="evenodd"/><path fill="#000000" d="m365.1169 91.58783l-21.246277 -0.004257202l-11.019226 18.74868l10.533234 18.231956l21.246277 0.004257202l11.019226 -18.74868z" fill-rule="evenodd"/><path stroke="#000000" stroke-width="1.0" stroke-linejoin="round" stroke-linecap="butt" d="m365.1169 91.58783l-21.246277 -0.004257202l-11.019226 18.74868l10.533234 18.231956l21.246277 0.004257202l11.019226 -18.74868z" fill-rule="evenodd"/><path fill="#000000" d="m364.9371 128.58781l-21.246277 -0.004257202l-11.019257 18.748688l10.533234 18.231949l21.246307 0.004257202l11.019226 -18.748672z" fill-rule="evenodd"/><path stroke="#000000" stroke-width="1.0" stroke-linejoin="round" stroke-linecap="butt" d="m364.9371 128.58781l-21.246277 -0.004257202l-11.019257 18.748688l10.533234 18.231949l21.246307 0.004257202l11.019226 -18.748672z" fill-rule="evenodd"/><path fill="#000000" d="m364.22656 166.27551l-21.246277 -0.004257202l-11.019257 18.748672l10.533234 18.231964l21.246277 0.004257202l11.019257 -18.748688z" fill-rule="evenodd"/><path stroke="#000000" stroke-width="1.0" stroke-linejoin="round" stroke-linecap="butt" d="m364.22656 166.27551l-21.246277 -0.004257202l-11.019257 18.748672l10.533234 18.231964l21.246277 0.004257202l11.019257 -18.748688z" fill-rule="evenodd"/><path fill="#000000" d="m361.73264 534.7875l-21.246277 -0.004272461l-11.019257 18.748657l10.533234 18.231995l21.246277 0.004272461l11.019257 -18.748718z" fill-rule="evenodd"/><path stroke="#000000" stroke-width="1.0" stroke-linejoin="round" stroke-linecap="butt" d="m361.73264 534.7875l-21.246277 -0.004272461l-11.019257 18.748657l10.533234 18.231995l21.246277 0.004272461l11.019257 -18.748718z" fill-rule="evenodd"/><path fill="#000000" d="m361.47787 571.91626l-21.246277 -0.004272461l-11.019226 18.748657l10.533234 18.231995l21.246277 0.004272461l11.019226 -18.748718z" fill-rule="evenodd"/><path stroke="#000000" stroke-width="1.0" stroke-linejoin="round" stroke-linecap="butt" d="m361.47787 571.91626l-21.246277 -0.004272461l-11.019226 18.748657l10.533234 18.231995l21.246277 0.004272461l11.019226 -18.748718z" fill-rule="evenodd"/><path fill="#000000" d="m360.84244 609.47485l-21.246307 -0.004211426l-11.019226 18.748657l10.533234 18.231934l21.246277 0.004272461l11.019257 -18.748657z" fill-rule="evenodd"/><path stroke="#000000" stroke-width="1.0" stroke-linejoin="round" stroke-linecap="butt" d="m360.84244 609.47485l-21.246307 -0.004211426l-11.019226 18.748657l10.533234 18.231934l21.246277 0.004272461l11.019257 -18.748657z" fill-rule="evenodd"/><path fill="#000000" d="m360.6626 646.47485l-21.246277 -0.004272461l-11.019226 18.748718l10.533234 18.231934l21.246277 0.004272461l11.019226 -18.748657z" fill-rule="evenodd"/><path stroke="#000000" stroke-width="1.0" stroke-linejoin="round" stroke-linecap="butt" d="m360.6626 646.47485l-21.246277 -0.004272461l-11.019226 18.748718l10.533234 18.231934l21.246277 0.004272461l11.019226 -18.748657z" fill-rule="evenodd"/><path fill="#000000" d="m359.95206 684.16254l-21.246277 -0.004211426l-11.019226 18.748657l10.533234 18.231934l21.246277 0.004272461l11.019226 -18.748657z" fill-rule="evenodd"/><path stroke="#000000" stroke-width="1.0" stroke-linejoin="round" stroke-linecap="butt" d="m359.95206 684.16254l-21.246277 -0.004211426l-11.019226 18.748657l10.533234 18.231934l21.246277 0.004272461l11.019226 -18.748657z" fill-rule="evenodd"/><path fill="#000000" d="m492.9807 461.75052l10.495697 -18.227264l22.158234 -0.08087158l10.4956665 18.150665l-10.4956665 18.227264l-22.158234 0.08087158z" fill-rule="evenodd"/><path stroke="#000000" stroke-width="1.0" stroke-linejoin="round" stroke-linecap="butt" d="m492.9807 461.75052l10.495697 -18.227264l22.158234 -0.08087158l10.4956665 18.150665l-10.4956665 18.227264l-22.158234 0.08087158z" fill-rule="evenodd"/><path fill="#000000" d="m525.5094 480.09598l10.495728 -18.227264l22.158203 -0.08087158l10.4956665 18.150665l-10.4956665 18.227264l-22.158203 0.08087158z" fill-rule="evenodd"/><path stroke="#000000" stroke-width="1.0" stroke-linejoin="round" stroke-linecap="butt" d="m525.5094 480.09598l10.495728 -18.227264l22.158203 -0.08087158l10.4956665 18.150665l-10.4956665 18.227264l-22.158203 0.08087158z" fill-rule="evenodd"/><path fill="#000000" d="m558.6036 498.32916l10.495728 -18.227264l22.158203 -0.08087158l10.4956665 18.150665l-10.4956665 18.227295l-22.158203 0.08087158z" fill-rule="evenodd"/><path stroke="#000000" stroke-width="1.0" stroke-linejoin="round" stroke-linecap="butt" d="m558.6036 498.32916l10.495728 -18.227264l22.158203 -0.08087158l10.4956665 18.150665l-10.4956665 18.227295l-22.158203 0.08087158z" fill-rule="evenodd"/><path fill="#000000" d="m590.9824 516.6746l10.495728 -18.227264l22.158203 -0.08087158l10.4956665 18.150665l-10.4956665 18.227234l-22.158203 0.08087158z" fill-rule="evenodd"/><path stroke="#000000" stroke-width="1.0" stroke-linejoin="round" stroke-linecap="butt" d="m590.9824 516.6746l10.495728 -18.227264l22.158203 -0.08087158l10.4956665 18.150665l-10.4956665 18.227234l-22.158203 0.08087158z" fill-rule="evenodd"/><path fill="#000000" d="m624.22675 534.9078l10.495728 -18.227234l22.158203 -0.08087158l10.495728 18.150635l-10.495728 18.227295l-22.158203 0.08087158z" fill-rule="evenodd"/><path stroke="#000000" stroke-width="1.0" stroke-linejoin="round" stroke-linecap="butt" d="m624.22675 534.9078l10.495728 -18.227234l22.158203 -0.08087158l10.495728 18.150635l-10.495728 18.227295l-22.158203 0.08087158z" fill-rule="evenodd"/><path fill="#000000" d="m496.11377 276.57962l10.496613 18.229523l22.146698 0.08215332l10.496643 -18.151642l-10.496643 -18.229523l-22.146698 -0.08218384z" fill-rule="evenodd"/><path stroke="#000000" stroke-width="1.0" stroke-linejoin="round" stroke-linecap="butt" d="m496.11377 276.57962l10.496613 18.229523l22.146698 0.08215332l10.496643 -18.151642l-10.496643 -18.229523l-22.146698 -0.08218384z" fill-rule="evenodd"/><path fill="#000000" d="m528.64246 258.23416l10.496643 18.229553l22.146729 0.08215332l10.496643 -18.151672l-10.496643 -18.229523l-22.146729 -0.08216858z" fill-rule="evenodd"/><path stroke="#000000" stroke-width="1.0" stroke-linejoin="round" stroke-linecap="butt" d="m528.64246 258.23416l10.496643 18.229553l22.146729 0.08215332l10.496643 -18.151672l-10.496643 -18.229523l-22.146729 -0.08216858z" fill-rule="evenodd"/><path fill="#000000" d="m561.73663 240.00098l10.496643 18.229553l22.146729 0.08215332l10.496582 -18.151672l-10.496582 -18.229538l-22.146729 -0.08215332z" fill-rule="evenodd"/><path stroke="#000000" stroke-width="1.0" stroke-linejoin="round" stroke-linecap="butt" d="m561.73663 240.00098l10.496643 18.229553l22.146729 0.08215332l10.496582 -18.151672l-10.496582 -18.229538l-22.146729 -0.08215332z" fill-rule="evenodd"/><path fill="#000000" d="m594.1155 221.65553l10.496643 18.229538l22.146729 0.08215332l10.496582 -18.151657l-10.496582 -18.229538l-22.146729 -0.08215332z" fill-rule="evenodd"/><path stroke="#000000" stroke-width="1.0" stroke-linejoin="round" stroke-linecap="butt" d="m594.1155 221.65553l10.496643 18.229538l22.146729 0.08215332l10.496582 -18.151657l-10.496582 -18.229538l-22.146729 -0.08215332z" fill-rule="evenodd"/><path fill="#000000" d="m627.3598 203.42235l10.496643 18.229523l22.146729 0.08216858l10.496643 -18.151657l-10.496643 -18.229538l-22.146729 -0.08215332z" fill-rule="evenodd"/><path stroke="#000000" stroke-width="1.0" stroke-linejoin="round" stroke-linecap="butt" d="m627.3598 203.42235l10.496643 18.229523l22.146729 0.08216858l10.496643 -18.151657l-10.496643 -18.229538l-22.146729 -0.08215332z" fill-rule="evenodd"/><path fill="#000000" d="m35.652058 534.17303l10.496632 18.229492l22.146713 0.08215332l10.496635 -18.151611l-10.496635 -18.229553l-22.146713 -0.08215332z" fill-rule="evenodd"/><path stroke="#000000" stroke-width="1.0" stroke-linejoin="round" stroke-linecap="butt" d="m35.652058 534.17303l10.496632 18.229492l22.146713 0.08215332l10.496635 -18.151611l-10.496635 -18.229553l-22.146713 -0.08215332z" fill-rule="evenodd"/><path fill="#000000" d="m68.180756 515.8276l10.496635 18.229492l22.146713 0.08215332l10.496635 -18.151611l-10.496635 -18.229553l-22.146713 -0.08215332z" fill-rule="evenodd"/><path stroke="#000000" stroke-width="1.0" stroke-linejoin="round" stroke-linecap="butt" d="m68.180756 515.8276l10.496635 18.229492l22.146713 0.08215332l10.496635 -18.151611l-10.496635 -18.229553l-22.146713 -0.08215332z" fill-rule="evenodd"/><path fill="#000000" d="m101.274925 497.59436l10.496635 18.229553l22.146713 0.08215332l10.496628 -18.151672l-10.496628 -18.229523l-22.146713 -0.08215332z" fill-rule="evenodd"/><path stroke="#000000" stroke-width="1.0" stroke-linejoin="round" stroke-linecap="butt" d="m101.274925 497.59436l10.496635 18.229553l22.146713 0.08215332l10.496628 -18.151672l-10.496628 -18.229523l-22.146713 -0.08215332z" fill-rule="evenodd"/><path fill="#000000" d="m133.65378 479.24893l10.496628 18.229523l22.146713 0.08215332l10.496628 -18.151642l-10.496628 -18.229553l-22.146713 -0.08215332z" fill-rule="evenodd"/><path stroke="#000000" stroke-width="1.0" stroke-linejoin="round" stroke-linecap="butt" d="m133.65378 479.24893l10.496628 18.229523l22.146713 0.08215332l10.496628 -18.151642l-10.496628 -18.229553l-22.146713 -0.08215332z" fill-rule="evenodd"/><path fill="#000000" d="m166.89812 461.01575l10.496628 18.229523l22.146713 0.08215332l10.496643 -18.151642l-10.496643 -18.229553l-22.146713 -0.08215332z" fill-rule="evenodd"/><path stroke="#000000" stroke-width="1.0" stroke-linejoin="round" stroke-linecap="butt" d="m166.89812 461.01575l10.496628 18.229523l22.146713 0.08215332l10.496643 -18.151642l-10.496643 -18.229553l-22.146713 -0.08215332z" fill-rule="evenodd"/></g></svg>