<svg version="1.1" viewBox="0.0 0.0 740.0 772.0" fill="none" stroke="none" stroke-linecap="square" stroke-miterlimit="10" xmlns:xlink="http://www.w3.org/1999/xlink" xmlns="http://www.w3.org/2000/svg"><clipPath id="p.0"><path d="m0 0l740.0 0l0 772.0l-740.0 0l0 -772.0z" clip-rule="nonzero"/></clipPath><g clip-path="url(#p.0)"><path fill="#000000" fill-opacity="0.0" d="m0 0l740.0 0l0 772.0l-740.0 0z" fill-rule="evenodd"/><path fill="#ff00ff" d="m615.4494 571.044l22.654358 -39.33728l46.785767 -0.16003418l22.654358 39.182373l-22.654358 39.33728l-46.785767 0.15997314z" fill-rule="evenodd"/><path fill="#ff00ff" d="m615.4494 648.87866l22.654358 -39.33734l46.785767 -0.15997314l22.654358 39.182312l-22.654358 39.33734l-46.785767 0.15997314z" fill-rule="evenodd"/><path fill="#ff00ff" d="m271.05463 610.8162l22.654388 -39.33734l46.785736 -0.15997314l22.654388 39.182312l-22.654388 39.33734l-46.785736 0.15997314z" fill-rule="evenodd"/><path fill="#ff00ff" d="m546.4494 610.4613l22.654358 -39.33728l46.785767 -0.16003418l22.654358 39.182373l-22.654358 39.33728l-46.785767 0.16003418z" fill-rule="evenodd"/><path fill="#ff00ff" d="m477.4494 649.87866l22.654358 -39.33734l46.785767 -0.15997314l22.654358 39.182312l-22.654358 39.33734l-46.785767 0.15997314z" fill-rule="evenodd"/><path fill="#ff00ff" d="m546.4494 688.29596l22.654358 -39.33728l46.785767 -0.16003418l22.654358 39.182373l-22.654358 39.33728l-46.785767 0.16003418z" fill-rule="evenodd"/><path fill="#ff00ff" d="m271.05463 689.0682l22.654388 -39.33728l46.785736 -0.16003418l22.654388 39.182373l-22.654388 39.33728l-46.785736 0.15997314z" fill-rule="evenodd"/><path fill="#ff00ff" d="m339.4772 649.87866l22.654388 -39.33734l46.785736 -0.15997314l22.654358 39.182312l-22.654358 39.33734l-46.785736 0.15997314z" fill-rule="evenodd"/><path fill="#ff00ff" d="m408.87198 688.29596l22.654358 -39.33728l46.785767 -0.16003418l22.654358 39.182373l-22.654358 39.33728l-46.785767 0.16003418z" fill-rule="evenodd"/><path fill="#ff00ff" d="m408.87198 610.4613l22.654358 -39.33728l46.785767 -0.16003418l22.654358 39.182373l-22.654358 39.33728l-46.785767 0.16003418z" fill-rule="evenodd"/><path fill="#ff00ff" d="m615.4494 492.80075l22.654358 -39.33731l46.785767 -0.16000366l22.654358 39.182343l-22.654358 39.33734l-46.785767 0.15997314z" fill-rule="evenodd"/><path fill="#ff00ff" d="m546.4494 454.38342l22.654358 -39.33731l46.785767 -0.16000366l22.654358 39.182373l-22.654358 39.33728l-46.785767 0.16000366z" fill-rule="evenodd"/><path fill="#ff00ff" d="m546.4494 532.2181l22.654358 -39.33731l46.785767 -0.16000366l22.654358 39.182373l-22.654358 39.33728l-46.785767 0.16003418z" fill-rule="evenodd"/><path fill="#ff00ff" d="m133.51181 610.9901l22.654373 -39.33734l46.78575 -0.15997314l22.654373 39.182373l-22.654373 39.33728l-46.78575 0.15997314z" fill-rule="evenodd"/><path fill="#ff00ff" d="m133.51181 689.24207l22.654373 -39.33728l46.78575 -0.16003418l22.654373 39.182373l-22.654373 39.33728l-46.78575 0.16003418z" fill-rule="evenodd"/><path fill="#ff00ff" d="m201.93439 650.05255l22.654373 -39.33728l46.78575 -0.16003418l22.654358 39.182373l-22.654358 39.33728l-46.78575 0.15997314z" fill-rule="evenodd"/><path fill="#ff00ff" d="m64.39108 650.0531l22.654366 -39.33728l46.78576 -0.16003418l22.654358 39.182373l-22.654358 39.33728l-46.78576 0.15997314z" fill-rule="evenodd"/><path fill="#ff00ff" d="m546.47626 376.01047l22.654358 -39.33731l46.785767 -0.16000366l22.654358 39.182343l-22.654358 39.33731l-46.785767 0.16000366z" fill-rule="evenodd"/><path fill="#ff00ff" d="m615.47626 180.51526l22.654358 -39.33731l46.785767 -0.16000366l22.654358 39.182358l-22.654358 39.337296l-46.785767 0.16000366z" fill-rule="evenodd"/><path fill="#ff00ff" d="m615.47626 258.3499l22.654358 -39.33731l46.785767 -0.16000366l22.654358 39.182343l-22.654358 39.33731l-46.785767 0.16000366z" fill-rule="evenodd"/><path fill="#ff00ff" d="m546.47626 219.93257l22.654358 -39.337296l46.785767 -0.16000366l22.654358 39.182343l-22.654358 39.33731l-46.785767 0.16000366z" fill-rule="evenodd"/><path fill="#ff00ff" d="m546.47626 297.7672l22.654358 -39.33728l46.785767 -0.16000366l22.654358 39.182343l-22.654358 39.33728l-46.785767 0.16003418z" fill-rule="evenodd"/><path fill="#ff00ff" d="m477.4494 414.99234l22.654358 -39.33728l46.785767 -0.16000366l22.654358 39.182343l-22.654358 39.33728l-46.785767 0.16003418z" fill-rule="evenodd"/><path fill="#ff00ff" d="m270.68555 64.49495l22.654358 -39.3373l46.785767 -0.16000557l22.654358 39.18235l-22.654358 39.337303l-46.785767 0.16000366z" fill-rule="evenodd"/><path fill="#ff00ff" d="m546.0803 64.140076l22.654358 -39.337303l46.785767 -0.16000748l22.654358 39.182346l-22.654358 39.337303l-46.785767 0.16000366z" fill-rule="evenodd"/><path fill="#ff00ff" d="m477.0803 103.557396l22.654388 -39.337303l46.785767 -0.16000366l22.654358 39.18235l-22.654358 39.337303l-46.785767 0.16000366z" fill-rule="evenodd"/><path fill="#ff00ff" d="m546.0803 141.97472l22.654358 -39.337296l46.785767 -0.16001129l22.654358 39.18235l-22.654358 39.337296l-46.785767 0.16000366z" fill-rule="evenodd"/><path fill="#ff00ff" d="m270.68555 142.74692l22.654358 -39.337303l46.785767 -0.16000366l22.654358 39.18235l-22.654358 39.337296l-46.785767 0.16000366z" fill-rule="evenodd"/><path fill="#ff00ff" d="m339.1081 103.557396l22.654388 -39.337303l46.785736 -0.16000366l22.654388 39.18235l-22.654388 39.337303l-46.785736 0.16000366z" fill-rule="evenodd"/><path fill="#ff00ff" d="m408.50287 141.97472l22.654358 -39.337296l46.785767 -0.16001129l22.654358 39.18235l-22.654358 39.337296l-46.785767 0.16000366z" fill-rule="evenodd"/><path fill="#ff00ff" d="m408.50287 64.140076l22.654358 -39.337303l46.785767 -0.16000748l22.654358 39.182346l-22.654358 39.337303l-46.785767 0.16000366z" fill-rule="evenodd"/><path fill="#ff00ff" d="m133.14272 64.66885l22.654358 -39.337303l46.785767 -0.16000748l22.654358 39.182343l-22.654358 39.337303l-46.785767 0.16001129z" fill-rule="evenodd"/><path fill="#ff00ff" d="m133.14272 142.92082l22.654358 -39.337303l46.785767 -0.16000366l22.654358 39.18235l-22.654358 39.337296l-46.785767 0.16000366z" fill-rule="evenodd"/><path fill="#ff00ff" d="m201.56529 103.7313l22.654358 -39.337303l46.78575 -0.16000366l22.654358 39.182343l-22.654358 39.33731l-46.78575 0.16000366z" fill-rule="evenodd"/><path fill="#ff00ff" d="m64.02198 103.73184l22.654366 -39.337296l46.78575 -0.16001129l22.654373 39.18235l-22.654373 39.337296l-46.78575 0.16001892z" fill-rule="evenodd"/><path fill="#ff00ff" d="m477.08136 337.15808l22.654388 -39.33731l46.785736 -0.16000366l22.654358 39.182343l-22.654358 39.33731l-46.785736 0.16000366z" fill-rule="evenodd"/><path fill="#ff00ff" d="m202.24367 337.72824l22.654373 -39.33731l46.785767 -0.16000366l22.654358 39.182373l-22.654358 39.33728l-46.785767 0.16000366z" fill-rule="evenodd"/><path fill="#ff00ff" d="m408.63843 376.79068l22.654388 -39.33728l46.785736 -0.16000366l22.654358 39.182343l-22.654358 39.33728l-46.785736 0.16000366z" fill-rule="evenodd"/><path fill="#ff00ff" d="m202.24367 415.98022l22.654373 -39.33731l46.785767 -0.16000366l22.654358 39.182343l-22.654358 39.33731l-46.785767 0.16000366z" fill-rule="evenodd"/><path fill="#ff00ff" d="m270.66623 376.79068l22.654388 -39.33728l46.785736 -0.16000366l22.654388 39.182343l-22.654388 39.33728l-46.785736 0.16000366z" fill-rule="evenodd"/><path fill="#ff00ff" d="m340.061 415.208l22.654358 -39.33731l46.785767 -0.16000366l22.654358 39.182373l-22.654358 39.33728l-46.785767 0.16000366z" fill-rule="evenodd"/><path fill="#ff00ff" d="m340.061 337.37338l22.654358 -39.33731l46.785767 -0.16000366l22.654358 39.182343l-22.654358 39.33731l-46.785767 0.16000366z" fill-rule="evenodd"/><path fill="#ff00ff" d="m66.00456 572.6569l22.654366 -39.33734l46.78576 -0.15997314l22.654358 39.182312l-22.654358 39.33734l-46.78576 0.15997314z" fill-rule="evenodd"/><path fill="#ff00ff" d="m64.39293 181.18175l22.654366 -39.337296l46.78576 -0.16000366l22.654358 39.182343l-22.654358 39.337296l-46.78576 0.16001892z" fill-rule="evenodd"/><path fill="#ff00ff" d="m615.0541 103.27131l22.654358 -39.337303l46.785767 -0.16000748l22.654358 39.182346l-22.654358 39.33731l-46.785767 0.16000366z" fill-rule="evenodd"/><path fill="#ff00ff" d="m132.69511 376.91986l22.654373 -39.33731l46.78575 -0.16000366l22.654358 39.182343l-22.654358 39.33731l-46.78575 0.16000366z" fill-rule="evenodd"/><path fill="#ff00ff" d="m64.4274 493.9553l22.654366 -39.33731l46.78576 -0.16000366l22.654358 39.182343l-22.654358 39.33728l-46.78576 0.16003418z" fill-rule="evenodd"/><path fill="#ff00ff" d="m132.69511 455.1928l22.654373 -39.33731l46.78575 -0.16000366l22.654358 39.182343l-22.654358 39.33731l-46.78575 0.16000366z" fill-rule="evenodd"/><path fill="#ff00ff" d="m132.69511 298.58127l22.654373 -39.33731l46.78575 -0.16000366l22.654358 39.182343l-22.654358 39.33731l-46.78575 0.16000366z" fill-rule="evenodd"/><path fill="#ff00ff" d="m64.02058 259.92117l22.654366 -39.33731l46.78575 -0.16001892l22.654373 39.182358l-22.654373 39.33731l-46.78575 0.16000366z" fill-rule="evenodd"/><path fill="#ff00ff" d="m132.69511 533.0156l22.654373 -39.33728l46.78575 -0.16000366l22.654358 39.182343l-22.654358 39.33728l-46.78575 0.16003418z" fill-rule="evenodd"/><path fill="#ff00ff" d="m132.69511 220.72955l22.654373 -39.337296l46.78575 -0.16000366l22.654358 39.182343l-22.654358 39.337296l-46.78575 0.16000366z" fill-rule="evenodd"/></g></svg>