<svg version="1.1" viewBox="0.0 0.0 740.0 772.0" fill="none" stroke="none" stroke-linecap="square" stroke-miterlimit="10" xmlns:xlink="http://www.w3.org/1999/xlink" xmlns="http://www.w3.org/2000/svg"><clipPath id="p.0"><path d="m0 0l740.0 0l0 772.0l-740.0 0l0 -772.0z" clip-rule="nonzero"/></clipPath><g clip-path="url(#p.0)"><path fill="#000000" fill-opacity="0.0" d="m0 0l740.0 0l0 772.0l-740.0 0z" fill-rule="evenodd"/><path fill="#134f5c" d="m392.95334 98.83927l22.654358 -39.3373l46.785767 -0.16000748l22.654358 39.18235l-22.654358 39.337303l-46.785767 0.16000366z" fill-rule="evenodd"/><path fill="#134f5c" d="m186.79848 60.004627l22.654373 -39.337303l46.785767 -0.16000557l22.654358 39.182346l-22.654358 39.337303l-46.785767 0.16000366z" fill-rule="evenodd"/><path fill="#134f5c" d="m254.95334 99.83927l22.654358 -39.3373l46.785767 -0.16000748l22.654358 39.18235l-22.654358 39.337303l-46.785767 0.16000366z" fill-rule="evenodd"/><path fill="#134f5c" d="m323.95334 138.25659l22.654358 -39.337296l46.785767 -0.16000366l22.654358 39.182343l-22.654358 39.337296l-46.785767 0.16001892z" fill-rule="evenodd"/><path fill="#134f5c" d="m461.53076 138.25659l22.654358 -39.337296l46.785767 -0.16000366l22.654358 39.182343l-22.654358 39.337296l-46.785767 0.16001892z" fill-rule="evenodd"/><path fill="#134f5c" d="m529.9533 99.83927l22.654419 -39.3373l46.785706 -0.16000748l22.654419 39.18235l-22.654419 39.337303l-46.785706 0.16000366z" fill-rule="evenodd"/><path fill="#134f5c" d="m186.37592 138.25659l22.654358 -39.337296l46.78575 -0.16000366l22.654373 39.182343l-22.654373 39.337296l-46.78575 0.16001892z" fill-rule="evenodd"/><path fill="#134f5c" d="m599.1082 138.25659l22.654358 -39.337296l46.785767 -0.16000366l22.654358 39.182343l-22.654358 39.337296l-46.785767 0.16001892z" fill-rule="evenodd"/><path fill="#134f5c" d="m599.1082 60.004627l22.654358 -39.337303l46.785767 -0.16000557l22.654358 39.182346l-22.654358 39.337303l-46.785767 0.16000366z" fill-rule="evenodd"/><path fill="#134f5c" d="m117.95334 98.83927l22.654373 -39.3373l46.78575 -0.16000748l22.654358 39.18235l-22.654358 39.337303l-46.78575 0.16000366z" fill-rule="evenodd"/><path fill="#134f5c" d="m48.79848 60.004627l22.65437 -39.337303l46.78575 -0.16000557l22.654373 39.182346l-22.654373 39.337303l-46.78575 0.16000366z" fill-rule="evenodd"/><path fill="#134f5c" d="m48.79848 138.25659l22.65437 -39.337296l46.78575 -0.16000366l22.654373 39.182343l-22.654373 39.337296l-46.78575 0.16001892z" fill-rule="evenodd"/><path fill="#134f5c" d="m323.95334 60.049248l22.654358 -39.337303l46.785767 -0.16000557l22.654358 39.182346l-22.654358 39.3373l-46.785767 0.16001129z" fill-rule="evenodd"/><path fill="#134f5c" d="m461.53076 60.004627l22.654358 -39.337303l46.785767 -0.16000557l22.654358 39.182346l-22.654358 39.337303l-46.785767 0.16000366z" fill-rule="evenodd"/><path fill="#134f5c" d="m461.52945 366.7053l22.654358 -39.33731l46.785797 -0.16000366l22.654358 39.182343l-22.654358 39.33731l-46.785797 0.16000366z" fill-rule="evenodd"/><path fill="#134f5c" d="m529.9533 177.6347l22.654419 -39.337296l46.785706 -0.16000366l22.654419 39.182343l-22.654419 39.337296l-46.785706 0.16001892z" fill-rule="evenodd"/><path fill="#134f5c" d="m599.1082 216.04956l22.654358 -39.337296l46.785767 -0.16000366l22.654358 39.182343l-22.654358 39.33731l-46.785767 0.16000366z" fill-rule="evenodd"/><path fill="#134f5c" d="m529.9533 255.42752l22.654419 -39.337296l46.785706 -0.16001892l22.654419 39.182358l-22.654419 39.337296l-46.785706 0.16000366z" fill-rule="evenodd"/><path fill="#134f5c" d="m461.53076 292.4851l22.654358 -39.33731l46.785767 -0.16000366l22.654358 39.182343l-22.654358 39.33731l-46.785767 0.16000366z" fill-rule="evenodd"/><path fill="#134f5c" d="m529.9533 332.25937l22.654419 -39.33728l46.785706 -0.16000366l22.654419 39.182343l-22.654419 39.33728l-46.785706 0.16003418z" fill-rule="evenodd"/><path fill="#134f5c" d="m391.42957 479.52634l22.654358 -39.33731l46.785767 -0.16000366l22.654358 39.182343l-22.654358 39.33728l-46.785767 0.16003418z" fill-rule="evenodd"/><path fill="#134f5c" d="m391.43088 405.30615l22.654358 -39.33731l46.785767 -0.16000366l22.654358 39.182343l-22.654358 39.33731l-46.785767 0.16000366z" fill-rule="evenodd"/><path fill="#134f5c" d="m459.85345 445.0804l22.654358 -39.33728l46.785767 -0.16000366l22.654358 39.182343l-22.654358 39.33728l-46.785767 0.16003418z" fill-rule="evenodd"/><path fill="#134f5c" d="m322.70694 591.89276l22.654358 -39.33734l46.785767 -0.15997314l22.654358 39.182312l-22.654358 39.33734l-46.785767 0.15997314z" fill-rule="evenodd"/><path fill="#134f5c" d="m322.70825 517.67255l22.654358 -39.33728l46.785767 -0.16000366l22.654358 39.182343l-22.654358 39.33728l-46.785767 0.16003418z" fill-rule="evenodd"/><path fill="#134f5c" d="m391.13083 557.44684l22.654358 -39.33728l46.785767 -0.16003418l22.654358 39.182373l-22.654358 39.33728l-46.785767 0.16003418z" fill-rule="evenodd"/><path fill="#134f5c" d="m252.60704 704.7138l22.654373 -39.33734l46.785736 -0.15997314l22.654388 39.182312l-22.654388 39.33734l-46.785736 0.15997314z" fill-rule="evenodd"/><path fill="#134f5c" d="m252.60835 630.4936l22.654373 -39.33728l46.785736 -0.16003418l22.654388 39.182373l-22.654388 39.33728l-46.785736 0.16003418z" fill-rule="evenodd"/><path fill="#134f5c" d="m321.0309 670.2679l22.654388 -39.33728l46.785736 -0.16003418l22.654388 39.182373l-22.654388 39.33728l-46.785736 0.16003418z" fill-rule="evenodd"/></g></svg>