<svg version="1.1" viewBox="0.0 0.0 693.3333333333334 736.6666666666666" fill="none" stroke="none" stroke-linecap="square" stroke-miterlimit="10" xmlns:xlink="http://www.w3.org/1999/xlink" xmlns="http://www.w3.org/2000/svg"><clipPath id="p.0"><path d="m0 0l693.3333 0l0 736.6667l-693.3333 0l0 -736.6667z" clip-rule="nonzero"/></clipPath><g clip-path="url(#p.0)"><path fill="#000000" fill-opacity="0.0" d="m0 0l693.3333 0l0 736.6667l-693.3333 0z" fill-rule="evenodd"/><path fill="#0000ff" d="m567.7259 517.57275l-17.315613 9.992676l-18.061646 -10.265503l0.0134887695 -19.826508l17.315613 -9.992676l18.061646 10.265533z" fill-rule="evenodd"/><path stroke="#0000ff" stroke-width="1.0" stroke-linejoin="round" stroke-linecap="butt" d="m567.7259 517.57275l-17.315613 9.992676l-18.061646 -10.265503l0.0134887695 -19.826508l17.315613 -9.992676l18.061646 10.265533z" fill-rule="evenodd"/><path fill="#ffffff" d="m532.38916 516.2345l-17.315613 9.992676l-18.061676 -10.265503l0.0134887695 -19.826538l17.315643 -9.992645l18.061646 10.265503z" fill-rule="evenodd"/><path stroke="#ffffff" stroke-width="1.0" stroke-linejoin="round" stroke-linecap="butt" d="m532.38916 516.2345l-17.315613 9.992676l-18.061676 -10.265503l0.0134887695 -19.826538l17.315643 -9.992645l18.061646 10.265503z" fill-rule="evenodd"/><path fill="#ffffff" d="m496.3064 515.57434l-17.315613 9.992676l-18.061646 -10.265503l0.0134887695 -19.826508l17.315613 -9.992676l18.061646 10.265533z" fill-rule="evenodd"/><path stroke="#ffffff" stroke-width="1.0" stroke-linejoin="round" stroke-linecap="butt" d="m496.3064 515.57434l-17.315613 9.992676l-18.061646 -10.265503l0.0134887695 -19.826508l17.315613 -9.992676l18.061646 10.265533z" fill-rule="evenodd"/><path fill="#ffffff" d="m460.32422 515.96643l-17.315643 9.992676l-18.061646 -10.265503l0.0134887695 -19.826508l17.315643 -9.992676l18.061646 10.265533z" fill-rule="evenodd"/><path stroke="#ffffff" stroke-width="1.0" stroke-linejoin="round" stroke-linecap="butt" d="m460.32422 515.96643l-17.315643 9.992676l-18.061646 -10.265503l0.0134887695 -19.826508l17.315643 -9.992676l18.061646 10.265533z" fill-rule="evenodd"/><path fill="#ffffff" d="m424.9875 514.6282l-17.315643 9.992676l-18.061646 -10.265503l0.0134887695 -19.826538l17.315643 -9.992676l18.061646 10.265533z" fill-rule="evenodd"/><path stroke="#ffffff" stroke-width="1.0" stroke-linejoin="round" stroke-linecap="butt" d="m424.9875 514.6282l-17.315643 9.992676l-18.061646 -10.265503l0.0134887695 -19.826538l17.315643 -9.992676l18.061646 10.265533z" fill-rule="evenodd"/><path fill="#ffffff" d="m388.7662 514.29095l-17.315613 9.992676l-18.061646 -10.265503l0.0134887695 -19.826508l17.315643 -9.992676l18.061646 10.265533z" fill-rule="evenodd"/><path stroke="#ffffff" stroke-width="1.0" stroke-linejoin="round" stroke-linecap="butt" d="m388.7662 514.29095l-17.315613 9.992676l-18.061646 -10.265503l0.0134887695 -19.826508l17.315643 -9.992676l18.061646 10.265533z" fill-rule="evenodd"/><path fill="#ffffff" d="m352.9767 514.7936l-17.315643 9.992615l-18.061646 -10.265503l0.0134887695 -19.826508l17.315643 -9.992645l18.061646 10.265503z" fill-rule="evenodd"/><path stroke="#ffffff" stroke-width="1.0" stroke-linejoin="round" stroke-linecap="butt" d="m352.9767 514.7936l-17.315643 9.992615l-18.061646 -10.265503l0.0134887695 -19.826508l17.315643 -9.992645l18.061646 10.265503z" fill-rule="evenodd"/><path fill="#0000ff" d="m550.0478 546.61835l-17.315674 9.992676l-18.061646 -10.265564l0.013549805 -19.826477l17.315613 -9.992676l18.061646 10.265503z" fill-rule="evenodd"/><path stroke="#0000ff" stroke-width="1.0" stroke-linejoin="round" stroke-linecap="butt" d="m550.0478 546.61835l-17.315674 9.992676l-18.061646 -10.265564l0.013549805 -19.826477l17.315613 -9.992676l18.061646 10.265503z" fill-rule="evenodd"/><path fill="#ffffff" d="m513.965 545.9582l-17.315643 9.992676l-18.061646 -10.265503l0.0134887695 -19.826538l17.315643 -9.992676l18.061646 10.265564z" fill-rule="evenodd"/><path stroke="#ffffff" stroke-width="1.0" stroke-linejoin="round" stroke-linecap="butt" d="m513.965 545.9582l-17.315643 9.992676l-18.061646 -10.265503l0.0134887695 -19.826538l17.315643 -9.992676l18.061646 10.265564z" fill-rule="evenodd"/><path fill="#ffffff" d="m478.37463 545.6762l-17.315613 9.992676l-18.061646 -10.265503l0.0134887695 -19.826538l17.315643 -9.992676l18.061646 10.265564z" fill-rule="evenodd"/><path stroke="#ffffff" stroke-width="1.0" stroke-linejoin="round" stroke-linecap="butt" d="m478.37463 545.6762l-17.315613 9.992676l-18.061646 -10.265503l0.0134887695 -19.826538l17.315643 -9.992676l18.061646 10.265564z" fill-rule="evenodd"/><path fill="#ffffff" d="m442.6461 545.012l-17.315613 9.992676l-18.061646 -10.265564l0.0134887695 -19.826477l17.315613 -9.992676l18.061646 10.265503z" fill-rule="evenodd"/><path stroke="#ffffff" stroke-width="1.0" stroke-linejoin="round" stroke-linecap="butt" d="m442.6461 545.012l-17.315613 9.992676l-18.061646 -10.265564l0.0134887695 -19.826477l17.315613 -9.992676l18.061646 10.265503z" fill-rule="evenodd"/><path fill="#ffffff" d="m406.42484 544.6748l-17.315613 9.992676l-18.061676 -10.265503l0.013519287 -19.826538l17.315613 -9.992676l18.061646 10.265564z" fill-rule="evenodd"/><path stroke="#ffffff" stroke-width="1.0" stroke-linejoin="round" stroke-linecap="butt" d="m406.42484 544.6748l-17.315613 9.992676l-18.061676 -10.265503l0.013519287 -19.826538l17.315613 -9.992676l18.061646 10.265564z" fill-rule="evenodd"/><path fill="#ffffff" d="m371.02713 544.5033l-17.315613 9.992676l-18.061646 -10.265503l0.0134887695 -19.826538l17.315643 -9.992615l18.061646 10.265503z" fill-rule="evenodd"/><path stroke="#ffffff" stroke-width="1.0" stroke-linejoin="round" stroke-linecap="butt" d="m371.02713 544.5033l-17.315613 9.992676l-18.061646 -10.265503l0.0134887695 -19.826538l17.315643 -9.992615l18.061646 10.265503z" fill-rule="evenodd"/><path fill="#ffffff" d="m335.29858 543.8391l-17.315613 9.992676l-18.061646 -10.265503l0.0134887695 -19.826538l17.315613 -9.992676l18.061646 10.265564z" fill-rule="evenodd"/><path stroke="#ffffff" stroke-width="1.0" stroke-linejoin="round" stroke-linecap="butt" d="m335.29858 543.8391l-17.315613 9.992676l-18.061646 -10.265503l0.0134887695 -19.826538l17.315613 -9.992676l18.061646 10.265564z" fill-rule="evenodd"/><path fill="#0000ff" d="m603.4155 456.69373l-17.315613 9.992645l-18.061646 -10.265503l0.0134887695 -19.826508l17.315613 -9.992676l18.061646 10.265533z" fill-rule="evenodd"/><path stroke="#0000ff" stroke-width="1.0" stroke-linejoin="round" stroke-linecap="butt" d="m603.4155 456.69373l-17.315613 9.992645l-18.061646 -10.265503l0.0134887695 -19.826508l17.315613 -9.992676l18.061646 10.265533z" fill-rule="evenodd"/><path fill="#ffffff" d="m567.1943 456.35654l-17.315613 9.992645l-18.061646 -10.265503l0.0134887695 -19.826508l17.315613 -9.992676l18.061646 10.265533z" fill-rule="evenodd"/><path stroke="#ffffff" stroke-width="1.0" stroke-linejoin="round" stroke-linecap="butt" d="m567.1943 456.35654l-17.315613 9.992645l-18.061646 -10.265503l0.0134887695 -19.826508l17.315613 -9.992676l18.061646 10.265533z" fill-rule="evenodd"/><path fill="#ffffff" d="m531.4629 456.75916l-17.315674 9.992645l-18.061615 -10.265503l0.0134887695 -19.826508l17.315643 -9.992676l18.061646 10.265503z" fill-rule="evenodd"/><path stroke="#ffffff" stroke-width="1.0" stroke-linejoin="round" stroke-linecap="butt" d="m531.4629 456.75916l-17.315674 9.992645l-18.061615 -10.265503l0.0134887695 -19.826508l17.315643 -9.992676l18.061646 10.265503z" fill-rule="evenodd"/><path fill="#ffffff" d="m496.06802 455.5208l-17.315613 9.992676l-18.061646 -10.265533l0.0134887695 -19.826508l17.315613 -9.992645l18.061676 10.265503z" fill-rule="evenodd"/><path stroke="#ffffff" stroke-width="1.0" stroke-linejoin="round" stroke-linecap="butt" d="m496.06802 455.5208l-17.315613 9.992676l-18.061646 -10.265533l0.0134887695 -19.826508l17.315613 -9.992645l18.061676 10.265503z" fill-rule="evenodd"/><path fill="#ffffff" d="m459.9853 454.8607l-17.315643 9.992676l-18.061646 -10.265533l0.0134887695 -19.826508l17.315643 -9.992676l18.061646 10.265533z" fill-rule="evenodd"/><path stroke="#ffffff" stroke-width="1.0" stroke-linejoin="round" stroke-linecap="butt" d="m459.9853 454.8607l-17.315643 9.992676l-18.061646 -10.265533l0.0134887695 -19.826508l17.315643 -9.992676l18.061646 10.265533z" fill-rule="evenodd"/><path fill="#ffffff" d="m424.11432 455.0614l-17.315613 9.992645l-18.061646 -10.265503l0.0134887695 -19.826508l17.315643 -9.992676l18.061646 10.265533z" fill-rule="evenodd"/><path stroke="#ffffff" stroke-width="1.0" stroke-linejoin="round" stroke-linecap="butt" d="m424.11432 455.0614l-17.315613 9.992645l-18.061646 -10.265503l0.0134887695 -19.826508l17.315643 -9.992676l18.061646 10.265533z" fill-rule="evenodd"/><path fill="#ffffff" d="m388.66635 453.9145l-17.315643 9.992676l-18.061646 -10.265533l0.013519287 -19.826508l17.315613 -9.992676l18.061646 10.265533z" fill-rule="evenodd"/><path stroke="#ffffff" stroke-width="1.0" stroke-linejoin="round" stroke-linecap="butt" d="m388.66635 453.9145l-17.315643 9.992676l-18.061646 -10.265533l0.013519287 -19.826508l17.315613 -9.992676l18.061646 10.265533z" fill-rule="evenodd"/><path fill="#0000ff" d="m584.8529 486.74036l-17.315613 9.992676l-18.061646 -10.265533l0.0134887695 -19.826508l17.315613 -9.992676l18.061646 10.265533z" fill-rule="evenodd"/><path stroke="#0000ff" stroke-width="1.0" stroke-linejoin="round" stroke-linecap="butt" d="m584.8529 486.74036l-17.315613 9.992676l-18.061646 -10.265533l0.0134887695 -19.826508l17.315613 -9.992676l18.061646 10.265533z" fill-rule="evenodd"/><path fill="#ffffff" d="m549.8086 486.7715l-17.315613 9.992676l-18.061646 -10.265533l0.0134887695 -19.826508l17.315613 -9.992645l18.061646 10.265503z" fill-rule="evenodd"/><path stroke="#ffffff" stroke-width="1.0" stroke-linejoin="round" stroke-linecap="butt" d="m549.8086 486.7715l-17.315613 9.992676l-18.061646 -10.265533l0.0134887695 -19.826508l17.315613 -9.992645l18.061646 10.265503z" fill-rule="evenodd"/><path fill="#ffffff" d="m513.7266 485.90466l-17.315613 9.992676l-18.061646 -10.265533l0.013519287 -19.826508l17.315613 -9.992676l18.061676 10.265533z" fill-rule="evenodd"/><path stroke="#ffffff" stroke-width="1.0" stroke-linejoin="round" stroke-linecap="butt" d="m513.7266 485.90466l-17.315613 9.992676l-18.061646 -10.265533l0.013519287 -19.826508l17.315613 -9.992676l18.061676 10.265533z" fill-rule="evenodd"/><path fill="#ffffff" d="m477.6439 485.24454l-17.315613 9.992645l-18.061646 -10.265503l0.0134887695 -19.826508l17.315643 -9.992676l18.061646 10.265533z" fill-rule="evenodd"/><path stroke="#ffffff" stroke-width="1.0" stroke-linejoin="round" stroke-linecap="butt" d="m477.6439 485.24454l-17.315613 9.992645l-18.061646 -10.265503l0.0134887695 -19.826508l17.315643 -9.992676l18.061646 10.265533z" fill-rule="evenodd"/><path fill="#ffffff" d="m442.40692 485.1652l-17.315643 9.992676l-18.061646 -10.265533l0.013519287 -19.826508l17.315613 -9.992676l18.061646 10.265533z" fill-rule="evenodd"/><path stroke="#ffffff" stroke-width="1.0" stroke-linejoin="round" stroke-linecap="butt" d="m442.40692 485.1652l-17.315643 9.992676l-18.061646 -10.265533l0.013519287 -19.826508l17.315613 -9.992676l18.061646 10.265533z" fill-rule="evenodd"/><path fill="#ffffff" d="m406.32498 484.29834l-17.315643 9.992645l-18.061646 -10.265503l0.0134887695 -19.826508l17.315643 -9.992676l18.061646 10.265533z" fill-rule="evenodd"/><path stroke="#ffffff" stroke-width="1.0" stroke-linejoin="round" stroke-linecap="butt" d="m406.32498 484.29834l-17.315643 9.992645l-18.061646 -10.265503l0.0134887695 -19.826508l17.315643 -9.992676l18.061646 10.265533z" fill-rule="evenodd"/><path fill="#ffffff" d="m370.10373 483.96112l-17.315643 9.992676l-18.061646 -10.265533l0.0134887695 -19.826508l17.315643 -9.992645l18.061646 10.265503z" fill-rule="evenodd"/><path stroke="#ffffff" stroke-width="1.0" stroke-linejoin="round" stroke-linecap="butt" d="m370.10373 483.96112l-17.315643 9.992676l-18.061646 -10.265533l0.0134887695 -19.826508l17.315643 -9.992645l18.061646 10.265503z" fill-rule="evenodd"/><path fill="#0000ff" d="m638.2761 396.681l-17.315613 9.992676l-18.061646 -10.265503l0.0134887695 -19.826508l17.315613 -9.992676l18.061646 10.265503z" fill-rule="evenodd"/><path stroke="#0000ff" stroke-width="1.0" stroke-linejoin="round" stroke-linecap="butt" d="m638.2761 396.681l-17.315613 9.992676l-18.061646 -10.265503l0.0134887695 -19.826508l17.315613 -9.992676l18.061646 10.265503z" fill-rule="evenodd"/><path fill="#0000ff" d="m602.48663 397.1836l-17.315613 9.992676l-18.061646 -10.265533l0.0134887695 -19.826508l17.315613 -9.992676l18.061646 10.265533z" fill-rule="evenodd"/><path stroke="#0000ff" stroke-width="1.0" stroke-linejoin="round" stroke-linecap="butt" d="m602.48663 397.1836l-17.315613 9.992676l-18.061646 -10.265533l0.0134887695 -19.826508l17.315613 -9.992676l18.061646 10.265533z" fill-rule="evenodd"/><path fill="#ffffff" d="m567.1499 395.8453l-17.315613 9.992676l-18.061646 -10.265533l0.0134887695 -19.826508l17.315613 -9.992645l18.061646 10.265503z" fill-rule="evenodd"/><path stroke="#ffffff" stroke-width="1.0" stroke-linejoin="round" stroke-linecap="butt" d="m567.1499 395.8453l-17.315613 9.992676l-18.061646 -10.265533l0.0134887695 -19.826508l17.315613 -9.992645l18.061646 10.265503z" fill-rule="evenodd"/><path fill="#ffffff" d="m530.92865 395.50812l-17.315613 9.992676l-18.061676 -10.265533l0.0134887695 -19.826508l17.315643 -9.992676l18.061646 10.265533z" fill-rule="evenodd"/><path stroke="#ffffff" stroke-width="1.0" stroke-linejoin="round" stroke-linecap="butt" d="m530.92865 395.50812l-17.315613 9.992676l-18.061676 -10.265533l0.0134887695 -19.826508l17.315643 -9.992676l18.061646 10.265533z" fill-rule="evenodd"/><path fill="#ffffff" d="m495.13913 396.01068l-17.315643 9.992676l-18.061646 -10.265503l0.0134887695 -19.826538l17.315643 -9.992645l18.061646 10.265503z" fill-rule="evenodd"/><path stroke="#ffffff" stroke-width="1.0" stroke-linejoin="round" stroke-linecap="butt" d="m495.13913 396.01068l-17.315643 9.992676l-18.061646 -10.265503l0.0134887695 -19.826538l17.315643 -9.992645l18.061646 10.265503z" fill-rule="evenodd"/><path fill="#ffffff" d="m459.8024 394.67242l-17.315643 9.992645l-18.061646 -10.265503l0.0134887695 -19.826508l17.315643 -9.992676l18.061646 10.265533z" fill-rule="evenodd"/><path stroke="#ffffff" stroke-width="1.0" stroke-linejoin="round" stroke-linecap="butt" d="m459.8024 394.67242l-17.315643 9.992645l-18.061646 -10.265503l0.0134887695 -19.826508l17.315643 -9.992676l18.061646 10.265533z" fill-rule="evenodd"/><path fill="#ffffff" d="m423.71964 394.01227l-17.315643 9.992676l-18.061646 -10.265533l0.013519287 -19.826508l17.315613 -9.992645l18.061646 10.265503z" fill-rule="evenodd"/><path stroke="#ffffff" stroke-width="1.0" stroke-linejoin="round" stroke-linecap="butt" d="m423.71964 394.01227l-17.315643 9.992676l-18.061646 -10.265533l0.013519287 -19.826508l17.315613 -9.992645l18.061646 10.265503z" fill-rule="evenodd"/><path fill="#0000ff" d="m620.89044 427.096l-17.315613 9.992676l-18.061646 -10.265533l0.0134887695 -19.826508l17.315613 -9.992645l18.061646 10.265503z" fill-rule="evenodd"/><path stroke="#0000ff" stroke-width="1.0" stroke-linejoin="round" stroke-linecap="butt" d="m620.89044 427.096l-17.315613 9.992676l-18.061646 -10.265533l0.0134887695 -19.826508l17.315613 -9.992645l18.061646 10.265503z" fill-rule="evenodd"/><path fill="#ffffff" d="m584.80853 426.22916l-17.315674 9.992645l-18.061646 -10.265503l0.0134887695 -19.826508l17.315674 -9.992676l18.061646 10.265533z" fill-rule="evenodd"/><path stroke="#ffffff" stroke-width="1.0" stroke-linejoin="round" stroke-linecap="butt" d="m584.80853 426.22916l-17.315674 9.992645l-18.061646 -10.265503l0.0134887695 -19.826508l17.315674 -9.992676l18.061646 10.265533z" fill-rule="evenodd"/><path fill="#ffffff" d="m548.5873 425.89197l-17.315674 9.992645l-18.061646 -10.265503l0.0134887695 -19.826508l17.315674 -9.992676l18.061646 10.265533z" fill-rule="evenodd"/><path stroke="#ffffff" stroke-width="1.0" stroke-linejoin="round" stroke-linecap="butt" d="m548.5873 425.89197l-17.315674 9.992645l-18.061646 -10.265503l0.0134887695 -19.826508l17.315674 -9.992676l18.061646 10.265533z" fill-rule="evenodd"/><path fill="#ffffff" d="m513.54297 425.92313l-17.315643 9.992645l-18.061646 -10.265503l0.0134887695 -19.826508l17.315643 -9.992676l18.061646 10.265533z" fill-rule="evenodd"/><path stroke="#ffffff" stroke-width="1.0" stroke-linejoin="round" stroke-linecap="butt" d="m513.54297 425.92313l-17.315643 9.992645l-18.061646 -10.265503l0.0134887695 -19.826508l17.315643 -9.992676l18.061646 10.265533z" fill-rule="evenodd"/><path fill="#ffffff" d="m477.461 425.05624l-17.315613 9.992676l-18.061646 -10.265533l0.0134887695 -19.826508l17.315643 -9.992645l18.061646 10.265503z" fill-rule="evenodd"/><path stroke="#ffffff" stroke-width="1.0" stroke-linejoin="round" stroke-linecap="butt" d="m477.461 425.05624l-17.315613 9.992676l-18.061646 -10.265533l0.0134887695 -19.826508l17.315643 -9.992645l18.061646 10.265503z" fill-rule="evenodd"/><path fill="#ffffff" d="m441.37827 424.39612l-17.315643 9.992676l-18.061646 -10.265533l0.0134887695 -19.826508l17.315643 -9.992676l18.061646 10.265533z" fill-rule="evenodd"/><path stroke="#ffffff" stroke-width="1.0" stroke-linejoin="round" stroke-linecap="butt" d="m441.37827 424.39612l-17.315643 9.992676l-18.061646 -10.265533l0.0134887695 -19.826508l17.315643 -9.992676l18.061646 10.265533z" fill-rule="evenodd"/><path fill="#ffffff" d="m406.14127 424.3168l-17.315613 9.992645l-18.061646 -10.265503l0.0134887695 -19.826508l17.315613 -9.992676l18.061676 10.265503z" fill-rule="evenodd"/><path stroke="#ffffff" stroke-width="1.0" stroke-linejoin="round" stroke-linecap="butt" d="m406.14127 424.3168l-17.315613 9.992645l-18.061646 -10.265503l0.0134887695 -19.826508l17.315613 -9.992676l18.061676 10.265503z" fill-rule="evenodd"/><path fill="#0000ff" d="m565.8887 336.4073l-17.315674 9.992676l-18.061646 -10.265533l0.013549805 -19.826508l17.315613 -9.992676l18.061646 10.265533z" fill-rule="evenodd"/><path stroke="#0000ff" stroke-width="1.0" stroke-linejoin="round" stroke-linecap="butt" d="m565.8887 336.4073l-17.315674 9.992676l-18.061646 -10.265533l0.013549805 -19.826508l17.315613 -9.992676l18.061646 10.265533z" fill-rule="evenodd"/><path fill="#ffffff" d="m530.55194 335.069l-17.315674 9.992676l-18.061615 -10.265533l0.0134887695 -19.826508l17.315643 -9.992645l18.061646 10.265503z" fill-rule="evenodd"/><path stroke="#ffffff" stroke-width="1.0" stroke-linejoin="round" stroke-linecap="butt" d="m530.55194 335.069l-17.315674 9.992676l-18.061615 -10.265533l0.0134887695 -19.826508l17.315643 -9.992645l18.061646 10.265503z" fill-rule="evenodd"/><path fill="#0000ff" d="m619.3368 366.28854l-17.315613 9.992676l-18.061646 -10.265533l0.0134887695 -19.826508l17.315613 -9.992645l18.061646 10.265503z" fill-rule="evenodd"/><path stroke="#0000ff" stroke-width="1.0" stroke-linejoin="round" stroke-linecap="butt" d="m619.3368 366.28854l-17.315613 9.992676l-18.061646 -10.265533l0.0134887695 -19.826508l17.315613 -9.992645l18.061646 10.265503z" fill-rule="evenodd"/><path fill="#ffffff" d="m494.33066 334.7318l-17.315613 9.992676l-18.061646 -10.265533l0.0134887695 -19.826508l17.315613 -9.992676l18.061646 10.265533z" fill-rule="evenodd"/><path stroke="#ffffff" stroke-width="1.0" stroke-linejoin="round" stroke-linecap="butt" d="m494.33066 334.7318l-17.315613 9.992676l-18.061646 -10.265533l0.0134887695 -19.826508l17.315613 -9.992676l18.061646 10.265533z" fill-rule="evenodd"/><path fill="#ffffff" d="m458.54114 335.2344l-17.315613 9.992645l-18.061646 -10.265503l0.0134887695 -19.826508l17.315643 -9.992676l18.061646 10.265533z" fill-rule="evenodd"/><path stroke="#ffffff" stroke-width="1.0" stroke-linejoin="round" stroke-linecap="butt" d="m458.54114 335.2344l-17.315613 9.992645l-18.061646 -10.265503l0.0134887695 -19.826508l17.315643 -9.992676l18.061646 10.265533z" fill-rule="evenodd"/><path fill="#0000ff" d="m584.2925 366.3197l-17.315613 9.992676l-18.061646 -10.265533l0.0134887695 -19.826508l17.315613 -9.992645l18.061646 10.265503z" fill-rule="evenodd"/><path stroke="#0000ff" stroke-width="1.0" stroke-linejoin="round" stroke-linecap="butt" d="m584.2925 366.3197l-17.315613 9.992676l-18.061646 -10.265533l0.0134887695 -19.826508l17.315613 -9.992645l18.061646 10.265503z" fill-rule="evenodd"/><path fill="#ffffff" d="m548.2105 365.45285l-17.315613 9.992676l-18.061646 -10.265533l0.0134887695 -19.826508l17.315674 -9.992676l18.061646 10.265533z" fill-rule="evenodd"/><path stroke="#ffffff" stroke-width="1.0" stroke-linejoin="round" stroke-linecap="butt" d="m548.2105 365.45285l-17.315613 9.992676l-18.061646 -10.265533l0.0134887695 -19.826508l17.315674 -9.992676l18.061646 10.265533z" fill-rule="evenodd"/><path fill="#ffffff" d="m511.9893 365.11566l-17.315643 9.992645l-18.061646 -10.265503l0.0134887695 -19.826508l17.315643 -9.992676l18.061676 10.265533z" fill-rule="evenodd"/><path stroke="#ffffff" stroke-width="1.0" stroke-linejoin="round" stroke-linecap="butt" d="m511.9893 365.11566l-17.315643 9.992645l-18.061646 -10.265503l0.0134887695 -19.826508l17.315643 -9.992676l18.061676 10.265533z" fill-rule="evenodd"/><path fill="#ffffff" d="m476.94498 365.14682l-17.315613 9.992676l-18.061646 -10.265533l0.0134887695 -19.826508l17.315613 -9.992676l18.061646 10.265533z" fill-rule="evenodd"/><path stroke="#ffffff" stroke-width="1.0" stroke-linejoin="round" stroke-linecap="butt" d="m476.94498 365.14682l-17.315613 9.992676l-18.061646 -10.265533l0.0134887695 -19.826508l17.315613 -9.992676l18.061646 10.265533z" fill-rule="evenodd"/><path fill="#ffffff" d="m440.86304 364.27994l-17.315643 9.992676l-18.061646 -10.265533l0.013519287 -19.826508l17.315613 -9.992645l18.061646 10.265503z" fill-rule="evenodd"/><path stroke="#ffffff" stroke-width="1.0" stroke-linejoin="round" stroke-linecap="butt" d="m440.86304 364.27994l-17.315643 9.992676l-18.061646 -10.265533l0.013519287 -19.826508l17.315613 -9.992645l18.061646 10.265503z" fill-rule="evenodd"/><path fill="#0000ff" d="m601.67816 335.90472l-17.315613 9.992645l-18.061646 -10.265503l0.0134887695 -19.826508l17.315613 -9.992676l18.061646 10.265533z" fill-rule="evenodd"/><path stroke="#0000ff" stroke-width="1.0" stroke-linejoin="round" stroke-linecap="butt" d="m601.67816 335.90472l-17.315613 9.992645l-18.061646 -10.265503l0.0134887695 -19.826508l17.315613 -9.992676l18.061646 10.265533z" fill-rule="evenodd"/><path fill="#0000ff" d="m565.3835 275.92874l-17.315613 9.992676l-18.061646 -10.265533l0.0134887695 -19.826492l17.315613 -9.992676l18.061646 10.265518z" fill-rule="evenodd"/><path stroke="#0000ff" stroke-width="1.0" stroke-linejoin="round" stroke-linecap="butt" d="m565.3835 275.92874l-17.315613 9.992676l-18.061646 -10.265533l0.0134887695 -19.826492l17.315613 -9.992676l18.061646 10.265518z" fill-rule="evenodd"/><path fill="#0000ff" d="m583.5579 306.23584l-17.315613 9.992676l-18.061646 -10.265533l0.0134887695 -19.826508l17.315613 -9.992676l18.061646 10.265533z" fill-rule="evenodd"/><path stroke="#0000ff" stroke-width="1.0" stroke-linejoin="round" stroke-linecap="butt" d="m583.5579 306.23584l-17.315613 9.992676l-18.061646 -10.265533l0.0134887695 -19.826508l17.315613 -9.992676l18.061646 10.265533z" fill-rule="evenodd"/><path fill="#0000ff" d="m548.1027 305.20218l-17.315613 9.992645l-18.061646 -10.265503l0.0134887695 -19.826508l17.315613 -9.992676l18.061646 10.265533z" fill-rule="evenodd"/><path stroke="#0000ff" stroke-width="1.0" stroke-linejoin="round" stroke-linecap="butt" d="m548.1027 305.20218l-17.315613 9.992645l-18.061646 -10.265503l0.0134887695 -19.826508l17.315613 -9.992676l18.061646 10.265533z" fill-rule="evenodd"/><path fill="#ffffff" d="m493.86926 275.9859l-17.315613 9.992645l-18.061646 -10.265503l0.0134887695 -19.826523l17.315643 -9.9926605l18.061646 10.265533z" fill-rule="evenodd"/><path stroke="#ffffff" stroke-width="1.0" stroke-linejoin="round" stroke-linecap="butt" d="m493.86926 275.9859l-17.315613 9.992645l-18.061646 -10.265503l0.0134887695 -19.826523l17.315643 -9.9926605l18.061646 10.265533z" fill-rule="evenodd"/><path fill="#ffffff" d="m512.0437 306.29297l-17.315613 9.992676l-18.061646 -10.265533l0.0134887695 -19.826508l17.315613 -9.992645l18.061646 10.265503z" fill-rule="evenodd"/><path stroke="#ffffff" stroke-width="1.0" stroke-linejoin="round" stroke-linecap="butt" d="m512.0437 306.29297l-17.315613 9.992676l-18.061646 -10.265533l0.0134887695 -19.826508l17.315613 -9.992645l18.061646 10.265503z" fill-rule="evenodd"/><path fill="#ffffff" d="m476.5885 305.2593l-17.315613 9.992676l-18.061646 -10.265533l0.0134887695 -19.826508l17.315613 -9.992676l18.061646 10.265533z" fill-rule="evenodd"/><path stroke="#ffffff" stroke-width="1.0" stroke-linejoin="round" stroke-linecap="butt" d="m476.5885 305.2593l-17.315613 9.992676l-18.061646 -10.265533l0.0134887695 -19.826508l17.315613 -9.992676l18.061646 10.265533z" fill-rule="evenodd"/><path fill="#0000ff" d="m527.72107 215.95303l-17.315613 9.9926605l-18.061646 -10.265518l0.0134887695 -19.826508l17.315643 -9.992676l18.061676 10.265533z" fill-rule="evenodd"/><path stroke="#0000ff" stroke-width="1.0" stroke-linejoin="round" stroke-linecap="butt" d="m527.72107 215.95303l-17.315613 9.9926605l-18.061646 -10.265518l0.0134887695 -19.826508l17.315643 -9.992676l18.061676 10.265533z" fill-rule="evenodd"/><path fill="#0000ff" d="m546.66595 246.05507l-17.315613 9.9926605l-18.061646 -10.265518l0.0134887695 -19.826508l17.315613 -9.992676l18.061707 10.265533z" fill-rule="evenodd"/><path stroke="#0000ff" stroke-width="1.0" stroke-linejoin="round" stroke-linecap="butt" d="m546.66595 246.05507l-17.315613 9.9926605l-18.061646 -10.265518l0.0134887695 -19.826508l17.315613 -9.992676l18.061707 10.265533z" fill-rule="evenodd"/><path fill="#0000ff" d="m510.92877 245.50655l-17.315643 9.992676l-18.061646 -10.265533l0.013519287 -19.826508l17.315613 -9.9926605l18.061646 10.265518z" fill-rule="evenodd"/><path stroke="#0000ff" stroke-width="1.0" stroke-linejoin="round" stroke-linecap="butt" d="m510.92877 245.50655l-17.315643 9.992676l-18.061646 -10.265533l0.013519287 -19.826508l17.315613 -9.9926605l18.061646 10.265518z" fill-rule="evenodd"/><path fill="#0000ff" d="m529.4641 276.3226l-17.315674 9.992676l-18.061615 -10.265533l0.0134887695 -19.826508l17.315613 -9.9926605l18.061676 10.265518z" fill-rule="evenodd"/><path stroke="#0000ff" stroke-width="1.0" stroke-linejoin="round" stroke-linecap="butt" d="m529.4641 276.3226l-17.315674 9.992676l-18.061615 -10.265533l0.0134887695 -19.826508l17.315613 -9.9926605l18.061676 10.265518z" fill-rule="evenodd"/><path fill="#0000ff" d="m531.9688 576.6353l-17.315613 9.992676l-18.061646 -10.265503l0.0134887695 -19.826538l17.315613 -9.992676l18.061646 10.265503z" fill-rule="evenodd"/><path stroke="#0000ff" stroke-width="1.0" stroke-linejoin="round" stroke-linecap="butt" d="m531.9688 576.6353l-17.315613 9.992676l-18.061646 -10.265503l0.0134887695 -19.826538l17.315613 -9.992676l18.061646 10.265503z" fill-rule="evenodd"/><path fill="#ffffff" d="m495.88608 575.97516l-17.315613 9.992676l-18.061676 -10.265503l0.013519287 -19.826538l17.315613 -9.992615l18.061646 10.265503z" fill-rule="evenodd"/><path stroke="#ffffff" stroke-width="1.0" stroke-linejoin="round" stroke-linecap="butt" d="m495.88608 575.97516l-17.315613 9.992676l-18.061676 -10.265503l0.013519287 -19.826538l17.315613 -9.992615l18.061646 10.265503z" fill-rule="evenodd"/><path fill="#ffffff" d="m460.29572 575.6932l-17.315643 9.992676l-18.061646 -10.265503l0.0134887695 -19.826538l17.315643 -9.992676l18.061646 10.265564z" fill-rule="evenodd"/><path stroke="#ffffff" stroke-width="1.0" stroke-linejoin="round" stroke-linecap="butt" d="m460.29572 575.6932l-17.315643 9.992676l-18.061646 -10.265503l0.0134887695 -19.826538l17.315643 -9.992676l18.061646 10.265564z" fill-rule="evenodd"/><path fill="#ffffff" d="m424.56714 575.029l-17.315613 9.992676l-18.061646 -10.265564l0.0134887695 -19.826477l17.315643 -9.992676l18.061646 10.265503z" fill-rule="evenodd"/><path stroke="#ffffff" stroke-width="1.0" stroke-linejoin="round" stroke-linecap="butt" d="m424.56714 575.029l-17.315613 9.992676l-18.061646 -10.265564l0.0134887695 -19.826477l17.315643 -9.992676l18.061646 10.265503z" fill-rule="evenodd"/><path fill="#ffffff" d="m388.3459 574.6918l-17.315613 9.992676l-18.061646 -10.265503l0.0134887695 -19.826538l17.315643 -9.992676l18.061646 10.265564z" fill-rule="evenodd"/><path stroke="#ffffff" stroke-width="1.0" stroke-linejoin="round" stroke-linecap="butt" d="m388.3459 574.6918l-17.315613 9.992676l-18.061646 -10.265503l0.0134887695 -19.826538l17.315643 -9.992676l18.061646 10.265564z" fill-rule="evenodd"/><path fill="#ffffff" d="m352.9482 574.5203l-17.315643 9.992615l-18.061646 -10.265503l0.0134887695 -19.826477l17.315643 -9.992676l18.061646 10.265503z" fill-rule="evenodd"/><path stroke="#ffffff" stroke-width="1.0" stroke-linejoin="round" stroke-linecap="butt" d="m352.9482 574.5203l-17.315643 9.992615l-18.061646 -10.265503l0.0134887695 -19.826477l17.315643 -9.992676l18.061646 10.265503z" fill-rule="evenodd"/><path fill="#ffffff" d="m317.21964 573.8561l-17.315613 9.992676l-18.061646 -10.265503l0.0134887695 -19.826538l17.315643 -9.992676l18.061646 10.265564z" fill-rule="evenodd"/><path stroke="#ffffff" stroke-width="1.0" stroke-linejoin="round" stroke-linecap="butt" d="m317.21964 573.8561l-17.315613 9.992676l-18.061646 -10.265503l0.0134887695 -19.826538l17.315643 -9.992676l18.061646 10.265564z" fill-rule="evenodd"/><path fill="#0000ff" d="m513.6241 606.4308l-17.315613 9.992615l-18.061646 -10.265503l0.0134887695 -19.826477l17.315643 -9.992676l18.061615 10.265503z" fill-rule="evenodd"/><path stroke="#0000ff" stroke-width="1.0" stroke-linejoin="round" stroke-linecap="butt" d="m513.6241 606.4308l-17.315613 9.992615l-18.061646 -10.265503l0.0134887695 -19.826477l17.315643 -9.992676l18.061615 10.265503z" fill-rule="evenodd"/><path fill="#ffffff" d="m477.54135 605.7706l-17.315643 9.992676l-18.061646 -10.265564l0.0134887695 -19.826477l17.315643 -9.992676l18.061646 10.265503z" fill-rule="evenodd"/><path stroke="#ffffff" stroke-width="1.0" stroke-linejoin="round" stroke-linecap="butt" d="m477.54135 605.7706l-17.315643 9.992676l-18.061646 -10.265564l0.0134887695 -19.826477l17.315643 -9.992676l18.061646 10.265503z" fill-rule="evenodd"/><path fill="#ffffff" d="m441.95096 605.48865l-17.315613 9.992676l-18.061646 -10.265564l0.0134887695 -19.826477l17.315613 -9.992676l18.061646 10.265503z" fill-rule="evenodd"/><path stroke="#ffffff" stroke-width="1.0" stroke-linejoin="round" stroke-linecap="butt" d="m441.95096 605.48865l-17.315613 9.992676l-18.061646 -10.265564l0.0134887695 -19.826477l17.315613 -9.992676l18.061646 10.265503z" fill-rule="evenodd"/><path fill="#ffffff" d="m406.2224 604.8244l-17.315613 9.992676l-18.061676 -10.265503l0.013519287 -19.826538l17.315613 -9.992615l18.061646 10.265503z" fill-rule="evenodd"/><path stroke="#ffffff" stroke-width="1.0" stroke-linejoin="round" stroke-linecap="butt" d="m406.2224 604.8244l-17.315613 9.992676l-18.061676 -10.265503l0.013519287 -19.826538l17.315613 -9.992615l18.061646 10.265503z" fill-rule="evenodd"/><path fill="#ffffff" d="m370.00116 604.48724l-17.315643 9.992676l-18.061646 -10.265564l0.013519287 -19.826477l17.315613 -9.992676l18.061646 10.265503z" fill-rule="evenodd"/><path stroke="#ffffff" stroke-width="1.0" stroke-linejoin="round" stroke-linecap="butt" d="m370.00116 604.48724l-17.315643 9.992676l-18.061646 -10.265564l0.013519287 -19.826477l17.315613 -9.992676l18.061646 10.265503z" fill-rule="evenodd"/><path fill="#ffffff" d="m334.60345 604.31573l-17.315613 9.992676l-18.061646 -10.265503l0.0134887695 -19.826538l17.315613 -9.992676l18.061646 10.265564z" fill-rule="evenodd"/><path stroke="#ffffff" stroke-width="1.0" stroke-linejoin="round" stroke-linecap="butt" d="m334.60345 604.31573l-17.315613 9.992676l-18.061646 -10.265503l0.0134887695 -19.826538l17.315613 -9.992676l18.061646 10.265564z" fill-rule="evenodd"/><path fill="#ffffff" d="m298.8749 603.65155l-17.315613 9.992676l-18.061676 -10.265564l0.013519287 -19.826477l17.315613 -9.992676l18.061646 10.265503z" fill-rule="evenodd"/><path stroke="#ffffff" stroke-width="1.0" stroke-linejoin="round" stroke-linecap="butt" d="m298.8749 603.65155l-17.315613 9.992676l-18.061676 -10.265564l0.013519287 -19.826477l17.315613 -9.992676l18.061646 10.265503z" fill-rule="evenodd"/><path fill="#ffffff" d="m495.44745 636.50806l-17.315643 9.992676l-18.061646 -10.265503l0.013519287 -19.826538l17.315613 -9.992676l18.061646 10.265564z" fill-rule="evenodd"/><path stroke="#0000ff" stroke-width="1.0" stroke-linejoin="round" stroke-linecap="butt" d="m495.44745 636.50806l-17.315643 9.992676l-18.061646 -10.265503l0.013519287 -19.826538l17.315613 -9.992676l18.061646 10.265564z" fill-rule="evenodd"/><path fill="#ffffff" d="m459.3647 635.8479l-17.315613 9.992676l-18.061646 -10.265503l0.0134887695 -19.826477l17.315613 -9.992676l18.061676 10.265503z" fill-rule="evenodd"/><path stroke="#0000ff" stroke-width="1.0" stroke-linejoin="round" stroke-linecap="butt" d="m459.3647 635.8479l-17.315613 9.992676l-18.061646 -10.265503l0.0134887695 -19.826477l17.315613 -9.992676l18.061676 10.265503z" fill-rule="evenodd"/><path fill="#0000ff" d="m423.77432 635.5659l-17.315643 9.992676l-18.061646 -10.265503l0.0134887695 -19.826538l17.315643 -9.992615l18.061646 10.265503z" fill-rule="evenodd"/><path stroke="#0000ff" stroke-width="1.0" stroke-linejoin="round" stroke-linecap="butt" d="m423.77432 635.5659l-17.315643 9.992676l-18.061646 -10.265503l0.0134887695 -19.826538l17.315643 -9.992615l18.061646 10.265503z" fill-rule="evenodd"/><path fill="#0000ff" d="m388.04578 634.90173l-17.315643 9.992676l-18.061646 -10.265503l0.0134887695 -19.826538l17.315643 -9.992676l18.061646 10.265564z" fill-rule="evenodd"/><path stroke="#0000ff" stroke-width="1.0" stroke-linejoin="round" stroke-linecap="butt" d="m388.04578 634.90173l-17.315643 9.992676l-18.061646 -10.265503l0.0134887695 -19.826538l17.315643 -9.992676l18.061646 10.265564z" fill-rule="evenodd"/><path fill="#0000ff" d="m351.82452 634.5645l-17.315643 9.992676l-18.061646 -10.265503l0.0134887695 -19.826538l17.315643 -9.992615l18.061646 10.265503z" fill-rule="evenodd"/><path stroke="#0000ff" stroke-width="1.0" stroke-linejoin="round" stroke-linecap="butt" d="m351.82452 634.5645l-17.315643 9.992676l-18.061646 -10.265503l0.0134887695 -19.826538l17.315643 -9.992615l18.061646 10.265503z" fill-rule="evenodd"/><path fill="#0000ff" d="m316.42682 634.39307l-17.315643 9.992615l-18.061646 -10.265503l0.0134887695 -19.826477l17.315643 -9.992676l18.061646 10.265503z" fill-rule="evenodd"/><path stroke="#0000ff" stroke-width="1.0" stroke-linejoin="round" stroke-linecap="butt" d="m316.42682 634.39307l-17.315643 9.992615l-18.061646 -10.265503l0.0134887695 -19.826477l17.315643 -9.992676l18.061646 10.265503z" fill-rule="evenodd"/><path fill="#0000ff" d="m280.69827 633.7288l-17.315643 9.992676l-18.061646 -10.265503l0.013504028 -19.826538l17.315628 -9.992676l18.061646 10.265564z" fill-rule="evenodd"/><path stroke="#0000ff" stroke-width="1.0" stroke-linejoin="round" stroke-linecap="butt" d="m280.69827 633.7288l-17.315643 9.992676l-18.061646 -10.265503l0.013504028 -19.826538l17.315628 -9.992676l18.061646 10.265564z" fill-rule="evenodd"/><path fill="#ffffff" d="m172.42279 311.86368l17.304398 -9.972961l18.128204 10.358063l-0.024734497 19.846191l-17.304398 9.972961l-18.12819 -10.358063z" fill-rule="evenodd"/><path stroke="#ffffff" stroke-width="1.0" stroke-linejoin="round" stroke-linecap="butt" d="m172.42279 311.86368l17.304398 -9.972961l18.128204 10.358063l-0.024734497 19.846191l-17.304398 9.972961l-18.12819 -10.358063z" fill-rule="evenodd"/><path fill="#ffffff" d="m208.21231 311.36108l17.304398 -9.972961l18.12819 10.358063l-0.024719238 19.846222l-17.304398 9.972961l-18.128204 -10.358063z" fill-rule="evenodd"/><path stroke="#ffffff" stroke-width="1.0" stroke-linejoin="round" stroke-linecap="butt" d="m208.21231 311.36108l17.304398 -9.972961l18.12819 10.358063l-0.024719238 19.846222l-17.304398 9.972961l-18.128204 -10.358063z" fill-rule="evenodd"/><path fill="#ffffff" d="m243.54904 312.69937l17.304413 -9.972961l18.128174 10.358063l-0.024719238 19.846191l-17.304413 9.972992l-18.128174 -10.358063z" fill-rule="evenodd"/><path stroke="#ffffff" stroke-width="1.0" stroke-linejoin="round" stroke-linecap="butt" d="m243.54904 312.69937l17.304413 -9.972961l18.128174 10.358063l-0.024719238 19.846191l-17.304413 9.972992l-18.128174 -10.358063z" fill-rule="evenodd"/><path fill="#ffffff" d="m279.6318 313.3595l17.304382 -9.972961l18.128204 10.358063l-0.024719238 19.846222l-17.304413 9.972961l-18.128204 -10.358063z" fill-rule="evenodd"/><path stroke="#ffffff" stroke-width="1.0" stroke-linejoin="round" stroke-linecap="butt" d="m279.6318 313.3595l17.304382 -9.972961l18.128204 10.358063l-0.024719238 19.846222l-17.304413 9.972961l-18.128204 -10.358063z" fill-rule="evenodd"/><path fill="#ffffff" d="m315.61398 312.9674l17.304413 -9.972961l18.128174 10.358063l-0.024719238 19.846222l-17.304382 9.972961l-18.128204 -10.358063z" fill-rule="evenodd"/><path stroke="#ffffff" stroke-width="1.0" stroke-linejoin="round" stroke-linecap="butt" d="m315.61398 312.9674l17.304413 -9.972961l18.128174 10.358063l-0.024719238 19.846222l-17.304382 9.972961l-18.128204 -10.358063z" fill-rule="evenodd"/><path fill="#ffffff" d="m350.9507 314.3057l17.304413 -9.972961l18.128174 10.358063l-0.024719238 19.846222l-17.304382 9.972961l-18.128204 -10.358063z" fill-rule="evenodd"/><path stroke="#ffffff" stroke-width="1.0" stroke-linejoin="round" stroke-linecap="butt" d="m350.9507 314.3057l17.304413 -9.972961l18.128174 10.358063l-0.024719238 19.846222l-17.304382 9.972961l-18.128204 -10.358063z" fill-rule="evenodd"/><path fill="#ffffff" d="m387.17197 314.64288l17.304413 -9.972961l18.128204 10.358063l-0.024749756 19.846222l-17.304382 9.972961l-18.128204 -10.358063z" fill-rule="evenodd"/><path stroke="#ffffff" stroke-width="1.0" stroke-linejoin="round" stroke-linecap="butt" d="m387.17197 314.64288l17.304413 -9.972961l18.128204 10.358063l-0.024749756 19.846222l-17.304382 9.972961l-18.128204 -10.358063z" fill-rule="evenodd"/><path fill="#ffffff" d="m190.16187 281.65134l17.304398 -9.972961l18.128204 10.358063l-0.024719238 19.846191l-17.304413 9.972961l-18.12819 -10.358063z" fill-rule="evenodd"/><path stroke="#ffffff" stroke-width="1.0" stroke-linejoin="round" stroke-linecap="butt" d="m190.16187 281.65134l17.304398 -9.972961l18.128204 10.358063l-0.024719238 19.846191l-17.304413 9.972961l-18.12819 -10.358063z" fill-rule="evenodd"/><path fill="#ffffff" d="m225.89041 282.31552l17.304413 -9.972961l18.128204 10.358063l-0.024749756 19.846222l-17.304398 9.972961l-18.12819 -10.358063z" fill-rule="evenodd"/><path stroke="#ffffff" stroke-width="1.0" stroke-linejoin="round" stroke-linecap="butt" d="m225.89041 282.31552l17.304413 -9.972961l18.128204 10.358063l-0.024749756 19.846222l-17.304398 9.972961l-18.12819 -10.358063z" fill-rule="evenodd"/><path fill="#ffffff" d="m261.97318 282.97568l17.304413 -9.972961l18.128174 10.358063l-0.024719238 19.846191l-17.304413 9.972961l-18.128174 -10.358063z" fill-rule="evenodd"/><path stroke="#ffffff" stroke-width="1.0" stroke-linejoin="round" stroke-linecap="butt" d="m261.97318 282.97568l17.304413 -9.972961l18.128174 10.358063l-0.024719238 19.846191l-17.304413 9.972961l-18.128174 -10.358063z" fill-rule="evenodd"/><path fill="#ffffff" d="m297.56354 283.25766l17.304413 -9.972961l18.128204 10.358063l-0.024719238 19.846191l-17.304413 9.972992l-18.128204 -10.358093z" fill-rule="evenodd"/><path stroke="#ffffff" stroke-width="1.0" stroke-linejoin="round" stroke-linecap="butt" d="m297.56354 283.25766l17.304413 -9.972961l18.128204 10.358063l-0.024719238 19.846191l-17.304413 9.972992l-18.128204 -10.358093z" fill-rule="evenodd"/><path fill="#ffffff" d="m333.29208 283.92188l17.304413 -9.972961l18.128204 10.358063l-0.024719238 19.846191l-17.304413 9.972961l-18.128204 -10.358063z" fill-rule="evenodd"/><path stroke="#ffffff" stroke-width="1.0" stroke-linejoin="round" stroke-linecap="butt" d="m333.29208 283.92188l17.304413 -9.972961l18.128204 10.358063l-0.024719238 19.846191l-17.304413 9.972961l-18.128204 -10.358063z" fill-rule="evenodd"/><path fill="#ffffff" d="m369.51337 284.25906l17.304382 -9.972961l18.128204 10.358063l-0.024719238 19.846191l-17.304413 9.972992l-18.128204 -10.358093z" fill-rule="evenodd"/><path stroke="#ffffff" stroke-width="1.0" stroke-linejoin="round" stroke-linecap="butt" d="m369.51337 284.25906l17.304382 -9.972961l18.128204 10.358063l-0.024719238 19.846191l-17.304413 9.972992l-18.128204 -10.358093z" fill-rule="evenodd"/><path fill="#ffffff" d="m404.91104 284.43054l17.304413 -9.972961l18.128204 10.358063l-0.024719238 19.846222l-17.304413 9.972961l-18.128204 -10.358063z" fill-rule="evenodd"/><path stroke="#ffffff" stroke-width="1.0" stroke-linejoin="round" stroke-linecap="butt" d="m404.91104 284.43054l17.304413 -9.972961l18.128204 10.358063l-0.024719238 19.846222l-17.304413 9.972961l-18.128204 -10.358063z" fill-rule="evenodd"/><path fill="#ffffff" d="m137.07468 371.09326l17.304398 -9.972961l18.128204 10.358063l-0.024734497 19.846191l-17.304398 9.972992l-18.12819 -10.358093z" fill-rule="evenodd"/><path stroke="#ffffff" stroke-width="1.0" stroke-linejoin="round" stroke-linecap="butt" d="m137.07468 371.09326l17.304398 -9.972961l18.128204 10.358063l-0.024734497 19.846191l-17.304398 9.972992l-18.12819 -10.358093z" fill-rule="evenodd"/><path fill="#ffffff" d="m172.52266 372.24014l17.304398 -9.972961l18.12819 10.358063l-0.024719238 19.846222l-17.304398 9.972961l-18.12819 -10.358063z" fill-rule="evenodd"/><path stroke="#ffffff" stroke-width="1.0" stroke-linejoin="round" stroke-linecap="butt" d="m172.52266 372.24014l17.304398 -9.972961l18.12819 10.358063l-0.024719238 19.846222l-17.304398 9.972961l-18.12819 -10.358063z" fill-rule="evenodd"/><path fill="#ffffff" d="m208.74391 372.57736l17.304398 -9.972961l18.128204 10.358063l-0.024734497 19.846191l-17.304398 9.972961l-18.12819 -10.358063z" fill-rule="evenodd"/><path stroke="#ffffff" stroke-width="1.0" stroke-linejoin="round" stroke-linecap="butt" d="m208.74391 372.57736l17.304398 -9.972961l18.128204 10.358063l-0.024734497 19.846191l-17.304398 9.972961l-18.12819 -10.358063z" fill-rule="evenodd"/><path fill="#ffffff" d="m244.47533 372.17474l17.304398 -9.972961l18.128204 10.358063l-0.024719238 19.846191l-17.304413 9.972961l-18.128204 -10.358063z" fill-rule="evenodd"/><path stroke="#ffffff" stroke-width="1.0" stroke-linejoin="round" stroke-linecap="butt" d="m244.47533 372.17474l17.304398 -9.972961l18.128204 10.358063l-0.024719238 19.846191l-17.304413 9.972961l-18.128204 -10.358063z" fill-rule="evenodd"/><path fill="#ffffff" d="m280.23257 373.3166l17.304413 -9.972961l18.128204 10.358063l-0.024719238 19.846222l-17.304413 9.972961l-18.128204 -10.358063z" fill-rule="evenodd"/><path stroke="#ffffff" stroke-width="1.0" stroke-linejoin="round" stroke-linecap="butt" d="m280.23257 373.3166l17.304413 -9.972961l18.128204 10.358063l-0.024719238 19.846222l-17.304413 9.972961l-18.128204 -10.358063z" fill-rule="evenodd"/><path fill="#ffffff" d="m316.31534 373.9767l17.304413 -9.972961l18.128174 10.358063l-0.024719238 19.846222l-17.304382 9.972961l-18.128204 -10.358063z" fill-rule="evenodd"/><path stroke="#ffffff" stroke-width="1.0" stroke-linejoin="round" stroke-linecap="butt" d="m316.31534 373.9767l17.304413 -9.972961l18.128174 10.358063l-0.024719238 19.846222l-17.304382 9.972961l-18.128204 -10.358063z" fill-rule="evenodd"/><path fill="#ffffff" d="m352.28342 374.13602l17.304382 -9.972961l18.128204 10.358063l-0.024719238 19.846191l-17.304413 9.972992l-18.128204 -10.358093z" fill-rule="evenodd"/><path stroke="#ffffff" stroke-width="1.0" stroke-linejoin="round" stroke-linecap="butt" d="m352.28342 374.13602l17.304382 -9.972961l18.128204 10.358063l-0.024719238 19.846191l-17.304413 9.972992l-18.128204 -10.358093z" fill-rule="evenodd"/><path fill="#ffffff" d="m154.86403 341.85632l17.304413 -9.972961l18.12819 10.358063l-0.024719238 19.846191l-17.304398 9.972961l-18.128204 -10.358063z" fill-rule="evenodd"/><path stroke="#ffffff" stroke-width="1.0" stroke-linejoin="round" stroke-linecap="butt" d="m154.86403 341.85632l17.304413 -9.972961l18.12819 10.358063l-0.024719238 19.846191l-17.304398 9.972961l-18.128204 -10.358063z" fill-rule="evenodd"/><path fill="#ffffff" d="m191.0853 342.1935l17.304398 -9.972961l18.12819 10.358063l-0.024719238 19.846222l-17.304398 9.972961l-18.128204 -10.358063z" fill-rule="evenodd"/><path stroke="#ffffff" stroke-width="1.0" stroke-linejoin="round" stroke-linecap="butt" d="m191.0853 342.1935l17.304398 -9.972961l18.12819 10.358063l-0.024719238 19.846222l-17.304398 9.972961l-18.128204 -10.358063z" fill-rule="evenodd"/><path fill="#ffffff" d="m226.1296 342.16235l17.304398 -9.972961l18.128204 10.358063l-0.024719238 19.846191l-17.304413 9.972992l-18.12819 -10.358093z" fill-rule="evenodd"/><path stroke="#ffffff" stroke-width="1.0" stroke-linejoin="round" stroke-linecap="butt" d="m226.1296 342.16235l17.304398 -9.972961l18.128204 10.358063l-0.024719238 19.846191l-17.304413 9.972992l-18.12819 -10.358093z" fill-rule="evenodd"/><path fill="#ffffff" d="m262.21155 343.0292l17.304382 -9.972961l18.128204 10.358063l-0.024719238 19.846222l-17.304413 9.972961l-18.128174 -10.358063z" fill-rule="evenodd"/><path stroke="#ffffff" stroke-width="1.0" stroke-linejoin="round" stroke-linecap="butt" d="m262.21155 343.0292l17.304382 -9.972961l18.128204 10.358063l-0.024719238 19.846222l-17.304413 9.972961l-18.128174 -10.358063z" fill-rule="evenodd"/><path fill="#ffffff" d="m298.29428 343.68936l17.304413 -9.972961l18.128204 10.358063l-0.024719238 19.846191l-17.304413 9.972961l-18.128204 -10.358063z" fill-rule="evenodd"/><path stroke="#ffffff" stroke-width="1.0" stroke-linejoin="round" stroke-linecap="butt" d="m298.29428 343.68936l17.304413 -9.972961l18.128204 10.358063l-0.024719238 19.846191l-17.304413 9.972961l-18.128204 -10.358063z" fill-rule="evenodd"/><path fill="#ffffff" d="m333.53128 343.76868l17.304382 -9.972961l18.128204 10.358063l-0.024719238 19.846222l-17.304413 9.972961l-18.128174 -10.358063z" fill-rule="evenodd"/><path stroke="#ffffff" stroke-width="1.0" stroke-linejoin="round" stroke-linecap="butt" d="m333.53128 343.76868l17.304382 -9.972961l18.128204 10.358063l-0.024719238 19.846222l-17.304413 9.972961l-18.128174 -10.358063z" fill-rule="evenodd"/><path fill="#ffffff" d="m369.61322 344.63556l17.304413 -9.972992l18.128174 10.358093l-0.024719238 19.846191l-17.304382 9.972961l-18.128204 -10.358063z" fill-rule="evenodd"/><path stroke="#ffffff" stroke-width="1.0" stroke-linejoin="round" stroke-linecap="butt" d="m369.61322 344.63556l17.304413 -9.972992l18.128174 10.358093l-0.024719238 19.846191l-17.304382 9.972961l-18.128204 -10.358063z" fill-rule="evenodd"/><path fill="#ffffff" d="m137.66205 432.25287l17.304413 -9.972961l18.12819 10.358063l-0.024719238 19.846191l-17.304413 9.972961l-18.12819 -10.358063z" fill-rule="evenodd"/><path stroke="#ffffff" stroke-width="1.0" stroke-linejoin="round" stroke-linecap="butt" d="m137.66205 432.25287l17.304413 -9.972961l18.12819 10.358063l-0.024719238 19.846191l-17.304413 9.972961l-18.12819 -10.358063z" fill-rule="evenodd"/><path fill="#ffffff" d="m173.45157 431.75027l17.304398 -9.972961l18.128204 10.358063l-0.024734497 19.846222l-17.304398 9.972961l-18.12819 -10.358063z" fill-rule="evenodd"/><path stroke="#ffffff" stroke-width="1.0" stroke-linejoin="round" stroke-linecap="butt" d="m173.45157 431.75027l17.304398 -9.972961l18.128204 10.358063l-0.024734497 19.846222l-17.304398 9.972961l-18.12819 -10.358063z" fill-rule="evenodd"/><path fill="#ffffff" d="m208.7883 433.08856l17.304398 -9.972961l18.128204 10.358063l-0.024734497 19.846191l-17.304398 9.972992l-18.12819 -10.358063z" fill-rule="evenodd"/><path stroke="#ffffff" stroke-width="1.0" stroke-linejoin="round" stroke-linecap="butt" d="m208.7883 433.08856l17.304398 -9.972961l18.128204 10.358063l-0.024734497 19.846191l-17.304398 9.972992l-18.12819 -10.358063z" fill-rule="evenodd"/><path fill="#ffffff" d="m245.00955 433.42575l17.304413 -9.972961l18.128174 10.358063l-0.024719238 19.846222l-17.304382 9.972961l-18.128204 -10.358063z" fill-rule="evenodd"/><path stroke="#ffffff" stroke-width="1.0" stroke-linejoin="round" stroke-linecap="butt" d="m245.00955 433.42575l17.304413 -9.972961l18.128174 10.358063l-0.024719238 19.846222l-17.304382 9.972961l-18.128204 -10.358063z" fill-rule="evenodd"/><path fill="#ffffff" d="m281.2586 433.1867l17.304413 -9.972961l18.128204 10.358063l-0.024749756 19.846222l-17.304382 9.972961l-18.128204 -10.358063z" fill-rule="evenodd"/><path stroke="#ffffff" stroke-width="1.0" stroke-linejoin="round" stroke-linecap="butt" d="m281.2586 433.1867l17.304413 -9.972961l18.128204 10.358063l-0.024749756 19.846222l-17.304382 9.972961l-18.128204 -10.358063z" fill-rule="evenodd"/><path fill="#ffffff" d="m317.3075 433.94962l17.304413 -9.972961l18.128174 10.358063l-0.024719238 19.846222l-17.304413 9.972961l-18.128174 -10.358063z" fill-rule="evenodd"/><path stroke="#ffffff" stroke-width="1.0" stroke-linejoin="round" stroke-linecap="butt" d="m317.3075 433.94962l17.304413 -9.972961l18.128174 10.358063l-0.024719238 19.846222l-17.304413 9.972961l-18.128174 -10.358063z" fill-rule="evenodd"/><path fill="#ffffff" d="m120.00343 401.86902l17.304398 -9.972961l18.128204 10.358063l-0.024734497 19.846222l-17.304398 9.972961l-18.128197 -10.358063z" fill-rule="evenodd"/><path stroke="#ffffff" stroke-width="1.0" stroke-linejoin="round" stroke-linecap="butt" d="m120.00343 401.86902l17.304398 -9.972961l18.128204 10.358063l-0.024734497 19.846222l-17.304398 9.972961l-18.128197 -10.358063z" fill-rule="evenodd"/><path fill="#ffffff" d="m155.04773 401.83786l17.304413 -9.972961l18.12819 10.358063l-0.024719238 19.846191l-17.304413 9.972992l-18.12819 -10.358093z" fill-rule="evenodd"/><path stroke="#ffffff" stroke-width="1.0" stroke-linejoin="round" stroke-linecap="butt" d="m155.04773 401.83786l17.304413 -9.972961l18.12819 10.358063l-0.024719238 19.846191l-17.304413 9.972992l-18.12819 -10.358093z" fill-rule="evenodd"/><path fill="#ffffff" d="m191.12968 402.7047l17.304398 -9.972961l18.12819 10.358063l-0.024719238 19.846222l-17.304398 9.972961l-18.128204 -10.358063z" fill-rule="evenodd"/><path stroke="#ffffff" stroke-width="1.0" stroke-linejoin="round" stroke-linecap="butt" d="m191.12968 402.7047l17.304398 -9.972961l18.12819 10.358063l-0.024719238 19.846222l-17.304398 9.972961l-18.128204 -10.358063z" fill-rule="evenodd"/><path fill="#ffffff" d="m227.35094 403.04193l17.304398 -9.972961l18.128204 10.358063l-0.024719238 19.846191l-17.304413 9.972961l-18.12819 -10.358063z" fill-rule="evenodd"/><path stroke="#ffffff" stroke-width="1.0" stroke-linejoin="round" stroke-linecap="butt" d="m227.35094 403.04193l17.304398 -9.972961l18.128204 10.358063l-0.024719238 19.846191l-17.304413 9.972961l-18.12819 -10.358063z" fill-rule="evenodd"/><path fill="#ffffff" d="m262.39523 403.01074l17.304413 -9.972961l18.128174 10.358063l-0.024719238 19.846222l-17.304382 9.972961l-18.128204 -10.358063z" fill-rule="evenodd"/><path stroke="#ffffff" stroke-width="1.0" stroke-linejoin="round" stroke-linecap="butt" d="m262.39523 403.01074l17.304413 -9.972961l18.128174 10.358063l-0.024719238 19.846222l-17.304382 9.972961l-18.128204 -10.358063z" fill-rule="evenodd"/><path fill="#ffffff" d="m298.47717 403.87762l17.304413 -9.972961l18.128204 10.358063l-0.024719238 19.846191l-17.304413 9.972992l-18.128204 -10.358093z" fill-rule="evenodd"/><path stroke="#ffffff" stroke-width="1.0" stroke-linejoin="round" stroke-linecap="butt" d="m298.47717 403.87762l17.304413 -9.972961l18.128204 10.358063l-0.024719238 19.846191l-17.304413 9.972992l-18.128204 -10.358093z" fill-rule="evenodd"/><path fill="#ffffff" d="m334.55994 404.53775l17.304413 -9.972961l18.128174 10.358063l-0.024719238 19.846222l-17.304382 9.972961l-18.128204 -10.358063z" fill-rule="evenodd"/><path stroke="#ffffff" stroke-width="1.0" stroke-linejoin="round" stroke-linecap="butt" d="m334.55994 404.53775l17.304413 -9.972961l18.128174 10.358063l-0.024719238 19.846222l-17.304382 9.972961l-18.128204 -10.358063z" fill-rule="evenodd"/><path fill="#ffffff" d="m210.04955 492.52658l17.304398 -9.972961l18.12819 10.358063l-0.024719238 19.846191l-17.304398 9.972961l-18.128204 -10.358032z" fill-rule="evenodd"/><path stroke="#ffffff" stroke-width="1.0" stroke-linejoin="round" stroke-linecap="butt" d="m210.04955 492.52658l17.304398 -9.972961l18.12819 10.358063l-0.024719238 19.846191l-17.304398 9.972961l-18.128204 -10.358032z" fill-rule="evenodd"/><path fill="#ffffff" d="m245.38628 493.86487l17.304398 -9.972961l18.128204 10.358063l-0.024719238 19.846222l-17.304413 9.972961l-18.12819 -10.358093z" fill-rule="evenodd"/><path stroke="#ffffff" stroke-width="1.0" stroke-linejoin="round" stroke-linecap="butt" d="m245.38628 493.86487l17.304398 -9.972961l18.128204 10.358063l-0.024719238 19.846222l-17.304413 9.972961l-18.12819 -10.358093z" fill-rule="evenodd"/><path fill="#ffffff" d="m156.60141 462.64532l17.304398 -9.972961l18.12819 10.358063l-0.024719238 19.846222l-17.304398 9.972961l-18.128204 -10.358063z" fill-rule="evenodd"/><path stroke="#ffffff" stroke-width="1.0" stroke-linejoin="round" stroke-linecap="butt" d="m156.60141 462.64532l17.304398 -9.972961l18.12819 10.358063l-0.024719238 19.846222l-17.304398 9.972961l-18.128204 -10.358063z" fill-rule="evenodd"/><path fill="#ffffff" d="m281.60754 494.20206l17.304382 -9.972961l18.128204 10.358063l-0.024719238 19.846191l-17.304413 9.972961l-18.128204 -10.358032z" fill-rule="evenodd"/><path stroke="#ffffff" stroke-width="1.0" stroke-linejoin="round" stroke-linecap="butt" d="m281.60754 494.20206l17.304382 -9.972961l18.128204 10.358063l-0.024719238 19.846191l-17.304413 9.972961l-18.128204 -10.358032z" fill-rule="evenodd"/><path fill="#ffffff" d="m191.6457 462.61417l17.304398 -9.972961l18.128204 10.358063l-0.024734497 19.846191l-17.304398 9.972961l-18.12819 -10.358063z" fill-rule="evenodd"/><path stroke="#ffffff" stroke-width="1.0" stroke-linejoin="round" stroke-linecap="butt" d="m191.6457 462.61417l17.304398 -9.972961l18.128204 10.358063l-0.024734497 19.846191l-17.304398 9.972961l-18.12819 -10.358063z" fill-rule="evenodd"/><path fill="#ffffff" d="m227.72765 463.48102l17.304413 -9.972961l18.12819 10.358063l-0.024719238 19.846222l-17.304413 9.972961l-18.12819 -10.358063z" fill-rule="evenodd"/><path stroke="#ffffff" stroke-width="1.0" stroke-linejoin="round" stroke-linecap="butt" d="m227.72765 463.48102l17.304413 -9.972961l18.12819 10.358063l-0.024719238 19.846222l-17.304413 9.972961l-18.12819 -10.358063z" fill-rule="evenodd"/><path fill="#ffffff" d="m263.9489 463.81824l17.304413 -9.972992l18.128174 10.358063l-0.024719238 19.846222l-17.304413 9.972961l-18.128174 -10.358063z" fill-rule="evenodd"/><path stroke="#ffffff" stroke-width="1.0" stroke-linejoin="round" stroke-linecap="butt" d="m263.9489 463.81824l17.304413 -9.972992l18.128174 10.358063l-0.024719238 19.846222l-17.304413 9.972961l-18.128174 -10.358063z" fill-rule="evenodd"/><path fill="#ffffff" d="m299.09033 464.14703l17.304382 -9.972961l18.128204 10.358063l-0.024719238 19.846222l-17.304413 9.972961l-18.128174 -10.358063z" fill-rule="evenodd"/><path stroke="#ffffff" stroke-width="1.0" stroke-linejoin="round" stroke-linecap="butt" d="m299.09033 464.14703l17.304382 -9.972961l18.128204 10.358063l-0.024719238 19.846222l-17.304413 9.972961l-18.128174 -10.358063z" fill-rule="evenodd"/><path fill="#ffffff" d="m174.26003 493.02917l17.304398 -9.972992l18.128204 10.358093l-0.024734497 19.846222l-17.304398 9.972961l-18.12819 -10.358093z" fill-rule="evenodd"/><path stroke="#ffffff" stroke-width="1.0" stroke-linejoin="round" stroke-linecap="butt" d="m174.26003 493.02917l17.304398 -9.972992l18.128204 10.358093l-0.024734497 19.846222l-17.304398 9.972961l-18.12819 -10.358093z" fill-rule="evenodd"/><path fill="#ffffff" d="m210.5547 553.0051l17.304398 -9.972961l18.128204 10.358032l-0.024719238 19.846252l-17.304413 9.972961l-18.12819 -10.358093z" fill-rule="evenodd"/><path stroke="#ffffff" stroke-width="1.0" stroke-linejoin="round" stroke-linecap="butt" d="m210.5547 553.0051l17.304398 -9.972961l18.128204 10.358032l-0.024719238 19.846252l-17.304413 9.972961l-18.12819 -10.358093z" fill-rule="evenodd"/><path fill="#ffffff" d="m192.38028 522.69806l17.304398 -9.972961l18.12819 10.358032l-0.024719238 19.846191l-17.304398 9.972961l-18.12819 -10.358032z" fill-rule="evenodd"/><path stroke="#ffffff" stroke-width="1.0" stroke-linejoin="round" stroke-linecap="butt" d="m192.38028 522.69806l17.304398 -9.972961l18.12819 10.358032l-0.024719238 19.846191l-17.304398 9.972961l-18.12819 -10.358032z" fill-rule="evenodd"/><path fill="#ffffff" d="m227.83548 523.7317l17.304398 -9.972961l18.12819 10.358093l-0.024719238 19.846191l-17.304398 9.972961l-18.128204 -10.358032z" fill-rule="evenodd"/><path stroke="#ffffff" stroke-width="1.0" stroke-linejoin="round" stroke-linecap="butt" d="m227.83548 523.7317l17.304398 -9.972961l18.12819 10.358093l-0.024719238 19.846191l-17.304398 9.972961l-18.128204 -10.358032z" fill-rule="evenodd"/><path fill="#ffffff" d="m263.8945 522.64087l17.304382 -9.972961l18.128204 10.358093l-0.024719238 19.846191l-17.304413 9.972961l-18.128204 -10.358032z" fill-rule="evenodd"/><path stroke="#ffffff" stroke-width="1.0" stroke-linejoin="round" stroke-linecap="butt" d="m263.8945 522.64087l17.304382 -9.972961l18.128204 10.358093l-0.024719238 19.846191l-17.304413 9.972961l-18.128204 -10.358032z" fill-rule="evenodd"/><path fill="#ffffff" d="m229.27222 582.8788l17.304398 -9.972961l18.12819 10.358093l-0.024719238 19.846191l-17.304398 9.972961l-18.12819 -10.358032z" fill-rule="evenodd"/><path stroke="#ffffff" stroke-width="1.0" stroke-linejoin="round" stroke-linecap="butt" d="m229.27222 582.8788l17.304398 -9.972961l18.12819 10.358093l-0.024719238 19.846191l-17.304398 9.972961l-18.12819 -10.358032z" fill-rule="evenodd"/><path fill="#ffffff" d="m246.4741 552.61127l17.304398 -9.972961l18.128204 10.358093l-0.024719238 19.846191l-17.304413 9.972961l-18.12819 -10.358093z" fill-rule="evenodd"/><path stroke="#ffffff" stroke-width="1.0" stroke-linejoin="round" stroke-linecap="butt" d="m246.4741 552.61127l17.304398 -9.972961l18.128204 10.358093l-0.024719238 19.846191l-17.304413 9.972961l-18.12819 -10.358093z" fill-rule="evenodd"/><path fill="#ffffff" d="m208.24081 251.63435l17.304398 -9.972961l18.12819 10.358063l-0.024719238 19.846207l-17.304398 9.972961l-18.128204 -10.358063z" fill-rule="evenodd"/><path stroke="#ffffff" stroke-width="1.0" stroke-linejoin="round" stroke-linecap="butt" d="m208.24081 251.63435l17.304398 -9.972961l18.12819 10.358063l-0.024719238 19.846207l-17.304398 9.972961l-18.128204 -10.358063z" fill-rule="evenodd"/><path fill="#ffffff" d="m243.96936 252.29855l17.304413 -9.972961l18.128174 10.358063l-0.024719238 19.846222l-17.304413 9.972961l-18.128174 -10.358063z" fill-rule="evenodd"/><path stroke="#ffffff" stroke-width="1.0" stroke-linejoin="round" stroke-linecap="butt" d="m243.96936 252.29855l17.304413 -9.972961l18.128174 10.358063l-0.024719238 19.846222l-17.304413 9.972961l-18.128174 -10.358063z" fill-rule="evenodd"/><path fill="#ffffff" d="m280.05212 252.9587l17.304382 -9.972961l18.128204 10.358063l-0.024719238 19.846207l-17.304413 9.972961l-18.128204 -10.358063z" fill-rule="evenodd"/><path stroke="#ffffff" stroke-width="1.0" stroke-linejoin="round" stroke-linecap="butt" d="m280.05212 252.9587l17.304382 -9.972961l18.128204 10.358063l-0.024719238 19.846207l-17.304413 9.972961l-18.128204 -10.358063z" fill-rule="evenodd"/><path fill="#ffffff" d="m315.6425 253.24068l17.304413 -9.972961l18.128174 10.358063l-0.024719238 19.846207l-17.304382 9.972961l-18.128204 -10.358063z" fill-rule="evenodd"/><path stroke="#ffffff" stroke-width="1.0" stroke-linejoin="round" stroke-linecap="butt" d="m315.6425 253.24068l17.304413 -9.972961l18.128174 10.358063l-0.024719238 19.846207l-17.304382 9.972961l-18.128204 -10.358063z" fill-rule="evenodd"/><path fill="#ffffff" d="m351.37103 253.90489l17.304413 -9.972961l18.128204 10.358063l-0.024749756 19.846207l-17.304382 9.972961l-18.128204 -10.358063z" fill-rule="evenodd"/><path stroke="#ffffff" stroke-width="1.0" stroke-linejoin="round" stroke-linecap="butt" d="m351.37103 253.90489l17.304413 -9.972961l18.128204 10.358063l-0.024749756 19.846207l-17.304382 9.972961l-18.128204 -10.358063z" fill-rule="evenodd"/><path fill="#ffffff" d="m387.5923 254.24208l17.304413 -9.972961l18.128204 10.358063l-0.024719238 19.846207l-17.304413 9.972961l-18.128204 -10.358063z" fill-rule="evenodd"/><path stroke="#ffffff" stroke-width="1.0" stroke-linejoin="round" stroke-linecap="butt" d="m387.5923 254.24208l17.304413 -9.972961l18.128204 10.358063l-0.024719238 19.846207l-17.304413 9.972961l-18.128204 -10.358063z" fill-rule="evenodd"/><path fill="#ffffff" d="m422.99 254.41357l17.304413 -9.972961l18.128174 10.358063l-0.024719238 19.846222l-17.304382 9.972961l-18.128204 -10.358063z" fill-rule="evenodd"/><path stroke="#ffffff" stroke-width="1.0" stroke-linejoin="round" stroke-linecap="butt" d="m422.99 254.41357l17.304413 -9.972961l18.128174 10.358063l-0.024719238 19.846222l-17.304382 9.972961l-18.128204 -10.358063z" fill-rule="evenodd"/><path fill="#ffffff" d="m226.58554 221.83891l17.304413 -9.972977l18.128204 10.358078l-0.024749756 19.846207l-17.304398 9.972961l-18.12819 -10.358063z" fill-rule="evenodd"/><path stroke="#ffffff" stroke-width="1.0" stroke-linejoin="round" stroke-linecap="butt" d="m226.58554 221.83891l17.304413 -9.972977l18.128204 10.358078l-0.024749756 19.846207l-17.304398 9.972961l-18.12819 -10.358063z" fill-rule="evenodd"/><path fill="#ffffff" d="m262.3141 222.50311l17.304413 -9.972961l18.128204 10.358063l-0.024719238 19.846207l-17.304413 9.972961l-18.128204 -10.358063z" fill-rule="evenodd"/><path stroke="#ffffff" stroke-width="1.0" stroke-linejoin="round" stroke-linecap="butt" d="m262.3141 222.50311l17.304413 -9.972961l18.128204 10.358063l-0.024719238 19.846207l-17.304413 9.972961l-18.128204 -10.358063z" fill-rule="evenodd"/><path fill="#ffffff" d="m298.39685 223.16325l17.304413 -9.972977l18.128174 10.358078l-0.024719238 19.846207l-17.304382 9.972961l-18.128204 -10.358063z" fill-rule="evenodd"/><path stroke="#ffffff" stroke-width="1.0" stroke-linejoin="round" stroke-linecap="butt" d="m298.39685 223.16325l17.304413 -9.972977l18.128174 10.358078l-0.024719238 19.846207l-17.304382 9.972961l-18.128204 -10.358063z" fill-rule="evenodd"/><path fill="#ffffff" d="m333.9872 223.44524l17.304413 -9.972961l18.128204 10.358063l-0.024719238 19.846207l-17.304413 9.972961l-18.128204 -10.358063z" fill-rule="evenodd"/><path stroke="#ffffff" stroke-width="1.0" stroke-linejoin="round" stroke-linecap="butt" d="m333.9872 223.44524l17.304413 -9.972961l18.128204 10.358063l-0.024719238 19.846207l-17.304413 9.972961l-18.128204 -10.358063z" fill-rule="evenodd"/><path fill="#ffffff" d="m369.7158 224.10945l17.304382 -9.972977l18.128204 10.358078l-0.024719238 19.846207l-17.304413 9.972961l-18.128204 -10.358063z" fill-rule="evenodd"/><path stroke="#ffffff" stroke-width="1.0" stroke-linejoin="round" stroke-linecap="butt" d="m369.7158 224.10945l17.304382 -9.972977l18.128204 10.358078l-0.024719238 19.846207l-17.304413 9.972961l-18.128204 -10.358063z" fill-rule="evenodd"/><path fill="#ffffff" d="m405.93704 224.44664l17.304382 -9.972961l18.128204 10.358063l-0.024719238 19.846207l-17.304413 9.972961l-18.128174 -10.358063z" fill-rule="evenodd"/><path stroke="#ffffff" stroke-width="1.0" stroke-linejoin="round" stroke-linecap="butt" d="m405.93704 224.44664l17.304382 -9.972961l18.128204 10.358063l-0.024719238 19.846207l-17.304413 9.972961l-18.128174 -10.358063z" fill-rule="evenodd"/><path fill="#ffffff" d="m441.33472 224.61813l17.304413 -9.972961l18.128204 10.358063l-0.024719238 19.846207l-17.304413 9.972961l-18.128204 -10.358063z" fill-rule="evenodd"/><path stroke="#ffffff" stroke-width="1.0" stroke-linejoin="round" stroke-linecap="butt" d="m441.33472 224.61813l17.304413 -9.972961l18.128204 10.358063l-0.024719238 19.846207l-17.304413 9.972961l-18.128204 -10.358063z" fill-rule="evenodd"/><path fill="#0000ff" d="m244.76219 191.7616l17.304398 -9.972961l18.128204 10.358063l-0.024719238 19.846207l-17.304413 9.972977l-18.12819 -10.358078z" fill-rule="evenodd"/><path stroke="#0000ff" stroke-width="1.0" stroke-linejoin="round" stroke-linecap="butt" d="m244.76219 191.7616l17.304398 -9.972961l18.128204 10.358063l-0.024719238 19.846207l-17.304413 9.972977l-18.12819 -10.358078z" fill-rule="evenodd"/><path fill="#0000ff" d="m280.49075 192.42581l17.304382 -9.972961l18.128204 10.358063l-0.024719238 19.846207l-17.304413 9.972961l-18.128174 -10.358063z" fill-rule="evenodd"/><path stroke="#0000ff" stroke-width="1.0" stroke-linejoin="round" stroke-linecap="butt" d="m280.49075 192.42581l17.304382 -9.972961l18.128204 10.358063l-0.024719238 19.846207l-17.304413 9.972961l-18.128174 -10.358063z" fill-rule="evenodd"/><path fill="#0000ff" d="m316.5735 193.08594l17.304413 -9.972961l18.128204 10.358063l-0.024719238 19.846207l-17.304413 9.972977l-18.128204 -10.358063z" fill-rule="evenodd"/><path stroke="#0000ff" stroke-width="1.0" stroke-linejoin="round" stroke-linecap="butt" d="m316.5735 193.08594l17.304413 -9.972961l18.128204 10.358063l-0.024719238 19.846207l-17.304413 9.972977l-18.128204 -10.358063z" fill-rule="evenodd"/><path fill="#0000ff" d="m352.16388 193.36794l17.304413 -9.972977l18.128174 10.358078l-0.024719238 19.846207l-17.304413 9.972961l-18.128174 -10.358063z" fill-rule="evenodd"/><path stroke="#0000ff" stroke-width="1.0" stroke-linejoin="round" stroke-linecap="butt" d="m352.16388 193.36794l17.304413 -9.972977l18.128174 10.358078l-0.024719238 19.846207l-17.304413 9.972961l-18.128174 -10.358063z" fill-rule="evenodd"/><path fill="#0000ff" d="m387.89243 194.03214l17.304413 -9.972961l18.128174 10.358063l-0.024719238 19.846207l-17.304382 9.972977l-18.128204 -10.358078z" fill-rule="evenodd"/><path stroke="#0000ff" stroke-width="1.0" stroke-linejoin="round" stroke-linecap="butt" d="m387.89243 194.03214l17.304413 -9.972961l18.128174 10.358063l-0.024719238 19.846207l-17.304382 9.972977l-18.128204 -10.358078z" fill-rule="evenodd"/><path fill="#0000ff" d="m424.11368 194.36934l17.304413 -9.972961l18.128204 10.358063l-0.024749756 19.846207l-17.304382 9.972961l-18.128204 -10.358063z" fill-rule="evenodd"/><path stroke="#0000ff" stroke-width="1.0" stroke-linejoin="round" stroke-linecap="butt" d="m424.11368 194.36934l17.304413 -9.972961l18.128204 10.358063l-0.024749756 19.846207l-17.304382 9.972961l-18.128204 -10.358063z" fill-rule="evenodd"/><path fill="#0000ff" d="m459.51138 194.54083l17.304413 -9.972977l18.128174 10.358078l-0.024719238 19.846207l-17.304413 9.972961l-18.128174 -10.358063z" fill-rule="evenodd"/><path stroke="#0000ff" stroke-width="1.0" stroke-linejoin="round" stroke-linecap="butt" d="m459.51138 194.54083l17.304413 -9.972977l18.128174 10.358078l-0.024719238 19.846207l-17.304413 9.972961l-18.128174 -10.358063z" fill-rule="evenodd"/><path fill="#0000ff" d="m120.95435 461.62634l17.304405 -9.972961l18.12819 10.358063l-0.024719238 19.846222l-17.304398 9.972961l-18.128197 -10.358063z" fill-rule="evenodd"/><path stroke="#0000ff" stroke-width="1.0" stroke-linejoin="round" stroke-linecap="butt" d="m120.95435 461.62634l17.304405 -9.972961l18.12819 10.358063l-0.024719238 19.846222l-17.304398 9.972961l-18.128197 -10.358063z" fill-rule="evenodd"/><path fill="#0000ff" d="m102.43408 431.73663l17.304405 -9.972961l18.128197 10.358063l-0.024734497 19.846222l-17.304398 9.972961l-18.12819 -10.358063z" fill-rule="evenodd"/><path stroke="#0000ff" stroke-width="1.0" stroke-linejoin="round" stroke-linecap="butt" d="m102.43408 431.73663l17.304405 -9.972961l18.128197 10.358063l-0.024734497 19.846222l-17.304398 9.972961l-18.12819 -10.358063z" fill-rule="evenodd"/><path fill="#0000ff" d="m139.03206 492.51294l17.304398 -9.972961l18.12819 10.358063l-0.024719238 19.846222l-17.304398 9.972961l-18.128204 -10.358093z" fill-rule="evenodd"/><path stroke="#0000ff" stroke-width="1.0" stroke-linejoin="round" stroke-linecap="butt" d="m139.03206 492.51294l17.304398 -9.972961l18.12819 10.358063l-0.024719238 19.846222l-17.304398 9.972961l-18.128204 -10.358093z" fill-rule="evenodd"/><path fill="#0000ff" d="m156.69067 522.8968l17.304398 -9.972961l18.128204 10.358032l-0.024719238 19.846252l-17.304413 9.972961l-18.12819 -10.358093z" fill-rule="evenodd"/><path stroke="#0000ff" stroke-width="1.0" stroke-linejoin="round" stroke-linecap="butt" d="m156.69067 522.8968l17.304398 -9.972961l18.128204 10.358032l-0.024719238 19.846252l-17.304413 9.972961l-18.12819 -10.358093z" fill-rule="evenodd"/><path fill="#0000ff" d="m192.98535 582.87274l17.304398 -9.972961l18.128204 10.358032l-0.024719238 19.846252l-17.304413 9.972961l-18.12819 -10.358093z" fill-rule="evenodd"/><path stroke="#0000ff" stroke-width="1.0" stroke-linejoin="round" stroke-linecap="butt" d="m192.98535 582.87274l17.304398 -9.972961l18.128204 10.358032l-0.024719238 19.846252l-17.304413 9.972961l-18.12819 -10.358093z" fill-rule="evenodd"/><path fill="#0000ff" d="m174.81093 552.5657l17.304398 -9.972961l18.128204 10.358032l-0.024734497 19.846191l-17.304398 9.972961l-18.12819 -10.358032z" fill-rule="evenodd"/><path stroke="#0000ff" stroke-width="1.0" stroke-linejoin="round" stroke-linecap="butt" d="m174.81093 552.5657l17.304398 -9.972961l18.128204 10.358032l-0.024734497 19.846191l-17.304398 9.972961l-18.12819 -10.358032z" fill-rule="evenodd"/><path fill="#0000ff" d="m211.70287 612.7464l17.304398 -9.972961l18.12819 10.358093l-0.024719238 19.846191l-17.304398 9.972961l-18.12819 -10.358032z" fill-rule="evenodd"/><path stroke="#0000ff" stroke-width="1.0" stroke-linejoin="round" stroke-linecap="butt" d="m211.70287 612.7464l17.304398 -9.972961l18.12819 10.358093l-0.024719238 19.846191l-17.304398 9.972961l-18.12819 -10.358032z" fill-rule="evenodd"/><path fill="#0000ff" d="m155.06087 280.93225l17.304413 -9.972961l18.12819 10.358063l-0.024719238 19.846222l-17.304398 9.972961l-18.128204 -10.358063z" fill-rule="evenodd"/><path stroke="#0000ff" stroke-width="1.0" stroke-linejoin="round" stroke-linecap="butt" d="m155.06087 280.93225l17.304413 -9.972961l18.12819 10.358063l-0.024719238 19.846222l-17.304398 9.972961l-18.128204 -10.358063z" fill-rule="evenodd"/><path fill="#0000ff" d="m172.79996 250.71992l17.304398 -9.972961l18.12819 10.358063l-0.024719238 19.846207l-17.304398 9.972961l-18.128204 -10.358063z" fill-rule="evenodd"/><path stroke="#0000ff" stroke-width="1.0" stroke-linejoin="round" stroke-linecap="butt" d="m172.79996 250.71992l17.304398 -9.972961l18.12819 10.358063l-0.024719238 19.846207l-17.304398 9.972961l-18.128204 -10.358063z" fill-rule="evenodd"/><path fill="#0000ff" d="m119.19808 340.457l17.304405 -9.972961l18.12819 10.358063l-0.024719238 19.846191l-17.304398 9.972992l-18.128197 -10.358093z" fill-rule="evenodd"/><path stroke="#0000ff" stroke-width="1.0" stroke-linejoin="round" stroke-linecap="butt" d="m119.19808 340.457l17.304405 -9.972961l18.12819 10.358063l-0.024719238 19.846191l-17.304398 9.972992l-18.128197 -10.358093z" fill-rule="evenodd"/><path fill="#0000ff" d="m136.98744 311.22006l17.304398 -9.972961l18.128204 10.358063l-0.024734497 19.846191l-17.304398 9.972992l-18.12819 -10.358063z" fill-rule="evenodd"/><path stroke="#0000ff" stroke-width="1.0" stroke-linejoin="round" stroke-linecap="butt" d="m136.98744 311.22006l17.304398 -9.972961l18.128204 10.358063l-0.024734497 19.846191l-17.304398 9.972992l-18.12819 -10.358063z" fill-rule="evenodd"/><path fill="#0000ff" d="m102.12684 371.23276l17.304405 -9.972961l18.12819 10.358063l-0.024719238 19.846222l-17.304405 9.972961l-18.128197 -10.358063z" fill-rule="evenodd"/><path stroke="#0000ff" stroke-width="1.0" stroke-linejoin="round" stroke-linecap="butt" d="m102.12684 371.23276l17.304405 -9.972961l18.12819 10.358063l-0.024719238 19.846222l-17.304405 9.972961l-18.128197 -10.358063z" fill-rule="evenodd"/><path fill="#0000ff" d="m190.87889 220.70294l17.304398 -9.972961l18.128204 10.358063l-0.024734497 19.846207l-17.304398 9.972977l-18.12819 -10.358078z" fill-rule="evenodd"/><path stroke="#0000ff" stroke-width="1.0" stroke-linejoin="round" stroke-linecap="butt" d="m190.87889 220.70294l17.304398 -9.972961l18.128204 10.358063l-0.024734497 19.846207l-17.304398 9.972977l-18.12819 -10.358078z" fill-rule="evenodd"/><path fill="#0000ff" d="m209.22363 190.9075l17.304398 -9.972961l18.128204 10.358063l-0.024734497 19.846207l-17.304398 9.972961l-18.12819 -10.358063z" fill-rule="evenodd"/><path stroke="#0000ff" stroke-width="1.0" stroke-linejoin="round" stroke-linecap="butt" d="m209.22363 190.9075l17.304398 -9.972961l18.128204 10.358063l-0.024734497 19.846207l-17.304398 9.972961l-18.12819 -10.358063z" fill-rule="evenodd"/><path fill="#0000ff" d="m226.86691 161.09319l17.304398 -9.972961l18.12819 10.358063l-0.024719238 19.846207l-17.304398 9.972977l-18.12819 -10.358063z" fill-rule="evenodd"/><path stroke="#0000ff" stroke-width="1.0" stroke-linejoin="round" stroke-linecap="butt" d="m226.86691 161.09319l17.304398 -9.972961l18.12819 10.358063l-0.024719238 19.846207l-17.304398 9.972977l-18.12819 -10.358063z" fill-rule="evenodd"/><path fill="#0000ff" d="m84.55749 401.10037l17.304405 -9.972961l18.12819 10.358063l-0.024719238 19.846222l-17.304405 9.972961l-18.12819 -10.358063z" fill-rule="evenodd"/><path stroke="#0000ff" stroke-width="1.0" stroke-linejoin="round" stroke-linecap="butt" d="m84.55749 401.10037l17.304405 -9.972961l18.12819 10.358063l-0.024719238 19.846222l-17.304405 9.972961l-18.12819 -10.358063z" fill-rule="evenodd"/><path fill="#0000ff" d="m262.77032 161.49802l17.304382 -9.972961l18.128204 10.358063l-0.024719238 19.846207l-17.304413 9.972961l-18.128174 -10.358063z" fill-rule="evenodd"/><path stroke="#0000ff" stroke-width="1.0" stroke-linejoin="round" stroke-linecap="butt" d="m262.77032 161.49802l17.304382 -9.972961l18.128204 10.358063l-0.024719238 19.846207l-17.304413 9.972961l-18.128174 -10.358063z" fill-rule="evenodd"/><path fill="#0000ff" d="m298.49887 162.16223l17.304413 -9.972977l18.128174 10.358078l-0.024719238 19.846207l-17.304413 9.972961l-18.128174 -10.358063z" fill-rule="evenodd"/><path stroke="#0000ff" stroke-width="1.0" stroke-linejoin="round" stroke-linecap="butt" d="m298.49887 162.16223l17.304413 -9.972977l18.128174 10.358078l-0.024719238 19.846207l-17.304413 9.972961l-18.128174 -10.358063z" fill-rule="evenodd"/><path fill="#0000ff" d="m334.58163 162.82236l17.304382 -9.972961l18.128204 10.358063l-0.024719238 19.846207l-17.304413 9.972961l-18.128204 -10.358063z" fill-rule="evenodd"/><path stroke="#0000ff" stroke-width="1.0" stroke-linejoin="round" stroke-linecap="butt" d="m334.58163 162.82236l17.304382 -9.972961l18.128204 10.358063l-0.024719238 19.846207l-17.304413 9.972961l-18.128204 -10.358063z" fill-rule="evenodd"/><path fill="#0000ff" d="m370.172 163.10435l17.304413 -9.972977l18.128174 10.358063l-0.024719238 19.846222l-17.304382 9.972961l-18.128204 -10.358063z" fill-rule="evenodd"/><path stroke="#0000ff" stroke-width="1.0" stroke-linejoin="round" stroke-linecap="butt" d="m370.172 163.10435l17.304413 -9.972977l18.128174 10.358063l-0.024719238 19.846222l-17.304382 9.972961l-18.128204 -10.358063z" fill-rule="evenodd"/><path fill="#0000ff" d="m405.90054 163.76855l17.304413 -9.972961l18.128204 10.358063l-0.024749756 19.846207l-17.304382 9.972961l-18.128204 -10.358063z" fill-rule="evenodd"/><path stroke="#0000ff" stroke-width="1.0" stroke-linejoin="round" stroke-linecap="butt" d="m405.90054 163.76855l17.304413 -9.972961l18.128204 10.358063l-0.024749756 19.846207l-17.304382 9.972961l-18.128204 -10.358063z" fill-rule="evenodd"/><path fill="#0000ff" d="m442.1218 164.10576l17.304413 -9.972977l18.128204 10.358063l-0.024719238 19.846222l-17.304413 9.972961l-18.128204 -10.358063z" fill-rule="evenodd"/><path stroke="#0000ff" stroke-width="1.0" stroke-linejoin="round" stroke-linecap="butt" d="m442.1218 164.10576l17.304413 -9.972977l18.128204 10.358063l-0.024719238 19.846222l-17.304413 9.972961l-18.128204 -10.358063z" fill-rule="evenodd"/><path fill="#0000ff" d="m475.264 165.57068l17.304413 -9.972961l18.128174 10.358063l-0.024719238 19.846207l-17.304413 9.972961l-18.128174 -10.358063z" fill-rule="evenodd"/><path stroke="#0000ff" stroke-width="1.0" stroke-linejoin="round" stroke-linecap="butt" d="m475.264 165.57068l17.304413 -9.972961l18.128174 10.358063l-0.024719238 19.846207l-17.304413 9.972961l-18.128174 -10.358063z" fill-rule="evenodd"/><path fill="#0000ff" d="m495.67236 636.67346l-17.314209 9.997559l-18.064453 -10.262817l0.008605957 -19.829224l17.314209 -9.997559l18.064484 10.262817z" fill-rule="evenodd"/><path stroke="#0000ff" stroke-width="1.0" stroke-linejoin="round" stroke-linecap="butt" d="m495.67236 636.67346l-17.314209 9.997559l-18.064453 -10.262817l0.008605957 -19.829224l17.314209 -9.997559l18.064484 10.262817z" fill-rule="evenodd"/><path fill="#0000ff" d="m459.59277 637.03754l-17.315613 9.992676l-18.061676 -10.265564l0.013519287 -19.826477l17.315613 -9.992676l18.061646 10.265503z" fill-rule="evenodd"/><path stroke="#0000ff" stroke-width="1.0" stroke-linejoin="round" stroke-linecap="butt" d="m459.59277 637.03754l-17.315613 9.992676l-18.061676 -10.265564l0.013519287 -19.826477l17.315613 -9.992676l18.061646 10.265503z" fill-rule="evenodd"/><path fill="#0000ff" d="m477.49573 666.2556l-17.314209 9.997498l-18.064484 -10.262817l0.008605957 -19.829224l17.31424 -9.997498l18.064453 10.262817z" fill-rule="evenodd"/><path stroke="#0000ff" stroke-width="1.0" stroke-linejoin="round" stroke-linecap="butt" d="m477.49573 666.2556l-17.314209 9.997498l-18.064484 -10.262817l0.008605957 -19.829224l17.31424 -9.997498l18.064453 10.262817z" fill-rule="evenodd"/><path fill="#0000ff" d="m441.41296 665.59546l-17.314209 9.997559l-18.064453 -10.262817l0.008605957 -19.829224l17.314209 -9.997559l18.064453 10.262817z" fill-rule="evenodd"/><path stroke="#0000ff" stroke-width="1.0" stroke-linejoin="round" stroke-linecap="butt" d="m441.41296 665.59546l-17.314209 9.997559l-18.064453 -10.262817l0.008605957 -19.829224l17.314209 -9.997559l18.064453 10.262817z" fill-rule="evenodd"/><path fill="#0000ff" d="m405.8226 665.3135l-17.314209 9.997498l-18.064484 -10.262756l0.008605957 -19.829224l17.31424 -9.997559l18.064453 10.262817z" fill-rule="evenodd"/><path stroke="#0000ff" stroke-width="1.0" stroke-linejoin="round" stroke-linecap="butt" d="m405.8226 665.3135l-17.314209 9.997498l-18.064484 -10.262756l0.008605957 -19.829224l17.31424 -9.997559l18.064453 10.262817z" fill-rule="evenodd"/><path fill="#0000ff" d="m370.09406 664.64923l-17.31424 9.997559l-18.064453 -10.262817l0.008605957 -19.829224l17.314209 -9.997498l18.064484 10.262756z" fill-rule="evenodd"/><path stroke="#0000ff" stroke-width="1.0" stroke-linejoin="round" stroke-linecap="butt" d="m370.09406 664.64923l-17.31424 9.997559l-18.064453 -10.262817l0.008605957 -19.829224l17.314209 -9.997498l18.064484 10.262756z" fill-rule="evenodd"/><path fill="#0000ff" d="m333.8728 664.3121l-17.31424 9.997498l-18.064453 -10.262756l0.008605957 -19.829224l17.314209 -9.997559l18.064484 10.262817z" fill-rule="evenodd"/><path stroke="#0000ff" stroke-width="1.0" stroke-linejoin="round" stroke-linecap="butt" d="m333.8728 664.3121l-17.31424 9.997498l-18.064453 -10.262756l0.008605957 -19.829224l17.314209 -9.997559l18.064484 10.262817z" fill-rule="evenodd"/><path fill="#0000ff" d="m298.4751 664.14056l-17.314209 9.997559l-18.064484 -10.262817l0.008605957 -19.829224l17.31424 -9.997559l18.064453 10.262817z" fill-rule="evenodd"/><path stroke="#0000ff" stroke-width="1.0" stroke-linejoin="round" stroke-linecap="butt" d="m298.4751 664.14056l-17.314209 9.997559l-18.064484 -10.262817l0.008605957 -19.829224l17.31424 -9.997559l18.064453 10.262817z" fill-rule="evenodd"/><path fill="#0000ff" d="m262.74655 663.4764l-17.314224 9.997498l-18.064468 -10.262756l0.008605957 -19.829224l17.314224 -9.997559l18.064468 10.262817z" fill-rule="evenodd"/><path stroke="#0000ff" stroke-width="1.0" stroke-linejoin="round" stroke-linecap="butt" d="m262.74655 663.4764l-17.314224 9.997498l-18.064468 -10.262756l0.008605957 -19.829224l17.314224 -9.997559l18.064468 10.262817z" fill-rule="evenodd"/><path fill="#0000ff" d="m193.75745 642.5015l17.302856 -9.9776l18.118683 10.348938l-0.019973755 19.849121l-17.302856 9.9776l-18.118668 -10.348877z" fill-rule="evenodd"/><path stroke="#0000ff" stroke-width="1.0" stroke-linejoin="round" stroke-linecap="butt" d="m193.75745 642.5015l17.302856 -9.9776l18.118683 10.348938l-0.019973755 19.849121l-17.302856 9.9776l-18.118668 -10.348877z" fill-rule="evenodd"/><path fill="#0000ff" d="m512.7309 667.3148l-17.314209 9.997498l-18.064484 -10.262817l0.008605957 -19.829163l17.31424 -9.997559l18.064453 10.262817z" fill-rule="evenodd"/><path stroke="#0000ff" stroke-width="1.0" stroke-linejoin="round" stroke-linecap="butt" d="m512.7309 667.3148l-17.314209 9.997498l-18.064484 -10.262817l0.008605957 -19.829163l17.31424 -9.997559l18.064453 10.262817z" fill-rule="evenodd"/><path fill="#0000ff" d="m85.62683 461.6495l17.304405 -9.972961l18.128197 10.358063l-0.024726868 19.846191l-17.304405 9.972992l-18.12819 -10.358093z" fill-rule="evenodd"/><path stroke="#0000ff" stroke-width="1.0" stroke-linejoin="round" stroke-linecap="butt" d="m85.62683 461.6495l17.304405 -9.972961l18.128197 10.358063l-0.024726868 19.846191l-17.304405 9.972992l-18.12819 -10.358093z" fill-rule="evenodd"/><path fill="#0000ff" d="m67.10656 431.7598l17.304405 -9.972961l18.128197 10.358063l-0.024726868 19.846191l-17.304405 9.972961l-18.12819 -10.358063z" fill-rule="evenodd"/><path stroke="#0000ff" stroke-width="1.0" stroke-linejoin="round" stroke-linecap="butt" d="m67.10656 431.7598l17.304405 -9.972961l18.128197 10.358063l-0.024726868 19.846191l-17.304405 9.972961l-18.12819 -10.358063z" fill-rule="evenodd"/><path fill="#0000ff" d="m103.70453 492.5361l17.304405 -9.972992l18.128197 10.358093l-0.024719238 19.846191l-17.304405 9.972961l-18.128197 -10.358032z" fill-rule="evenodd"/><path stroke="#0000ff" stroke-width="1.0" stroke-linejoin="round" stroke-linecap="butt" d="m103.70453 492.5361l17.304405 -9.972992l18.128197 10.358093l-0.024719238 19.846191l-17.304405 9.972961l-18.128197 -10.358032z" fill-rule="evenodd"/><path fill="#0000ff" d="m121.36315 522.9199l17.304405 -9.972961l18.12819 10.358093l-0.024719238 19.846191l-17.304398 9.972961l-18.128197 -10.358093z" fill-rule="evenodd"/><path stroke="#0000ff" stroke-width="1.0" stroke-linejoin="round" stroke-linecap="butt" d="m121.36315 522.9199l17.304405 -9.972961l18.12819 10.358093l-0.024719238 19.846191l-17.304398 9.972961l-18.128197 -10.358093z" fill-rule="evenodd"/><path fill="#0000ff" d="m157.65784 582.8959l17.304398 -9.972961l18.12819 10.358093l-0.024719238 19.846191l-17.304398 9.972961l-18.128204 -10.358093z" fill-rule="evenodd"/><path stroke="#0000ff" stroke-width="1.0" stroke-linejoin="round" stroke-linecap="butt" d="m157.65784 582.8959l17.304398 -9.972961l18.12819 10.358093l-0.024719238 19.846191l-17.304398 9.972961l-18.128204 -10.358093z" fill-rule="evenodd"/><path fill="#0000ff" d="m139.4834 552.5888l17.304413 -9.972961l18.12819 10.358032l-0.024719238 19.846252l-17.304413 9.972961l-18.12819 -10.358093z" fill-rule="evenodd"/><path stroke="#0000ff" stroke-width="1.0" stroke-linejoin="round" stroke-linecap="butt" d="m139.4834 552.5888l17.304413 -9.972961l18.12819 10.358032l-0.024719238 19.846252l-17.304413 9.972961l-18.12819 -10.358093z" fill-rule="evenodd"/><path fill="#0000ff" d="m176.37534 612.7696l17.304413 -9.972961l18.12819 10.358032l-0.024719238 19.846191l-17.304413 9.973022l-18.12819 -10.358093z" fill-rule="evenodd"/><path stroke="#0000ff" stroke-width="1.0" stroke-linejoin="round" stroke-linecap="butt" d="m176.37534 612.7696l17.304413 -9.972961l18.12819 10.358032l-0.024719238 19.846191l-17.304413 9.973022l-18.12819 -10.358093z" fill-rule="evenodd"/><path fill="#0000ff" d="m49.229965 401.12354l17.304405 -9.972961l18.128197 10.358063l-0.024726868 19.846191l-17.304405 9.972961l-18.128193 -10.358063z" fill-rule="evenodd"/><path stroke="#0000ff" stroke-width="1.0" stroke-linejoin="round" stroke-linecap="butt" d="m49.229965 401.12354l17.304405 -9.972961l18.128197 10.358063l-0.024726868 19.846191l-17.304405 9.972961l-18.128193 -10.358063z" fill-rule="evenodd"/><path fill="#0000ff" d="m136.52649 250.79056l17.304398 -9.972977l18.128204 10.358063l-0.024719238 19.846207l-17.304413 9.972961l-18.12819 -10.358063z" fill-rule="evenodd"/><path stroke="#0000ff" stroke-width="1.0" stroke-linejoin="round" stroke-linecap="butt" d="m136.52649 250.79056l17.304398 -9.972977l18.128204 10.358063l-0.024719238 19.846207l-17.304413 9.972961l-18.12819 -10.358063z" fill-rule="evenodd"/><path fill="#0000ff" d="m154.89372 220.582l17.302856 -9.9776l18.118683 10.348923l-0.019973755 19.849152l-17.302856 9.9776l-18.118683 -10.348923z" fill-rule="evenodd"/><path stroke="#0000ff" stroke-width="1.0" stroke-linejoin="round" stroke-linecap="butt" d="m154.89372 220.582l17.302856 -9.9776l18.118683 10.348923l-0.019973755 19.849152l-17.302856 9.9776l-18.118683 -10.348923z" fill-rule="evenodd"/><path fill="#0000ff" d="m100.6637 310.31528l17.304405 -9.972961l18.128197 10.358063l-0.024719238 19.846222l-17.304405 9.972961l-18.128197 -10.358063z" fill-rule="evenodd"/><path stroke="#0000ff" stroke-width="1.0" stroke-linejoin="round" stroke-linecap="butt" d="m100.6637 310.31528l17.304405 -9.972961l18.128197 10.358063l-0.024719238 19.846222l-17.304405 9.972961l-18.128197 -10.358063z" fill-rule="evenodd"/><path fill="#0000ff" d="m119.08121 281.08215l17.302856 -9.977631l18.118683 10.348938l-0.019958496 19.849152l-17.302872 9.9776l-18.118675 -10.348907z" fill-rule="evenodd"/><path stroke="#0000ff" stroke-width="1.0" stroke-linejoin="round" stroke-linecap="butt" d="m119.08121 281.08215l17.302856 -9.977631l18.118683 10.348938l-0.019958496 19.849152l-17.302872 9.9776l-18.118675 -10.348907z" fill-rule="evenodd"/><path fill="#0000ff" d="m83.59245 341.09106l17.304405 -9.972992l18.128197 10.358063l-0.024726868 19.846222l-17.304405 9.972961l-18.12819 -10.358063z" fill-rule="evenodd"/><path stroke="#0000ff" stroke-width="1.0" stroke-linejoin="round" stroke-linecap="butt" d="m83.59245 341.09106l17.304405 -9.972992l18.128197 10.358063l-0.024726868 19.846222l-17.304405 9.972961l-18.12819 -10.358063z" fill-rule="evenodd"/><path fill="#0000ff" d="m172.97266 190.56502l17.302872 -9.9776l18.118668 10.348923l-0.019958496 19.849152l-17.302872 9.977615l-18.118668 -10.348923z" fill-rule="evenodd"/><path stroke="#0000ff" stroke-width="1.0" stroke-linejoin="round" stroke-linecap="butt" d="m172.97266 190.56502l17.302872 -9.9776l18.118668 10.348923l-0.019958496 19.849152l-17.302872 9.977615l-18.118668 -10.348923z" fill-rule="evenodd"/><path fill="#0000ff" d="m190.68924 160.7658l17.304413 -9.972977l18.12819 10.358063l-0.024719238 19.846222l-17.304398 9.972961l-18.128204 -10.358063z" fill-rule="evenodd"/><path stroke="#0000ff" stroke-width="1.0" stroke-linejoin="round" stroke-linecap="butt" d="m190.68924 160.7658l17.304413 -9.972977l18.12819 10.358063l-0.024719238 19.846222l-17.304398 9.972961l-18.128204 -10.358063z" fill-rule="evenodd"/><path fill="#0000ff" d="m66.0231 370.95868l17.304405 -9.972992l18.128197 10.358063l-0.024726868 19.846222l-17.304398 9.972961l-18.128197 -10.358063z" fill-rule="evenodd"/><path stroke="#0000ff" stroke-width="1.0" stroke-linejoin="round" stroke-linecap="butt" d="m66.0231 370.95868l17.304405 -9.972992l18.128197 10.358063l-0.024726868 19.846222l-17.304398 9.972961l-18.128197 -10.358063z" fill-rule="evenodd"/><path fill="#0000ff" d="m585.3808 548.23663l-17.314209 9.997559l-18.064453 -10.262817l0.008605957 -19.829224l17.314209 -9.997559l18.064453 10.262817z" fill-rule="evenodd"/><path stroke="#0000ff" stroke-width="1.0" stroke-linejoin="round" stroke-linecap="butt" d="m585.3808 548.23663l-17.314209 9.997559l-18.064453 -10.262817l0.008605957 -19.829224l17.314209 -9.997559l18.064453 10.262817z" fill-rule="evenodd"/><path fill="#0000ff" d="m567.7027 577.28217l-17.314209 9.997559l-18.064453 -10.262817l0.008605957 -19.829224l17.314209 -9.997498l18.064453 10.262817z" fill-rule="evenodd"/><path stroke="#0000ff" stroke-width="1.0" stroke-linejoin="round" stroke-linecap="butt" d="m567.7027 577.28217l-17.314209 9.997559l-18.064453 -10.262817l0.008605957 -19.829224l17.314209 -9.997498l18.064453 10.262817z" fill-rule="evenodd"/><path fill="#0000ff" d="m621.0705 487.35757l-17.31427 9.997528l-18.064453 -10.262787l0.008605957 -19.829224l17.314209 -9.997559l18.064514 10.262817z" fill-rule="evenodd"/><path stroke="#0000ff" stroke-width="1.0" stroke-linejoin="round" stroke-linecap="butt" d="m621.0705 487.35757l-17.31427 9.997528l-18.064453 -10.262787l0.008605957 -19.829224l17.314209 -9.997559l18.064514 10.262817z" fill-rule="evenodd"/><path fill="#0000ff" d="m602.5078 517.40424l-17.314209 9.997498l-18.064453 -10.262817l0.008605957 -19.829193l17.314209 -9.997528l18.064453 10.262787z" fill-rule="evenodd"/><path stroke="#0000ff" stroke-width="1.0" stroke-linejoin="round" stroke-linecap="butt" d="m602.5078 517.40424l-17.314209 9.997498l-18.064453 -10.262817l0.008605957 -19.829193l17.314209 -9.997528l18.064453 10.262787z" fill-rule="evenodd"/><path fill="#0000ff" d="m655.9311 427.34488l-17.31427 9.997528l-18.064453 -10.262817l0.008605957 -19.829224l17.314209 -9.997528l18.064514 10.262817z" fill-rule="evenodd"/><path stroke="#0000ff" stroke-width="1.0" stroke-linejoin="round" stroke-linecap="butt" d="m655.9311 427.34488l-17.31427 9.997528l-18.064453 -10.262817l0.008605957 -19.829224l17.314209 -9.997528l18.064514 10.262817z" fill-rule="evenodd"/><path fill="#0000ff" d="m638.5454 457.75986l-17.31427 9.997559l-18.064453 -10.262817l0.008605957 -19.829224l17.314209 -9.997528l18.064514 10.262817z" fill-rule="evenodd"/><path stroke="#0000ff" stroke-width="1.0" stroke-linejoin="round" stroke-linecap="butt" d="m638.5454 457.75986l-17.31427 9.997559l-18.064453 -10.262817l0.008605957 -19.829224l17.314209 -9.997528l18.064514 10.262817z" fill-rule="evenodd"/><path fill="#0000ff" d="m549.6238 607.2992l-17.314209 9.997498l-18.064514 -10.262817l0.008605957 -19.829224l17.31427 -9.997498l18.064453 10.262817z" fill-rule="evenodd"/><path stroke="#0000ff" stroke-width="1.0" stroke-linejoin="round" stroke-linecap="butt" d="m549.6238 607.2992l-17.314209 9.997498l-18.064514 -10.262817l0.008605957 -19.829224l17.31427 -9.997498l18.064453 10.262817z" fill-rule="evenodd"/><path fill="#0000ff" d="m531.27905 637.0946l-17.31427 9.997559l-18.064453 -10.262817l0.008605957 -19.829224l17.314209 -9.997559l18.064514 10.262817z" fill-rule="evenodd"/><path stroke="#0000ff" stroke-width="1.0" stroke-linejoin="round" stroke-linecap="butt" d="m531.27905 637.0946l-17.31427 9.997559l-18.064453 -10.262817l0.008605957 -19.829224l17.314209 -9.997559l18.064514 10.262817z" fill-rule="evenodd"/><path fill="#0000ff" d="m316.28943 131.88757l17.304413 -9.972969l18.128174 10.35807l-0.024719238 19.846207l-17.304382 9.972961l-18.128204 -10.358063z" fill-rule="evenodd"/><path stroke="#0000ff" stroke-width="1.0" stroke-linejoin="round" stroke-linecap="butt" d="m316.28943 131.88757l17.304413 -9.972969l18.128174 10.35807l-0.024719238 19.846207l-17.304382 9.972961l-18.128204 -10.358063z" fill-rule="evenodd"/><path fill="#0000ff" d="m352.19284 132.2924l17.304413 -9.972969l18.128174 10.35807l-0.024719238 19.846207l-17.304413 9.972961l-18.128174 -10.358063z" fill-rule="evenodd"/><path stroke="#0000ff" stroke-width="1.0" stroke-linejoin="round" stroke-linecap="butt" d="m352.19284 132.2924l17.304413 -9.972969l18.128174 10.35807l-0.024719238 19.846207l-17.304413 9.972961l-18.128174 -10.358063z" fill-rule="evenodd"/><path fill="#0000ff" d="m262.53983 100.498535l17.302856 -9.977608l18.118683 10.348923l-0.019958496 19.849152l-17.302887 9.977608l-18.118652 -10.348923z" fill-rule="evenodd"/><path stroke="#0000ff" stroke-width="1.0" stroke-linejoin="round" stroke-linecap="butt" d="m262.53983 100.498535l17.302856 -9.977608l18.118683 10.348923l-0.019958496 19.849152l-17.302887 9.977608l-18.118652 -10.348923z" fill-rule="evenodd"/><path fill="#0000ff" d="m298.1302 100.78052l17.302887 -9.9776l18.118652 10.348923l-0.019958496 19.849152l-17.302856 9.9776l-18.118683 -10.348915z" fill-rule="evenodd"/><path stroke="#0000ff" stroke-width="1.0" stroke-linejoin="round" stroke-linecap="butt" d="m298.1302 100.78052l17.302887 -9.9776l18.118652 10.348923l-0.019958496 19.849152l-17.302856 9.9776l-18.118683 -10.348915z" fill-rule="evenodd"/><path fill="#0000ff" d="m333.85876 101.444725l17.302856 -9.9776l18.118652 10.348923l-0.019958496 19.849152l-17.302856 9.977608l-18.118683 -10.348923z" fill-rule="evenodd"/><path stroke="#0000ff" stroke-width="1.0" stroke-linejoin="round" stroke-linecap="butt" d="m333.85876 101.444725l17.302856 -9.9776l18.118652 10.348923l-0.019958496 19.849152l-17.302856 9.977608l-18.118683 -10.348923z" fill-rule="evenodd"/><path fill="#0000ff" d="m370.08002 101.78192l17.302856 -9.9776l18.118683 10.348923l-0.019989014 19.849152l-17.302856 9.9776l-18.118652 -10.348915z" fill-rule="evenodd"/><path stroke="#0000ff" stroke-width="1.0" stroke-linejoin="round" stroke-linecap="butt" d="m370.08002 101.78192l17.302856 -9.9776l18.118683 10.348923l-0.019989014 19.849152l-17.302856 9.9776l-18.118652 -10.348915z" fill-rule="evenodd"/><path fill="#0000ff" d="m403.2222 103.24685l17.302856 -9.9776l18.118683 10.348923l-0.019958496 19.849152l-17.302856 9.977608l-18.118683 -10.348923z" fill-rule="evenodd"/><path stroke="#0000ff" stroke-width="1.0" stroke-linejoin="round" stroke-linecap="butt" d="m403.2222 103.24685l17.302856 -9.9776l18.118683 10.348923l-0.019958496 19.849152l-17.302856 9.977608l-18.118683 -10.348923z" fill-rule="evenodd"/><path fill="#0000ff" d="m244.08705 69.58175l17.302872 -9.9776l18.118652 10.348923l-0.019958496 19.849152l-17.302856 9.977608l-18.118683 -10.348923z" fill-rule="evenodd"/><path stroke="#0000ff" stroke-width="1.0" stroke-linejoin="round" stroke-linecap="butt" d="m244.08705 69.58175l17.302872 -9.9776l18.118652 10.348923l-0.019958496 19.849152l-17.302856 9.977608l-18.118683 -10.348923z" fill-rule="evenodd"/><path fill="#0000ff" d="m279.67743 69.86374l17.302856 -9.977604l18.118683 10.348919l-0.019958496 19.84916l-17.302887 9.9776l-18.118652 -10.348923z" fill-rule="evenodd"/><path stroke="#0000ff" stroke-width="1.0" stroke-linejoin="round" stroke-linecap="butt" d="m279.67743 69.86374l17.302856 -9.977604l18.118683 10.348919l-0.019958496 19.84916l-17.302887 9.9776l-18.118652 -10.348923z" fill-rule="evenodd"/><path fill="#0000ff" d="m315.40598 70.52795l17.302856 -9.977604l18.118683 10.348927l-0.019958496 19.849152l-17.302856 9.9776l-18.118683 -10.348923z" fill-rule="evenodd"/><path stroke="#0000ff" stroke-width="1.0" stroke-linejoin="round" stroke-linecap="butt" d="m315.40598 70.52795l17.302856 -9.977604l18.118683 10.348927l-0.019958496 19.849152l-17.302856 9.9776l-18.118683 -10.348923z" fill-rule="evenodd"/><path fill="#0000ff" d="m351.62723 70.86514l17.302856 -9.977604l18.118683 10.348919l-0.019958496 19.84916l-17.302856 9.9776l-18.118683 -10.348923z" fill-rule="evenodd"/><path stroke="#0000ff" stroke-width="1.0" stroke-linejoin="round" stroke-linecap="butt" d="m351.62723 70.86514l17.302856 -9.977604l18.118683 10.348919l-0.019958496 19.84916l-17.302856 9.9776l-18.118683 -10.348923z" fill-rule="evenodd"/><path fill="#0000ff" d="m384.76944 72.33007l17.302856 -9.977604l18.118683 10.348927l-0.019989014 19.849152l-17.302856 9.9776l-18.118652 -10.348915z" fill-rule="evenodd"/><path stroke="#0000ff" stroke-width="1.0" stroke-linejoin="round" stroke-linecap="butt" d="m384.76944 72.33007l17.302856 -9.977604l18.118683 10.348927l-0.019989014 19.849152l-17.302856 9.9776l-18.118652 -10.348915z" fill-rule="evenodd"/><path fill="#0000ff" d="m420.73633 73.29558l17.302856 -9.977604l18.118683 10.348919l-0.019958496 19.84916l-17.302856 9.9776l-18.118683 -10.348923z" fill-rule="evenodd"/><path stroke="#0000ff" stroke-width="1.0" stroke-linejoin="round" stroke-linecap="butt" d="m420.73633 73.29558l17.302856 -9.977604l18.118683 10.348919l-0.019958496 19.84916l-17.302856 9.9776l-18.118683 -10.348923z" fill-rule="evenodd"/><path fill="#000000" d="m364.25894 247.68324l9.98587 17.28218l-10.359161 18.037018l-19.910187 -0.002380371l-9.98587 -17.282166l10.359161 -18.037033z" fill-rule="evenodd"/><path stroke="#000000" stroke-width="1.0" stroke-linejoin="round" stroke-linecap="butt" d="m364.25894 247.68324l9.98587 17.28218l-10.359161 18.037018l-19.910187 -0.002380371l-9.98587 -17.282166l10.359161 -18.037033z" fill-rule="evenodd"/><path fill="#000000" d="m363.97623 283.1821l9.98587 17.282196l-10.359161 18.037018l-19.910187 -0.002380371l-9.98587 -17.282196l10.359161 -18.037018z" fill-rule="evenodd"/><path stroke="#000000" stroke-width="1.0" stroke-linejoin="round" stroke-linecap="butt" d="m363.97623 283.1821l9.98587 17.282196l-10.359161 18.037018l-19.910187 -0.002380371l-9.98587 -17.282196l10.359161 -18.037018z" fill-rule="evenodd"/><path fill="#000000" d="m363.3103 318.8188l9.98587 17.282166l-10.359161 18.037018l-19.910187 -0.002380371l-9.98587 -17.282166l10.359192 -18.037018z" fill-rule="evenodd"/><path stroke="#000000" stroke-width="1.0" stroke-linejoin="round" stroke-linecap="butt" d="m363.3103 318.8188l9.98587 17.282166l-10.359161 18.037018l-19.910187 -0.002380371l-9.98587 -17.282166l10.359192 -18.037018z" fill-rule="evenodd"/><path fill="#000000" d="m362.97223 354.9469l9.985901 17.282196l-10.359192 18.037018l-19.910156 -0.002380371l-9.985901 -17.282196l10.359192 -18.037018z" fill-rule="evenodd"/><path stroke="#000000" stroke-width="1.0" stroke-linejoin="round" stroke-linecap="butt" d="m362.97223 354.9469l9.985901 17.282196l-10.359192 18.037018l-19.910156 -0.002380371l-9.985901 -17.282196l10.359192 -18.037018z" fill-rule="evenodd"/><path fill="#000000" d="m367.79526 391.02756l15.331238 26.52237l-15.185303 26.429138l-30.571106 0.0017700195l-15.331238 -26.52237l15.185303 -26.429138z" fill-rule="evenodd"/><path stroke="#000000" stroke-width="1.0" stroke-linejoin="round" stroke-linecap="butt" d="m367.79526 391.02756l15.331238 26.52237l-15.185303 26.429138l-30.571106 0.0017700195l-15.331238 -26.52237l15.185303 -26.429138z" fill-rule="evenodd"/></g></svg>