<svg version="1.1" viewBox="0.0 0.0 322.2230971128609 100.0" fill="none" stroke="none" stroke-linecap="square" stroke-miterlimit="10" xmlns:xlink="http://www.w3.org/1999/xlink" xmlns="http://www.w3.org/2000/svg"><clipPath id="p.0"><path d="m0 0l322.22308 0l0 100.0l-322.22308 0l0 -100.0z" clip-rule="nonzero"/></clipPath><g clip-path="url(#p.0)"><path fill="#000000" fill-opacity="0.0" d="m0 0l322.22308 0l0 100.0l-322.22308 0z" fill-rule="evenodd"/><path fill="#f1c232" d="m6.0998654 38.33465l10.859257 -18.818888l21.966526 0l10.859257 18.818888l-10.859257 18.81889l-21.966526 0z" fill-rule="evenodd"/><path stroke="#e69138" stroke-width="4.0" stroke-linejoin="round" stroke-linecap="butt" d="m6.0998654 38.33465l10.859257 -18.818888l21.966526 0l10.859257 18.818888l-10.859257 18.81889l-21.966526 0z" fill-rule="evenodd"/><path fill="#000000" fill-opacity="0.0" d="m10.664428 16.86672l32.47244 0l0 31.622046l-32.47244 0z" fill-rule="evenodd"/><path fill="#ffffff" d="m32.555054 30.724218l0 13.062498l-1.875 0l0 -5.59375l-7.46875 0l0 5.59375l-1.875 0l0 -13.062498l1.875 0l0 5.609373l7.46875 0l0 -5.609373l1.875 0z" fill-rule="nonzero"/><path fill="#f1c232" d="m38.88673 56.44226l10.859257 -18.81889l21.96653 0l10.859253 18.81889l-10.859253 18.818886l-21.96653 0z" fill-rule="evenodd"/><path stroke="#e69138" stroke-width="4.0" stroke-linejoin="round" stroke-linecap="butt" d="m38.88673 56.44226l10.859257 -18.81889l21.96653 0l10.859253 18.81889l-10.859253 18.818886l-21.96653 0z" fill-rule="evenodd"/><path fill="#000000" fill-opacity="0.0" d="m44.080223 34.97433l32.472443 0l0 31.622051l-32.472443 0z" fill-rule="evenodd"/><path fill="#ffffff" d="m55.8303 48.83183l9.53125 0l0 1.859375l-7.65625 0l0 3.75l6.53125 0l0 1.859375l-6.53125 0l0 3.71875l7.65625 0l0 1.875l-9.53125 0l0 -13.0625z" fill-rule="nonzero"/><path fill="#f1c232" d="m71.89606 37.469013l10.859261 -18.818888l21.966522 0l10.859253 18.818888l-10.859253 18.81889l-21.966522 0z" fill-rule="evenodd"/><path stroke="#e69138" stroke-width="4.0" stroke-linejoin="round" stroke-linecap="butt" d="m71.89606 37.469013l10.859261 -18.818888l21.966522 0l10.859253 18.818888l-10.859253 18.81889l-21.966522 0z" fill-rule="evenodd"/><path fill="#000000" fill-opacity="0.0" d="m77.778015 16.001085l32.472443 0l0 31.62205l-32.472443 0z" fill-rule="evenodd"/><path fill="#ffffff" d="m90.511955 29.858583l3.484375 4.890627l3.515625 -4.890627l2.25 0l-4.625 6.468752l4.734375 6.59375l-2.265625 0l-3.609375 -5.015625l-3.578125 5.015625l-2.25 0l4.71875 -6.59375l-4.625 -6.468752l2.25 0z" fill-rule="nonzero"/><path fill="#f1c232" d="m104.76873 57.19104l10.859261 -18.81889l21.966522 0l10.859253 18.81889l-10.859253 18.818886l-21.966522 0z" fill-rule="evenodd"/><path stroke="#e69138" stroke-width="4.0" stroke-linejoin="round" stroke-linecap="butt" d="m104.76873 57.19104l10.859261 -18.81889l21.966522 0l10.859253 18.81889l-10.859253 18.818886l-21.966522 0z" fill-rule="evenodd"/><path fill="#000000" fill-opacity="0.0" d="m110.534744 35.72311l32.472443 0l0 31.622044l-32.472443 0z" fill-rule="evenodd"/><path fill="#ffffff" d="m127.69258 49.58061l5.046875 13.0625l-1.875 0l-1.15625 -3.0l-5.890625 0l-1.15625 3.0l-1.859375 0l5.03125 -13.0625l1.859375 0zm-3.15625 8.1875l4.453125 0l-2.21875 -5.75l-2.234375 5.75z" fill-rule="nonzero"/><path fill="#f1c232" d="m137.96848 38.760323l10.859253 -18.818888l21.966522 0l10.859268 18.818888l-10.859268 18.81889l-21.966522 0z" fill-rule="evenodd"/><path stroke="#e69138" stroke-width="4.0" stroke-linejoin="round" stroke-linecap="butt" d="m137.96848 38.760323l10.859253 -18.818888l21.966522 0l10.859268 18.818888l-10.859268 18.81889l-21.966522 0z" fill-rule="evenodd"/><path fill="#000000" fill-opacity="0.0" d="m143.16197 17.292395l32.472443 0l0 31.62205l-32.472443 0z" fill-rule="evenodd"/><path fill="#ffffff" d="m153.98288 33.00927q0 -0.375 0.140625 -0.71875q0.15625 -0.3437519 0.40625 -0.5937519q0.265625 -0.25 0.59375 -0.390625q0.34375 -0.15625 0.734375 -0.15625l7.078125 0q0.390625 0 0.734375 0.15625q0.34375 0.140625 0.59375 0.390625q0.25 0.25 0.390625 0.5937519q0.15625 0.34375 0.15625 0.71875l0 1.6875l-1.875 0l0 -1.6875l-7.078125 0l0 9.328125l7.078125 0l0 -3.15625l-3.53125 0l0 -1.875l5.40625 0l0 5.03125q0 0.390625 -0.15625 0.734375q-0.140625 0.34375 -0.390625 0.59375q-0.25 0.25 -0.59375 0.40625q-0.34375 0.140625 -0.734375 0.140625l-7.078125 0q-0.390625 0 -0.734375 -0.140625q-0.328125 -0.15625 -0.59375 -0.40625q-0.25 -0.25 -0.40625 -0.59375q-0.140625 -0.34375 -0.140625 -0.734375l0 -9.328125z" fill-rule="nonzero"/><path fill="#f1c232" d="m170.92883 57.78499l10.859253 -18.818886l21.966537 0l10.859253 18.818886l-10.859253 18.818893l-21.966537 0z" fill-rule="evenodd"/><path stroke="#e69138" stroke-width="4.0" stroke-linejoin="round" stroke-linecap="butt" d="m170.92883 57.78499l10.859253 -18.818886l21.966537 0l10.859253 18.818886l-10.859253 18.818893l-21.966537 0z" fill-rule="evenodd"/><path fill="#000000" fill-opacity="0.0" d="m176.12233 36.317062l32.472443 0l0 31.622047l-32.472443 0z" fill-rule="evenodd"/><path fill="#ffffff" d="m197.99733 61.36206q0 0.390625 -0.15625 0.734375q-0.140625 0.34375 -0.40625 0.59375q-0.25 0.25 -0.59375 0.40625q-0.328125 0.140625 -0.71875 0.140625l-7.453125 0q-0.390625 0 -0.734375 -0.140625q-0.328125 -0.15625 -0.59375 -0.40625q-0.25 -0.25 -0.40625 -0.59375q-0.140625 -0.34375 -0.140625 -0.734375l0 -9.328125q0 -0.375 0.140625 -0.71875q0.15625 -0.34375 0.40625 -0.59375q0.265625 -0.25 0.59375 -0.390625q0.34375 -0.15625 0.734375 -0.15625l7.453125 0q0.390625 0 0.71875 0.15625q0.34375 0.140625 0.59375 0.390625q0.265625 0.25 0.40625 0.59375q0.15625 0.34375 0.15625 0.71875l0 9.328125zm-9.328125 -9.328125l0 9.328125l7.453125 0l0 -9.328125l-7.453125 0z" fill-rule="nonzero"/><path fill="#f1c232" d="m204.04143 38.929348l10.859253 -18.81889l21.966537 0l10.859253 18.81889l-10.859253 18.81889l-21.966537 0z" fill-rule="evenodd"/><path stroke="#e69138" stroke-width="4.0" stroke-linejoin="round" stroke-linecap="butt" d="m204.04143 38.929348l10.859253 -18.81889l21.966537 0l10.859253 18.81889l-10.859253 18.81889l-21.966537 0z" fill-rule="evenodd"/><path fill="#000000" fill-opacity="0.0" d="m209.04408 17.461418l32.472443 0l0 31.622047l-32.472443 0z" fill-rule="evenodd"/><path fill="#ffffff" d="m221.59096 44.381416l-1.875 0l0 -13.0625l1.875 0l7.84375 10.125l0 -10.125l1.875 0l0 13.0625l-1.875 0l-7.84375 -10.125l0 10.125z" fill-rule="nonzero"/><path fill="#f1c232" d="m236.5377 58.51465l10.859253 -18.81889l21.966537 0l10.859253 18.81889l-10.859253 18.818886l-21.966537 0z" fill-rule="evenodd"/><path stroke="#e69138" stroke-width="4.0" stroke-linejoin="round" stroke-linecap="butt" d="m236.5377 58.51465l10.859253 -18.81889l21.966537 0l10.859253 18.81889l-10.859253 18.818886l-21.966537 0z" fill-rule="evenodd"/><path fill="#000000" fill-opacity="0.0" d="m242.30371 37.04672l32.472443 0l0 31.622051l-32.472443 0z" fill-rule="evenodd"/><path fill="#ffffff" d="m259.46155 50.904217l5.046875 13.0625l-1.875 0l-1.15625 -3.0l-5.890625 0l-1.15625 3.0l-1.859375 0l5.03125 -13.0625l1.859375 0zm-3.15625 8.1875l4.453125 0l-2.21875 -5.75l-2.234375 5.75z" fill-rule="nonzero"/><path fill="#f1c232" d="m269.28574 38.792866l10.859253 -18.81889l21.966522 0l10.859253 18.81889l-10.859253 18.818886l-21.966522 0z" fill-rule="evenodd"/><path stroke="#e69138" stroke-width="4.0" stroke-linejoin="round" stroke-linecap="butt" d="m269.28574 38.792866l10.859253 -18.81889l21.966522 0l10.859253 18.81889l-10.859253 18.818886l-21.966522 0z" fill-rule="evenodd"/><path fill="#000000" fill-opacity="0.0" d="m274.8609 17.324936l32.472443 0l0 31.622047l-32.472443 0z" fill-rule="evenodd"/><path fill="#ffffff" d="m289.23297 31.182434l0 11.1875l6.703125 0l0 1.875l-8.578125 0l0 -13.0625l1.875 0z" fill-rule="nonzero"/></g></svg>