<svg version="1.1" viewBox="0.0 0.0 100.0 100.0" fill="none" stroke="none" stroke-linecap="square" stroke-miterlimit="10" xmlns:xlink="http://www.w3.org/1999/xlink" xmlns="http://www.w3.org/2000/svg"><clipPath id="p.0"><path d="m0 0l100.0 0l0 100.0l-100.0 0l0 -100.0z" clip-rule="nonzero"/></clipPath><g clip-path="url(#p.0)"><path fill="#000000" fill-opacity="0.0" d="m0 0l100.0 0l0 100.0l-100.0 0z" fill-rule="evenodd"/><path fill="#f1c232" d="m6.0998654 38.33465l10.859257 -18.818888l21.966526 0l10.859257 18.818888l-10.859257 18.81889l-21.966526 0z" fill-rule="evenodd"/><path stroke="#e69138" stroke-width="4.0" stroke-linejoin="round" stroke-linecap="butt" d="m6.0998654 38.33465l10.859257 -18.818888l21.966526 0l10.859257 18.818888l-10.859257 18.81889l-21.966526 0z" fill-rule="evenodd"/><path fill="#000000" fill-opacity="0.0" d="m10.664428 16.86672l32.47244 0l0 31.622046l-32.47244 0z" fill-rule="evenodd"/><path fill="#ffffff" d="m32.555054 30.724218l0 13.062498l-1.875 0l0 -5.59375l-7.46875 0l0 5.59375l-1.875 0l0 -13.062498l1.875 0l0 5.609373l7.46875 0l0 -5.609373l1.875 0z" fill-rule="nonzero"/></g></svg>