<svg version="1.1" viewBox="0.0 0.0 100.0 100.0" fill="none" stroke="none" stroke-linecap="square" stroke-miterlimit="10" xmlns:xlink="http://www.w3.org/1999/xlink" xmlns="http://www.w3.org/2000/svg"><clipPath id="p.0"><path d="m0 0l100.0 0l0 100.0l-100.0 0l0 -100.0z" clip-rule="nonzero"/></clipPath><g clip-path="url(#p.0)"><path fill="#000000" fill-opacity="0.0" d="m0 0l100.0 0l0 100.0l-100.0 0z" fill-rule="evenodd"/><path fill="#000000" d="m8.361904 47.641155l0 0c0 -22.99592 18.641876 -41.637794 41.637794 -41.637794l0 0c11.04303 0 21.63377 4.3868265 29.442371 12.195428c7.8086014 7.8086014 12.195427 18.399338 12.195427 29.442368l0 0c0 22.995922 -18.641876 41.6378 -41.6378 41.6378l0 0c-22.995918 0 -41.637794 -18.641876 -41.637794 -41.6378zm3.8056946 0l0 0c0 20.894093 16.93801 37.832104 37.8321 37.832104c20.894093 0 37.832104 -16.938011 37.832104 -37.832104l0 0c0 -20.894093 -16.938011 -37.8321 -37.832104 -37.8321l0 0c-20.89409 0 -37.8321 16.938007 -37.8321 37.8321z" fill-rule="evenodd"/><path fill="#000000" fill-opacity="0.0" d="m20.215223 -0.5569176l65.07086 0l0 96.94488l-65.07086 0z" fill-rule="evenodd"/><path fill="#000000" d="m52.68397 58.070583l-7.96875 0q-0.03125 -1.71875 -0.03125 -2.09375q0 -3.875 1.28125 -6.375q1.28125 -2.5 5.125 -5.625q3.84375 -3.125 4.59375 -4.09375q1.15625 -1.53125 1.15625 -3.375q0 -2.5625 -2.046875 -4.390625q-2.046875 -1.8281231 -5.515625 -1.8281231q-3.34375 0 -5.59375 1.9062481q-2.25 1.90625 -3.09375 5.8125l-8.0625 -1.0q0.34375 -5.593748 4.765625 -9.499998q4.421875 -3.90625 11.609375 -3.90625q7.5625 0 12.03125 3.953125q4.468754 3.953125 4.468754 9.203123q0 2.90625 -1.6406288 5.5q-1.640625 2.59375 -7.015625 7.0625q-2.78125 2.3125 -3.453125 3.71875q-0.671875 1.40625 -0.609375 5.03125zm-7.96875 11.812504l0 -8.781254l8.78125 0l0 8.781254l-8.78125 0z" fill-rule="nonzero"/></g></svg>