<svg version="1.1" viewBox="0.0 0.0 740.0 772.0" fill="none" stroke="none" stroke-linecap="square" stroke-miterlimit="10" xmlns:xlink="http://www.w3.org/1999/xlink" xmlns="http://www.w3.org/2000/svg"><clipPath id="p.0"><path d="m0 0l740.0 0l0 772.0l-740.0 0l0 -772.0z" clip-rule="nonzero"/></clipPath><g clip-path="url(#p.0)"><path fill="#000000" fill-opacity="0.0" d="m0 0l740.0 0l0 772.0l-740.0 0z" fill-rule="evenodd"/><path fill="#0000ff" d="m330.8943 405.19885l22.654358 -39.33731l46.785767 -0.16000366l22.654358 39.182343l-22.654358 39.33731l-46.785767 0.16000366z" fill-rule="evenodd"/><path fill="#0000ff" d="m331.10556 560.86816l22.654388 -39.33734l46.785736 -0.15997314l22.654358 39.182312l-22.654358 39.33734l-46.785736 0.15997314z" fill-rule="evenodd"/><path fill="#0000ff" d="m331.10556 638.7028l22.654388 -39.33734l46.785736 -0.15997314l22.654358 39.182312l-22.654358 39.33734l-46.785736 0.15997314z" fill-rule="evenodd"/><path fill="#0000ff" d="m399.68298 599.86816l22.654388 -39.33734l46.785736 -0.15997314l22.654388 39.182312l-22.654388 39.33734l-46.785736 0.15997314z" fill-rule="evenodd"/><path fill="#0000ff" d="m262.10556 600.28546l22.654388 -39.33728l46.785736 -0.16003418l22.654358 39.182373l-22.654358 39.33728l-46.785736 0.16003418z" fill-rule="evenodd"/><path fill="#0000ff" d="m193.10558 639.7028l22.654358 -39.33734l46.78575 -0.15997314l22.654358 39.182312l-22.654358 39.33734l-46.78575 0.15997314z" fill-rule="evenodd"/><path fill="#0000ff" d="m330.8943 327.2263l22.654358 -39.33731l46.785767 -0.16000366l22.654358 39.182343l-22.654358 39.33731l-46.785767 0.16000366z" fill-rule="evenodd"/><path fill="#0000ff" d="m330.8943 249.39163l22.654358 -39.337296l46.785767 -0.16001892l22.654358 39.182358l-22.654358 39.337296l-46.785767 0.16000366z" fill-rule="evenodd"/><path fill="#0000ff" d="m330.8943 171.55699l22.654358 -39.33731l46.785767 -0.16000366l22.654358 39.182343l-22.654358 39.33731l-46.785767 0.16000366z" fill-rule="evenodd"/><path fill="#0000ff" d="m261.8943 209.9743l22.654358 -39.337296l46.785767 -0.16000366l22.654358 39.182343l-22.654358 39.337296l-46.785767 0.16001892z" fill-rule="evenodd"/><path fill="#0000ff" d="m262.10556 678.1201l22.654388 -39.33728l46.785736 -0.16003418l22.654358 39.182373l-22.654358 39.33728l-46.785736 0.16003418z" fill-rule="evenodd"/><path fill="#0000ff" d="m399.68298 678.1201l22.654388 -39.33728l46.785736 -0.16003418l22.654388 39.182373l-22.654388 39.33728l-46.785736 0.16003418z" fill-rule="evenodd"/><path fill="#0000ff" d="m468.10556 639.7028l22.654388 -39.33734l46.785767 -0.15997314l22.654358 39.182312l-22.654358 39.33734l-46.785767 0.15997314z" fill-rule="evenodd"/><path fill="#0000ff" d="m124.52814 678.1201l22.654373 -39.33728l46.78575 -0.16003418l22.654373 39.182373l-22.654373 39.33728l-46.78575 0.16003418z" fill-rule="evenodd"/><path fill="#0000ff" d="m537.26044 678.1201l22.654358 -39.33728l46.785767 -0.16003418l22.654358 39.182373l-22.654358 39.33728l-46.785767 0.16003418z" fill-rule="evenodd"/><path fill="#0000ff" d="m331.10425 483.0335l22.654388 -39.33731l46.785736 -0.16000366l22.654358 39.182343l-22.654358 39.33731l-46.785736 0.15997314z" fill-rule="evenodd"/><path fill="#0000ff" d="m124.526825 209.9743l22.654373 -39.337296l46.78575 -0.16000366l22.654373 39.182343l-22.654373 39.337296l-46.78575 0.16001892z" fill-rule="evenodd"/><path fill="#0000ff" d="m193.21056 171.55699l22.654373 -39.33731l46.785736 -0.16000366l22.654388 39.182343l-22.654388 39.33731l-46.785736 0.16000366z" fill-rule="evenodd"/><path fill="#0000ff" d="m262.10425 132.48874l22.654388 -39.337296l46.785736 -0.16000366l22.654358 39.182343l-22.654358 39.33731l-46.785736 0.16000366z" fill-rule="evenodd"/><path fill="#0000ff" d="m331.10425 94.19293l22.654388 -39.337303l46.785736 -0.16000748l22.654358 39.182346l-22.654358 39.337303l-46.785736 0.16000366z" fill-rule="evenodd"/><path fill="#0000ff" d="m537.26044 599.86816l22.654358 -39.33734l46.785767 -0.15997314l22.654358 39.182312l-22.654358 39.33734l-46.785767 0.15997314z" fill-rule="evenodd"/><path fill="#0000ff" d="m124.52814 600.28546l22.654373 -39.33728l46.78575 -0.16003418l22.654373 39.182373l-22.654373 39.33728l-46.78575 0.16003418z" fill-rule="evenodd"/><path fill="#0000ff" d="m193.07349 249.73491l22.768906 -39.370087l46.619675 0l22.76889 39.370087z" fill-rule="evenodd"/><path fill="#0000ff" d="m399.68298 521.9508l22.654388 -39.33728l46.785736 -0.16000366l22.654388 39.182343l-22.654388 39.33728l-46.785736 0.16003418z" fill-rule="evenodd"/><path fill="#0000ff" d="m262.10556 521.9508l22.654388 -39.33728l46.785736 -0.16000366l22.654358 39.182343l-22.654358 39.33728l-46.785736 0.16003418z" fill-rule="evenodd"/><path fill="#0000ff" d="m262.10556 444.04663l22.654388 -39.33731l46.785736 -0.16000366l22.654358 39.182343l-22.654358 39.33731l-46.785736 0.16000366z" fill-rule="evenodd"/><path fill="#0000ff" d="m262.10556 366.21198l22.654388 -39.33731l46.785736 -0.16000366l22.654358 39.182343l-22.654358 39.33731l-46.785736 0.16000366z" fill-rule="evenodd"/><path fill="#0000ff" d="m261.8956 288.37732l22.654358 -39.337296l46.785767 -0.16000366l22.654358 39.182358l-22.654358 39.33728l-46.785767 0.16003418z" fill-rule="evenodd"/><path fill="#0000ff" d="m399.68298 444.04663l22.654388 -39.33731l46.785736 -0.16000366l22.654388 39.182343l-22.654388 39.33731l-46.785736 0.16000366z" fill-rule="evenodd"/><path fill="#0000ff" d="m399.68298 366.21198l22.654388 -39.33731l46.785736 -0.16000366l22.654388 39.182343l-22.654388 39.33731l-46.785736 0.16000366z" fill-rule="evenodd"/><path fill="#0000ff" d="m399.26306 288.37732l22.654358 -39.337296l46.785736 -0.16000366l22.654388 39.182358l-22.654388 39.33728l-46.785736 0.16003418z" fill-rule="evenodd"/><path fill="#0000ff" d="m399.68298 210.70935l22.654388 -39.337296l46.785736 -0.16000366l22.654388 39.182343l-22.654388 39.337296l-46.785736 0.16000366z" fill-rule="evenodd"/><path fill="#0000ff" d="m399.68298 132.56894l22.654388 -39.33731l46.785736 -0.16000366l22.654388 39.182343l-22.654388 39.33731l-46.785736 0.16000366z" fill-rule="evenodd"/><path fill="#0000ff" d="m193.20924 249.35095l22.654373 -39.33731l46.785736 -0.16000366l22.654388 39.182358l-22.654388 39.337296l-46.785736 0.16000366z" fill-rule="evenodd"/></g></svg>