<svg version="1.1" viewBox="0.0 0.0 740.0 772.0" fill="none" stroke="none" stroke-linecap="square" stroke-miterlimit="10" xmlns:xlink="http://www.w3.org/1999/xlink" xmlns="http://www.w3.org/2000/svg"><clipPath id="p.0"><path d="m0 0l740.0 0l0 772.0l-740.0 0l0 -772.0z" clip-rule="nonzero"/></clipPath><g clip-path="url(#p.0)"><path fill="#000000" fill-opacity="0.0" d="m0 0l740.0 0l0 772.0l-740.0 0z" fill-rule="evenodd"/><path fill="#5d00e6" d="m457.9074 444.5427l22.654358 -39.33731l46.785767 -0.16000366l22.654358 39.182343l-22.654358 39.33731l-46.785767 0.16000366z" fill-rule="evenodd"/><path fill="#5d00e6" d="m458.11868 600.212l22.654388 -39.33728l46.785767 -0.16003418l22.654358 39.182373l-22.654358 39.33728l-46.785767 0.16003418z" fill-rule="evenodd"/><path fill="#5d00e6" d="m458.11868 678.04663l22.654388 -39.33728l46.785767 -0.16003418l22.654358 39.182373l-22.654358 39.33728l-46.785767 0.15997314z" fill-rule="evenodd"/><path fill="#5d00e6" d="m526.6961 639.212l22.654358 -39.33728l46.785767 -0.16003418l22.654358 39.182373l-22.654358 39.33728l-46.785767 0.16003418z" fill-rule="evenodd"/><path fill="#5d00e6" d="m389.11868 639.6293l22.654388 -39.33728l46.785736 -0.15997314l22.654358 39.182312l-22.654358 39.33728l-46.785736 0.16003418z" fill-rule="evenodd"/><path fill="#5d00e6" d="m457.9074 366.5701l22.654358 -39.33728l46.785767 -0.16000366l22.654358 39.182343l-22.654358 39.33728l-46.785767 0.16000366z" fill-rule="evenodd"/><path fill="#5d00e6" d="m457.9074 288.73547l22.654358 -39.33731l46.785767 -0.16000366l22.654358 39.182343l-22.654358 39.33731l-46.785767 0.16000366z" fill-rule="evenodd"/><path fill="#5d00e6" d="m457.9074 210.90082l22.654358 -39.337296l46.785767 -0.16001892l22.654358 39.182358l-22.654358 39.337296l-46.785767 0.16000366z" fill-rule="evenodd"/><path fill="#5d00e6" d="m388.9074 249.31815l22.654358 -39.33731l46.785767 -0.16000366l22.654358 39.182343l-22.654358 39.33731l-46.785767 0.16000366z" fill-rule="evenodd"/><path fill="#5d00e6" d="m389.11868 717.4639l22.654388 -39.33728l46.785736 -0.16003418l22.654358 39.182373l-22.654358 39.33728l-46.785736 0.16003418z" fill-rule="evenodd"/><path fill="#5d00e6" d="m526.6961 717.4639l22.654358 -39.33728l46.785767 -0.16003418l22.654358 39.182373l-22.654358 39.33728l-46.785767 0.16003418z" fill-rule="evenodd"/><path fill="#5d00e6" d="m596.08563 444.3717l22.654419 -39.33728l46.785706 -0.16003418l22.654358 39.182373l-22.654358 39.33728l-46.785706 0.16000366z" fill-rule="evenodd"/><path fill="#5d00e6" d="m458.11737 522.3773l22.654388 -39.33728l46.785736 -0.16000366l22.654358 39.182343l-22.654358 39.33728l-46.785736 0.16003418z" fill-rule="evenodd"/><path fill="#5d00e6" d="m389.11737 171.83258l22.654388 -39.33731l46.785736 -0.16000366l22.654358 39.182343l-22.654358 39.33731l-46.785736 0.16000366z" fill-rule="evenodd"/><path fill="#5d00e6" d="m458.11737 133.53676l22.654388 -39.337296l46.785736 -0.16001129l22.654358 39.18235l-22.654358 39.337296l-46.785736 0.16000366z" fill-rule="evenodd"/><path fill="#5d00e6" d="m595.23096 366.97446l22.654358 -39.33731l46.785767 -0.16000366l22.654358 39.182343l-22.654358 39.33731l-46.785767 0.16000366z" fill-rule="evenodd"/><path fill="#5d00e6" d="m526.6961 561.2947l22.654358 -39.33734l46.785767 -0.15997314l22.654358 39.182312l-22.654358 39.33734l-46.785767 0.15997314z" fill-rule="evenodd"/><path fill="#5d00e6" d="m389.11868 561.2947l22.654388 -39.33734l46.785736 -0.15997314l22.654358 39.182312l-22.654358 39.33734l-46.785736 0.15997314z" fill-rule="evenodd"/><path fill="#5d00e6" d="m389.11868 483.39044l22.654388 -39.33728l46.785736 -0.16000366l22.654358 39.182343l-22.654358 39.33728l-46.785736 0.16003418z" fill-rule="evenodd"/><path fill="#5d00e6" d="m389.11868 405.55582l22.654388 -39.33731l46.785736 -0.16000366l22.654358 39.182343l-22.654358 39.33731l-46.785736 0.16000366z" fill-rule="evenodd"/><path fill="#5d00e6" d="m388.90872 327.72116l22.654358 -39.33731l46.785767 -0.16000366l22.654358 39.182343l-22.654358 39.33731l-46.785767 0.16000366z" fill-rule="evenodd"/><path fill="#5d00e6" d="m526.6961 483.39044l22.654358 -39.33728l46.785767 -0.16000366l22.654358 39.182343l-22.654358 39.33728l-46.785767 0.16003418z" fill-rule="evenodd"/><path fill="#5d00e6" d="m526.6961 405.55582l22.654358 -39.33731l46.785767 -0.16000366l22.654358 39.182343l-22.654358 39.33731l-46.785767 0.16000366z" fill-rule="evenodd"/><path fill="#5d00e6" d="m526.2762 327.72116l22.654358 -39.33731l46.785767 -0.16000366l22.654358 39.182343l-22.654358 39.33731l-46.785767 0.16000366z" fill-rule="evenodd"/><path fill="#5d00e6" d="m526.6961 250.05319l22.654358 -39.33731l46.785767 -0.16000366l22.654358 39.182343l-22.654358 39.33731l-46.785767 0.16000366z" fill-rule="evenodd"/><path fill="#5d00e6" d="m526.6961 171.91277l22.654358 -39.337296l46.785767 -0.16001892l22.654358 39.182358l-22.654358 39.337296l-46.785767 0.16000366z" fill-rule="evenodd"/><path fill="#5d00e6" d="m389.51086 93.44891l22.654358 -39.337303l46.785736 -0.16000366l22.654388 39.182343l-22.654388 39.337303l-46.785736 0.16000366z" fill-rule="evenodd"/><path fill="#5d00e6" d="m458.51086 55.153095l22.654358 -39.3373l46.785767 -0.16000652l22.654358 39.182346l-22.654358 39.337303l-46.785767 0.16000366z" fill-rule="evenodd"/><path fill="#5d00e6" d="m527.0896 93.5291l22.654358 -39.3373l46.785767 -0.16000366l22.654358 39.182346l-22.654358 39.337296l-46.785767 0.16000366z" fill-rule="evenodd"/><path fill="#5d00e6" d="m320.27994 366.42026l22.654358 -39.33728l46.785767 -0.16000366l22.654358 39.182343l-22.654358 39.33728l-46.785767 0.16003418z" fill-rule="evenodd"/><path fill="#5d00e6" d="m181.3115 367.21692l22.654373 -39.33731l46.78575 -0.16000366l22.654358 39.182343l-22.654358 39.33731l-46.78575 0.16000366z" fill-rule="evenodd"/><path fill="#5d00e6" d="m182.2169 289.36526l22.654373 -39.33731l46.78575 -0.16000366l22.654373 39.182343l-22.654373 39.33731l-46.78575 0.16000366z" fill-rule="evenodd"/><path fill="#5d00e6" d="m181.47766 212.10289l22.654358 -39.337296l46.78575 -0.16000366l22.654373 39.182343l-22.654373 39.337296l-46.78575 0.16000366z" fill-rule="evenodd"/><path fill="#5d00e6" d="m112.47765 251.2721l22.654366 -39.337296l46.78575 -0.16000366l22.654373 39.182343l-22.654373 39.337296l-46.78575 0.16000366z" fill-rule="evenodd"/><path fill="#5d00e6" d="m112.68763 173.03465l22.654366 -39.337296l46.78575 -0.16001892l22.654373 39.182358l-22.654373 39.337296l-46.78575 0.16000366z" fill-rule="evenodd"/><path fill="#5d00e6" d="m181.68762 133.98695l22.654373 -39.337303l46.78575 -0.16000366l22.654358 39.18235l-22.654358 39.337296l-46.78575 0.16000366z" fill-rule="evenodd"/><path fill="#5d00e6" d="m182.0811 55.60329l22.654358 -39.3373l46.785767 -0.16000748l22.654373 39.182346l-22.654373 39.337303l-46.785767 0.16000366z" fill-rule="evenodd"/><path fill="#5d00e6" d="m250.26637 171.61108l22.654373 -39.33731l46.785736 -0.16000366l22.654388 39.182343l-22.654388 39.33731l-46.785736 0.16000366z" fill-rule="evenodd"/><path fill="#5d00e6" d="m250.65984 93.979294l22.654373 -39.3373l46.785736 -0.16000748l22.654388 39.18235l-22.654388 39.337296l-46.785736 0.16000366z" fill-rule="evenodd"/><path fill="#5d00e6" d="m181.31342 288.3696l22.654358 -39.337296l46.78575 -0.16000366l22.654373 39.182358l-22.654373 39.33728l-46.78575 0.16003418z" fill-rule="evenodd"/><path fill="#5d00e6" d="m112.47877 328.77484l22.654366 -39.33728l46.78575 -0.16000366l22.654373 39.182343l-22.654373 39.33731l-46.78575 0.16000366z" fill-rule="evenodd"/><path fill="#5d00e6" d="m42.793724 290.26553l22.654366 -39.337296l46.78576 -0.16000366l22.654366 39.182327l-22.654366 39.33731l-46.78576 0.16000366z" fill-rule="evenodd"/><path fill="#5d00e6" d="m182.2188 445.49432l22.654373 -39.33731l46.78575 -0.16000366l22.654373 39.182343l-22.654373 39.33731l-46.78575 0.16000366z" fill-rule="evenodd"/><path fill="#5d00e6" d="m320.06393 444.50745l22.654358 -39.33731l46.785767 -0.16000366l22.654358 39.182343l-22.654358 39.33731l-46.785767 0.16000366z" fill-rule="evenodd"/><path fill="#5d00e6" d="m43.312717 368.24866l22.65437 -39.33731l46.78575 -0.16000366l22.654373 39.182343l-22.654373 39.33731l-46.78575 0.16000366z" fill-rule="evenodd"/><path fill="#5d00e6" d="m250.65959 405.42407l22.654373 -39.33731l46.785736 -0.16000366l22.654358 39.182373l-22.654358 39.33728l-46.785736 0.16000366z" fill-rule="evenodd"/><path fill="#5d00e6" d="m112.633415 407.19855l22.654366 -39.33731l46.78575 -0.16000366l22.654373 39.182343l-22.654373 39.33731l-46.78575 0.16000366z" fill-rule="evenodd"/><path fill="#5d00e6" d="m45.446342 445.4925l22.654366 -39.33731l46.78575 -0.16000366l22.654373 39.182343l-22.654373 39.33731l-46.78575 0.16000366z" fill-rule="evenodd"/></g></svg>