<svg version="1.1" viewBox="0.0 0.0 740.0 772.0" fill="none" stroke="none" stroke-linecap="square" stroke-miterlimit="10" xmlns:xlink="http://www.w3.org/1999/xlink" xmlns="http://www.w3.org/2000/svg"><clipPath id="p.0"><path d="m0 0l740.0 0l0 772.0l-740.0 0l0 -772.0z" clip-rule="nonzero"/></clipPath><g clip-path="url(#p.0)"><path fill="#000000" fill-opacity="0.0" d="m0 0l740.0 0l0 772.0l-740.0 0z" fill-rule="evenodd"/><path fill="#000000" d="m384.79242 119.51419l22.654358 -39.337303l46.785767 -0.16000366l22.654358 39.182343l-22.654358 39.337303l-46.785767 0.16000366z" fill-rule="evenodd"/><path fill="#000000" d="m453.36984 80.67954l22.654388 -39.3373l46.785767 -0.16000748l22.654358 39.18235l-22.654358 39.337296l-46.785767 0.16001129z" fill-rule="evenodd"/><path fill="#000000" d="m315.79242 81.09687l22.654358 -39.337307l46.785767 -0.16000366l22.654358 39.182346l-22.654358 39.337303l-46.785767 0.16000366z" fill-rule="evenodd"/><path fill="#000000" d="m246.79242 120.51419l22.654358 -39.337303l46.785767 -0.16000366l22.654358 39.182343l-22.654358 39.337303l-46.785767 0.16000366z" fill-rule="evenodd"/><path fill="#000000" d="m315.79242 158.93152l22.654358 -39.33731l46.785767 -0.16000366l22.654358 39.182343l-22.654358 39.33731l-46.785767 0.16000366z" fill-rule="evenodd"/><path fill="#000000" d="m453.36984 158.93152l22.654388 -39.33731l46.785767 -0.16000366l22.654358 39.182343l-22.654358 39.33731l-46.785767 0.16000366z" fill-rule="evenodd"/><path fill="#000000" d="m521.7924 120.51419l22.654358 -39.337303l46.785767 -0.16000366l22.654358 39.182343l-22.654358 39.337303l-46.785767 0.16000366z" fill-rule="evenodd"/><path fill="#000000" d="m178.215 158.93152l22.654373 -39.33731l46.78575 -0.16000366l22.654358 39.182343l-22.654358 39.33731l-46.78575 0.16000366z" fill-rule="evenodd"/><path fill="#000000" d="m590.94727 158.93152l22.654358 -39.33731l46.785767 -0.16000366l22.654358 39.182343l-22.654358 39.33731l-46.785767 0.16000366z" fill-rule="evenodd"/><path fill="#000000" d="m521.94727 196.24254l22.654358 -39.33731l46.785767 -0.16000366l22.654358 39.182358l-22.654358 39.337296l-46.785767 0.16000366z" fill-rule="evenodd"/><path fill="#000000" d="m178.215 81.09687l22.654373 -39.337307l46.78575 -0.16000366l22.654358 39.182346l-22.654358 39.337303l-46.78575 0.16000366z" fill-rule="evenodd"/><path fill="#000000" d="m109.06589 120.51419l22.654373 -39.337303l46.78575 -0.16000366l22.654358 39.182343l-22.654358 39.337303l-46.78575 0.16000366z" fill-rule="evenodd"/><path fill="#000000" d="m40.48846 158.93152l22.65437 -39.33731l46.78575 -0.16000366l22.654366 39.182343l-22.654366 39.33731l-46.78575 0.16000366z" fill-rule="evenodd"/><path fill="#000000" d="m384.79242 350.63998l22.654358 -39.33731l46.785767 -0.16000366l22.654358 39.182343l-22.654358 39.33731l-46.785767 0.16000366z" fill-rule="evenodd"/><path fill="#000000" d="m453.36984 311.80533l22.654388 -39.33728l46.785767 -0.16000366l22.654358 39.182343l-22.654358 39.33728l-46.785767 0.16003418z" fill-rule="evenodd"/><path fill="#000000" d="m315.79242 312.22266l22.654358 -39.33728l46.785767 -0.16003418l22.654358 39.182373l-22.654358 39.33728l-46.785767 0.16000366z" fill-rule="evenodd"/><path fill="#000000" d="m246.79242 351.63998l22.654358 -39.33731l46.785767 -0.16000366l22.654358 39.182343l-22.654358 39.33731l-46.785767 0.16000366z" fill-rule="evenodd"/><path fill="#000000" d="m315.79242 390.0573l22.654358 -39.33731l46.785767 -0.16000366l22.654358 39.182343l-22.654358 39.33731l-46.785767 0.16000366z" fill-rule="evenodd"/><path fill="#000000" d="m453.36984 390.0573l22.654388 -39.33731l46.785767 -0.16000366l22.654358 39.182343l-22.654358 39.33731l-46.785767 0.16000366z" fill-rule="evenodd"/><path fill="#000000" d="m521.7924 351.63998l22.654358 -39.33731l46.785767 -0.16000366l22.654358 39.182343l-22.654358 39.33731l-46.785767 0.16000366z" fill-rule="evenodd"/><path fill="#000000" d="m178.215 390.0573l22.654373 -39.33731l46.78575 -0.16000366l22.654358 39.182343l-22.654358 39.33731l-46.78575 0.16000366z" fill-rule="evenodd"/><path fill="#000000" d="m178.215 312.22266l22.654373 -39.33728l46.78575 -0.16003418l22.654358 39.182373l-22.654358 39.33728l-46.78575 0.16000366z" fill-rule="evenodd"/><path fill="#000000" d="m110.25636 352.83047l22.654373 -39.33731l46.78575 -0.16000366l22.654373 39.182343l-22.654373 39.33731l-46.78575 0.16000366z" fill-rule="evenodd"/><path fill="#000000" d="m40.48846 392.43826l22.65437 -39.33731l46.78575 -0.16000366l22.654366 39.182343l-22.654366 39.33731l-46.78575 0.16000366z" fill-rule="evenodd"/><path fill="#000000" d="m40.48846 314.6036l22.65437 -39.33728l46.78575 -0.16000366l22.654366 39.182343l-22.654366 39.33728l-46.78575 0.16000366z" fill-rule="evenodd"/><path fill="#000000" d="m383.66528 665.0348l22.654358 -39.33728l46.785767 -0.15997314l22.654358 39.182312l-22.654358 39.33728l-46.785767 0.16003418z" fill-rule="evenodd"/><path fill="#000000" d="m452.2427 626.2002l22.654358 -39.33734l46.785736 -0.15997314l22.654419 39.182312l-22.654419 39.33734l-46.785736 0.15997314z" fill-rule="evenodd"/><path fill="#000000" d="m314.66528 626.6175l22.654358 -39.33728l46.785767 -0.16003418l22.654358 39.182373l-22.654358 39.33728l-46.785767 0.16003418z" fill-rule="evenodd"/><path fill="#000000" d="m245.66528 666.0348l22.654358 -39.33728l46.785767 -0.15997314l22.654358 39.182312l-22.654358 39.33728l-46.785767 0.16003418z" fill-rule="evenodd"/><path fill="#000000" d="m314.66528 704.45215l22.654358 -39.33728l46.785767 -0.16003418l22.654358 39.182373l-22.654358 39.33728l-46.785767 0.15997314z" fill-rule="evenodd"/><path fill="#000000" d="m452.2427 704.45215l22.654358 -39.33728l46.785736 -0.16003418l22.654419 39.182373l-22.654419 39.33728l-46.785736 0.15997314z" fill-rule="evenodd"/><path fill="#000000" d="m520.30255 663.6396l22.654358 -39.33728l46.785767 -0.16003418l22.654358 39.182373l-22.654358 39.33728l-46.785767 0.16003418z" fill-rule="evenodd"/><path fill="#000000" d="m177.08784 704.45215l22.654373 -39.33728l46.78575 -0.16003418l22.654373 39.182373l-22.654373 39.33728l-46.78575 0.15997314z" fill-rule="evenodd"/><path fill="#000000" d="m177.08784 626.6175l22.654373 -39.33728l46.78575 -0.16003418l22.654373 39.182373l-22.654373 39.33728l-46.78575 0.16003418z" fill-rule="evenodd"/><path fill="#000000" d="m107.93874 666.0348l22.654366 -39.33728l46.78575 -0.15997314l22.654373 39.182312l-22.654373 39.33728l-46.78575 0.16003418z" fill-rule="evenodd"/><path fill="#000000" d="m39.361313 626.6175l22.65437 -39.33728l46.785755 -0.16003418l22.654358 39.182373l-22.654358 39.33728l-46.785755 0.16003418z" fill-rule="evenodd"/><path fill="#000000" d="m109.63757 276.03296l22.654358 -39.33731l46.785767 -0.16000366l22.654358 39.182343l-22.654358 39.33731l-46.785767 0.16000366z" fill-rule="evenodd"/><path fill="#000000" d="m109.63757 198.1983l22.654358 -39.337296l46.785767 -0.16001892l22.654358 39.182358l-22.654358 39.337296l-46.785767 0.16000366z" fill-rule="evenodd"/><path fill="#000000" d="m40.48846 237.02739l22.65437 -39.337296l46.78575 -0.16000366l22.654366 39.182343l-22.654366 39.33731l-46.78575 0.16000366z" fill-rule="evenodd"/><path fill="#000000" d="m589.5085 546.63763l22.654419 -39.33728l46.785706 -0.16000366l22.654358 39.182343l-22.654358 39.33728l-46.785706 0.16003418z" fill-rule="evenodd"/><path fill="#000000" d="m589.5072 468.803l22.654358 -39.33731l46.785767 -0.16000366l22.654358 39.182343l-22.654358 39.33731l-46.785767 0.16000366z" fill-rule="evenodd"/><path fill="#000000" d="m521.8243 507.72034l22.654358 -39.33731l46.785767 -0.16000366l22.654358 39.182343l-22.654358 39.33731l-46.785767 0.15997314z" fill-rule="evenodd"/><path fill="#000000" d="m521.8243 429.81613l22.654358 -39.33731l46.785767 -0.16000366l22.654358 39.182343l-22.654358 39.33731l-46.785767 0.16000366z" fill-rule="evenodd"/><path fill="#000000" d="m588.9145 624.8849l22.654419 -39.33734l46.785706 -0.15997314l22.654358 39.182312l-22.654358 39.33734l-46.785706 0.15997314z" fill-rule="evenodd"/><path fill="#000000" d="m521.2303 585.9675l22.654358 -39.33728l46.785767 -0.16003418l22.654358 39.182373l-22.654358 39.33728l-46.785767 0.16003418z" fill-rule="evenodd"/><path fill="#000000" d="m590.9487 390.71854l22.654358 -39.33728l46.785767 -0.16003418l22.654358 39.182373l-22.654358 39.33728l-46.785767 0.16000366z" fill-rule="evenodd"/><path fill="#000000" d="m108.45434 587.86444l22.654366 -39.33728l46.78575 -0.16003418l22.654373 39.182373l-22.654373 39.33728l-46.78575 0.16003418z" fill-rule="evenodd"/><path fill="#000000" d="m39.87691 548.44714l22.65437 -39.33731l46.78575 -0.16000366l22.654373 39.182373l-22.654373 39.33728l-46.78575 0.15997314z" fill-rule="evenodd"/><path fill="#000000" d="m109.026024 509.87646l22.654366 -39.33731l46.78575 -0.16000366l22.654373 39.182373l-22.654373 39.33728l-46.78575 0.16003418z" fill-rule="evenodd"/><path fill="#000000" d="m39.87691 470.8709l22.65437 -39.33731l46.78575 -0.16000366l22.654373 39.182343l-22.654373 39.33731l-46.78575 0.16000366z" fill-rule="evenodd"/><path fill="#000000" d="m108.56956 428.72568l23.314537 -42.142303l45.906357 -0.15625l23.31453 41.983612l-23.31453 42.142334l-45.906357 0.15625z" fill-rule="evenodd"/><path fill="#000000" d="m86.121216 378.1236l30.07859 -52.231476l83.49636 -0.2929077l30.078583 52.020447l-30.078583 52.231476l-83.49636 0.2929077z" fill-rule="evenodd"/><path fill="#000000" d="m178.1402 390.71872l22.654358 -39.33728l46.785767 -0.16003418l22.654358 39.182373l-22.654358 39.33728l-46.785767 0.16000366z" fill-rule="evenodd"/><path fill="#000000" d="m84.99321 450.63736l22.654373 -39.33731l46.78575 -0.16000366l22.654373 39.182343l-22.654373 39.33731l-46.78575 0.16000366z" fill-rule="evenodd"/></g></svg>