<svg version="1.1" viewBox="0.0 0.0 740.0 772.0" fill="none" stroke="none" stroke-linecap="square" stroke-miterlimit="10" xmlns:xlink="http://www.w3.org/1999/xlink" xmlns="http://www.w3.org/2000/svg"><clipPath id="p.0"><path d="m0 0l740.0 0l0 772.0l-740.0 0l0 -772.0z" clip-rule="nonzero"/></clipPath><g clip-path="url(#p.0)"><path fill="#000000" fill-opacity="0.0" d="m0 0l740.0 0l0 772.0l-740.0 0z" fill-rule="evenodd"/><path fill="#ff0000" d="m36.40945 379.07086l0 0c0 -186.08081 150.84831 -336.92914 336.92914 -336.92914l0 0c89.35916 0 175.05838 35.497787 238.24484 98.68426c63.186462 63.186478 98.684265 148.88571 98.684265 238.24487l0 0c0 186.08081 -150.84827 336.92914 -336.9291 336.92914l0 0c-186.08083 0 -336.92914 -150.84833 -336.92914 -336.92914z" fill-rule="evenodd"/><path stroke="#ffffff" stroke-width="24.0" stroke-linejoin="round" stroke-linecap="butt" d="m36.40945 379.07086l0 0c0 -186.08081 150.84831 -336.92914 336.92914 -336.92914l0 0c89.35916 0 175.05838 35.497787 238.24484 98.68426c63.186462 63.186478 98.684265 148.88571 98.684265 238.24487l0 0c0 186.08081 -150.84827 336.92914 -336.9291 336.92914l0 0c-186.08083 0 -336.92914 -150.84833 -336.92914 -336.92914z" fill-rule="evenodd"/><path fill="#ff0000" d="m39.74803 379.07086l0 0c0 -184.23697 149.35358 -333.59055 333.59058 -333.59055l0 0c88.473694 0 173.32376 35.14604 235.88412 97.706406c62.560364 62.560364 97.70642 147.41042 97.70642 235.88414l0 0c0 184.237 -149.35358 333.59058 -333.59055 333.59058l0 0c-184.23698 0 -333.59058 -149.35358 -333.59058 -333.59058z" fill-rule="evenodd"/><path stroke="#990000" stroke-width="8.0" stroke-linejoin="round" stroke-linecap="butt" d="m39.74803 379.07086l0 0c0 -184.23697 149.35358 -333.59055 333.59058 -333.59055l0 0c88.473694 0 173.32376 35.14604 235.88412 97.706406c62.560364 62.560364 97.70642 147.41042 97.70642 235.88414l0 0c0 184.237 -149.35358 333.59058 -333.59055 333.59058l0 0c-184.23698 0 -333.59058 -149.35358 -333.59058 -333.59058z" fill-rule="evenodd"/><path fill="#ff0000" d="m49.480316 379.07086l0 0c0 -178.59236 144.99628 -323.3701 323.85828 -323.3701l0 0c85.89255 0 168.26718 34.06925 229.00235 94.712906c60.73523 60.643646 94.855896 142.8941 94.855896 228.65717l0 0c0 178.59235 -144.99628 323.37006 -323.85825 323.37006l0 0c-178.862 0 -323.85828 -144.77771 -323.85828 -323.37006z" fill-rule="evenodd"/><path stroke="#990000" stroke-width="24.0" stroke-linejoin="round" stroke-linecap="butt" stroke-dasharray="96.0,72.0" d="m49.480316 379.07086l0 0c0 -178.59236 144.99628 -323.3701 323.85828 -323.3701l0 0c85.89255 0 168.26718 34.06925 229.00235 94.712906c60.73523 60.643646 94.855896 142.8941 94.855896 228.65717l0 0c0 178.59235 -144.99628 323.37006 -323.85825 323.37006l0 0c-178.862 0 -323.85828 -144.77771 -323.85828 -323.37006z" fill-rule="evenodd"/><path fill="#ff0000" d="m63.82677 379.07086l0 0c0 -170.93864 138.57317 -309.5118 309.5118 -309.5118l0 0c82.087616 0 160.81314 32.60919 218.85788 90.653915c58.04474 58.044724 90.65393 136.77025 90.65393 218.8579l0 0c0 170.93866 -138.57318 309.51184 -309.5118 309.51184l0 0c-170.93866 0 -309.5118 -138.57318 -309.5118 -309.51184z" fill-rule="evenodd"/><path stroke="#990000" stroke-width="8.0" stroke-linejoin="round" stroke-linecap="butt" d="m63.82677 379.07086l0 0c0 -170.93864 138.57317 -309.5118 309.5118 -309.5118l0 0c82.087616 0 160.81314 32.60919 218.85788 90.653915c58.04474 58.044724 90.65393 136.77025 90.65393 218.8579l0 0c0 170.93866 -138.57318 309.51184 -309.5118 309.51184l0 0c-170.93866 0 -309.5118 -138.57318 -309.5118 -309.51184z" fill-rule="evenodd"/><path fill="#ff0000" d="m98.220474 379.07086l0 0c0 -151.94353 123.174576 -275.1181 275.1181 -275.1181l0 0c72.96585 0 142.9432 28.985565 194.53787 80.58023c51.594666 51.59465 80.5802 121.57202 80.5802 194.53787l0 0c0 151.94354 -123.17456 275.1181 -275.11807 275.1181l0 0c-151.94354 0 -275.1181 -123.17456 -275.1181 -275.1181z" fill-rule="evenodd"/><path stroke="#990000" stroke-width="8.0" stroke-linejoin="round" stroke-linecap="butt" d="m98.220474 379.07086l0 0c0 -151.94353 123.174576 -275.1181 275.1181 -275.1181l0 0c72.96585 0 142.9432 28.985565 194.53787 80.58023c51.594666 51.59465 80.5802 121.57202 80.5802 194.53787l0 0c0 151.94354 -123.17456 275.1181 -275.11807 275.1181l0 0c-151.94354 0 -275.1181 -123.17456 -275.1181 -275.1181z" fill-rule="evenodd"/><path fill="#ff0000" d="m132.59842 379.07086l0 0c0 -132.9571 107.78305 -240.74016 240.74017 -240.74016l0 0c63.848236 0 125.08145 25.363632 170.22897 70.51117c45.147522 45.147537 70.51117 106.38072 70.51117 170.22899l0 0c0 132.95709 -107.78302 240.74017 -240.74014 240.74017l0 0c-132.95712 0 -240.74017 -107.78308 -240.74017 -240.74017z" fill-rule="evenodd"/><path stroke="#990000" stroke-width="8.0" stroke-linejoin="round" stroke-linecap="butt" d="m132.59842 379.07086l0 0c0 -132.9571 107.78305 -240.74016 240.74017 -240.74016l0 0c63.848236 0 125.08145 25.363632 170.22897 70.51117c45.147522 45.147537 70.51117 106.38072 70.51117 170.22899l0 0c0 132.95709 -107.78302 240.74017 -240.74014 240.74017l0 0c-132.95712 0 -240.74017 -107.78308 -240.74017 -240.74017z" fill-rule="evenodd"/><path fill="#ff0000" d="m166.99213 379.07086l0 0c0 -113.962006 92.38446 -206.34645 206.34647 -206.34645l0 0c54.72647 0 107.21149 21.740005 145.90897 60.43747c38.69745 38.697464 60.4375 91.18251 60.4375 145.90898l0 0c0 113.962006 -92.38446 206.34644 -206.34647 206.34644l0 0c-113.962006 0 -206.34647 -92.38443 -206.34647 -206.34644z" fill-rule="evenodd"/><path stroke="#990000" stroke-width="8.0" stroke-linejoin="round" stroke-linecap="butt" d="m166.99213 379.07086l0 0c0 -113.962006 92.38446 -206.34645 206.34647 -206.34645l0 0c54.72647 0 107.21149 21.740005 145.90897 60.43747c38.69745 38.697464 60.4375 91.18251 60.4375 145.90898l0 0c0 113.962006 -92.38446 206.34644 -206.34647 206.34644l0 0c-113.962006 0 -206.34647 -92.38443 -206.34647 -206.34644z" fill-rule="evenodd"/><path fill="#ff0000" d="m201.38583 379.07086l0 0c0 -94.96689 76.98587 -171.95276 171.95276 -171.95276l0 0c45.604706 0 89.34155 18.11641 121.58896 50.3638c32.247375 32.247406 50.36377 75.98425 50.36377 121.58896l0 0c0 94.96689 -76.98584 171.95276 -171.95273 171.95276l0 0c-94.96689 0 -171.95276 -76.98587 -171.95276 -171.95276z" fill-rule="evenodd"/><path stroke="#990000" stroke-width="8.0" stroke-linejoin="round" stroke-linecap="butt" d="m201.38583 379.07086l0 0c0 -94.96689 76.98587 -171.95276 171.95276 -171.95276l0 0c45.604706 0 89.34155 18.11641 121.58896 50.3638c32.247375 32.247406 50.36377 75.98425 50.36377 121.58896l0 0c0 94.96689 -76.98584 171.95276 -171.95273 171.95276l0 0c-94.96689 0 -171.95276 -76.98587 -171.95276 -171.95276z" fill-rule="evenodd"/><path fill="#ff0000" d="m235.77953 379.07086l0 0c0 -75.97177 61.587296 -137.55905 137.55907 -137.55905l0 0c36.48291 0 71.47162 14.492798 97.26892 40.2901c25.797333 25.797333 40.29013 60.78601 40.29013 97.26895l0 0c0 75.97177 -61.58728 137.55908 -137.55905 137.55908l0 0c-75.97177 0 -137.55907 -61.58731 -137.55907 -137.55908z" fill-rule="evenodd"/><path stroke="#990000" stroke-width="8.0" stroke-linejoin="round" stroke-linecap="butt" d="m235.77953 379.07086l0 0c0 -75.97177 61.587296 -137.55905 137.55907 -137.55905l0 0c36.48291 0 71.47162 14.492798 97.26892 40.2901c25.797333 25.797333 40.29013 60.78601 40.29013 97.26895l0 0c0 75.97177 -61.58728 137.55908 -137.55905 137.55908l0 0c-75.97177 0 -137.55907 -61.58731 -137.55907 -137.55908z" fill-rule="evenodd"/><path fill="#ff0000" d="m270.17322 379.07086l0 0c0 -56.976654 46.18872 -103.165344 103.165375 -103.165344l0 0c27.361145 0 53.601654 10.869171 72.94891 30.21643c19.34726 19.34726 30.21643 45.58777 30.21643 72.94891l0 0c0 56.976654 -46.18869 103.165344 -103.165344 103.165344l0 0c-56.976654 0 -103.165375 -46.18869 -103.165375 -103.165344z" fill-rule="evenodd"/><path stroke="#990000" stroke-width="8.0" stroke-linejoin="round" stroke-linecap="butt" d="m270.17322 379.07086l0 0c0 -56.976654 46.18872 -103.165344 103.165375 -103.165344l0 0c27.361145 0 53.601654 10.869171 72.94891 30.21643c19.34726 19.34726 30.21643 45.58777 30.21643 72.94891l0 0c0 56.976654 -46.18869 103.165344 -103.165344 103.165344l0 0c-56.976654 0 -103.165375 -46.18869 -103.165375 -103.165344z" fill-rule="evenodd"/><path fill="#ff0000" d="m304.55118 379.07086l0 0c0 -37.990234 30.79718 -68.787384 68.787415 -68.787384l0 0c18.24353 0 35.7399 7.247223 48.640015 20.147339c12.9001465 12.9001465 20.14737 30.396484 20.14737 48.640045l0 0c0 37.990234 -30.79715 68.787415 -68.787384 68.787415l0 0c-37.990234 0 -68.787415 -30.79718 -68.787415 -68.787415z" fill-rule="evenodd"/><path stroke="#990000" stroke-width="8.0" stroke-linejoin="round" stroke-linecap="butt" d="m304.55118 379.07086l0 0c0 -37.990234 30.79718 -68.787384 68.787415 -68.787384l0 0c18.24353 0 35.7399 7.247223 48.640015 20.147339c12.9001465 12.9001465 20.14737 30.396484 20.14737 48.640045l0 0c0 37.990234 -30.79715 68.787415 -68.787384 68.787415l0 0c-37.990234 0 -68.787415 -30.79718 -68.787415 -68.787415z" fill-rule="evenodd"/><path fill="#ff0000" d="m338.9449 379.07086l0 0c0 -18.995117 15.39859 -34.393707 34.393707 -34.393707l0 0c9.121765 0 17.869934 3.6236267 24.320007 10.0737c6.4500732 6.4500732 10.073669 15.198242 10.073669 24.320007l0 0c0 18.995117 -15.39856 34.393707 -34.393677 34.393707l0 0c-18.995117 0 -34.393707 -15.39859 -34.393707 -34.393707z" fill-rule="evenodd"/><path stroke="#990000" stroke-width="8.0" stroke-linejoin="round" stroke-linecap="butt" d="m338.9449 379.07086l0 0c0 -18.995117 15.39859 -34.393707 34.393707 -34.393707l0 0c9.121765 0 17.869934 3.6236267 24.320007 10.0737c6.4500732 6.4500732 10.073669 15.198242 10.073669 24.320007l0 0c0 18.995117 -15.39856 34.393707 -34.393677 34.393707l0 0c-18.995117 0 -34.393707 -15.39859 -34.393707 -34.393707z" fill-rule="evenodd"/></g></svg>