<svg version="1.1" viewBox="0.0 0.0 100.0 100.0" fill="none" stroke="none" stroke-linecap="square" stroke-miterlimit="10" xmlns:xlink="http://www.w3.org/1999/xlink" xmlns="http://www.w3.org/2000/svg"><clipPath id="p.0"><path d="m0 0l100.0 0l0 100.0l-100.0 0l0 -100.0z" clip-rule="nonzero"/></clipPath><g clip-path="url(#p.0)"><path fill="#000000" fill-opacity="0.0" d="m0 0l100.0 0l0 100.0l-100.0 0z" fill-rule="evenodd"/><path fill="#000000" d="m19.508886 50.095222l0 0c0 -16.907742 13.70643 -30.614172 30.614172 -30.614172l0 0c8.119385 0 15.906216 3.2254124 21.647488 8.966682c5.741272 5.74127 8.96669 13.528105 8.96669 21.64749l0 0c0 16.907745 -13.706436 30.614174 -30.614178 30.614174l0 0c-16.907742 0 -30.614172 -13.706429 -30.614172 -30.614174zm14.362333 0l0 0c0 8.975643 7.2761955 16.251839 16.251839 16.251839c8.975643 0 16.251842 -7.2761955 16.251842 -16.251839l0 0c0 -8.975643 -7.2761993 -16.251839 -16.251842 -16.251839l0 0c-8.975643 0 -16.251839 7.2761955 -16.251839 16.251839z" fill-rule="evenodd"/><path fill="#000000" d="m52.87119 20.116224l7.339752 -9.4285555l10.139393 4.211442l-1.4791412 11.862783z" fill-rule="evenodd"/><path stroke="#000000" stroke-width="1.0" stroke-linejoin="round" stroke-linecap="butt" d="m52.87119 20.116224l7.339752 -9.4285555l10.139393 4.211442l-1.4791412 11.862783z" fill-rule="evenodd"/><path fill="#000000" d="m73.28153 31.0493l11.85582 -1.476265l4.1938705 10.165129l-9.435516 7.3426323z" fill-rule="evenodd"/><path stroke="#000000" stroke-width="1.0" stroke-linejoin="round" stroke-linecap="butt" d="m73.28153 31.0493l11.85582 -1.476265l4.1938705 10.165129l-9.435516 7.3426323z" fill-rule="evenodd"/><path fill="#000000" d="m80.39525 52.487408l9.451126 7.243885l-4.162094 10.205147l-11.84021 -1.3860397z" fill-rule="evenodd"/><path stroke="#000000" stroke-width="1.0" stroke-linejoin="round" stroke-linecap="butt" d="m80.39525 52.487408l9.451126 7.243885l-4.162094 10.205147l-11.84021 -1.3860397z" fill-rule="evenodd"/><path fill="#000000" d="m69.43587 73.35091l1.4828415 11.819244l-10.20977 4.2040253l-7.3360634 -9.409096z" fill-rule="evenodd"/><path stroke="#000000" stroke-width="1.0" stroke-linejoin="round" stroke-linecap="butt" d="m69.43587 73.35091l1.4828415 11.819244l-10.20977 4.2040253l-7.3360634 -9.409096z" fill-rule="evenodd"/><path fill="#000000" d="m47.396423 79.97816l-7.3331985 9.402168l-10.184 -4.2216644l1.4857006 -11.826172z" fill-rule="evenodd"/><path stroke="#000000" stroke-width="1.0" stroke-linejoin="round" stroke-linecap="butt" d="m47.396423 79.97816l-7.3331985 9.402168l-10.184 -4.2216644l1.4857006 -11.826172z" fill-rule="evenodd"/><path fill="#000000" d="m26.954653 69.76765l-11.875439 1.484436l-4.2806177 -10.181469l9.4159 -7.334461z" fill-rule="evenodd"/><path stroke="#000000" stroke-width="1.0" stroke-linejoin="round" stroke-linecap="butt" d="m26.954653 69.76765l-11.875439 1.484436l-4.2806177 -10.181469l9.4159 -7.334461z" fill-rule="evenodd"/><path fill="#000000" d="m19.60475 47.26567l-9.449413 -7.3483276l4.1586695 -10.21673l11.841926 1.4705696z" fill-rule="evenodd"/><path stroke="#000000" stroke-width="1.0" stroke-linejoin="round" stroke-linecap="butt" d="m19.60475 47.26567l-9.449413 -7.3483276l4.1586695 -10.21673l11.841926 1.4705696z" fill-rule="evenodd"/><path fill="#000000" d="m30.565966 26.824995l-1.4873638 -11.88238l10.15583 -4.298234l7.3315315 9.408959z" fill-rule="evenodd"/><path stroke="#000000" stroke-width="1.0" stroke-linejoin="round" stroke-linecap="butt" d="m30.565966 26.824995l-1.4873638 -11.88238l10.15583 -4.298234l7.3315315 9.408959z" fill-rule="evenodd"/></g></svg>